
<svg xmlns="http://www.w3.org/2000/svg" viewBox="0 0 23.09 20.9"><defs><style>.cls-1{fill:#cf712e;}.cls-1,.cls-2,.cls-3,.cls-4,.cls-5,.cls-6{fill-rule:evenodd;}.cls-2{fill:#eea600;}.cls-3{fill:#fdda72;}.cls-4{fill:#ffe694;}.cls-5{fill:#ffedb4;}.cls-6{fill:#a65324;}</style></defs><g id="레이어_2" data-name="레이어 2"><g id="Layer_1" data-name="Layer 1"><path class="cls-1" d="M22.65,11.32,1.08,11.2c0,1.35.62,6.6,2.1,6.84v.08c1.6.53,2.91,2.33,5,2.64A28.6,28.6,0,0,0,17.89,20,7.31,7.31,0,0,0,20.83,18a4.89,4.89,0,0,0,.79-1.6,3,3,0,0,0,.35-1A5,5,0,0,0,22.65,11.32Z"/><path class="cls-2" d="M5,17A2.58,2.58,0,0,1,5,16.58l0-.09A1.59,1.59,0,0,0,5,17Z"/><path class="cls-2" d="M18.91,17.5a3.37,3.37,0,0,1-.19.32.48.48,0,0,1-.51.25.42.42,0,0,1-.29-.42,3.92,3.92,0,0,0-.5-1.55A4.57,4.57,0,0,1,17,18.33a.36.36,0,0,1-.36.18c-.32,0-.32-.33-.33-.56a5.48,5.48,0,0,0-.05-.57,3.69,3.69,0,0,0-.28-1c0,.29,0,.6,0,.72,0,.54,0,1.44-.54,1.77a.36.36,0,0,1-.55-.28v-.09c0-.09,0-.18,0-.27q0-.39-.06-.78a3.15,3.15,0,0,0-.19-.78l-.14.15a4,4,0,0,0-.23.46c-.13.28-.26.57-.4.85s-.26.56-.4.83v0c-.13.18-.31.36-.56.27s-.27-.45-.25-.7.05-.46.06-.68a2.23,2.23,0,0,0,0-.68c-.44.07-.58.79-.68,1.15h0c-.08.24-.21.52-.51.49S11,18,11,17.69a2.4,2.4,0,0,0-.13-.53c-.17,0-.26-.05-.38,0a1.08,1.08,0,0,0-.17.36.78.78,0,0,0,0,.26c0,.29,0,.82-.33.91-.64.16-1-1.82-1.4-2.1a12.16,12.16,0,0,0,.25,1.77c0,.25.05.55-.23.67s-.69-.32-.87-.58l-.22-.33a7,7,0,0,1-.71-1.48A2.34,2.34,0,0,0,6.79,18a3.82,3.82,0,0,0,.26.54c.11.2.24.43.08.65a.36.36,0,0,1-.25.15c-.35.07-.86-.43-1.06-.67A3.49,3.49,0,0,1,5.39,18a.41.41,0,0,1-.15.43c-.39.27-.86-.35-1-.61a6.44,6.44,0,0,1-.82-1.44l0,0a.29.29,0,0,1-.19.15c-.33.12-.56-.22-.7-.45a6.81,6.81,0,0,1-.39-.82,3,3,0,0,1-.23-1.1c0-.58-.05-1.16-.05-1.74a.31.31,0,0,1-.19.09C1.17,12.61,1,12,1,11.72A5,5,0,0,1,1.1,8.34a3.74,3.74,0,0,1,.77-2.29.27.27,0,0,0-.08.07,4.1,4.1,0,0,1-1.74.27c-.15-.07.06-.34.48-.8A16,16,0,0,0,1.58,4.22,20.16,20.16,0,0,1,3.13,2.44,5,5,0,0,1,5.5,1.21C6.25.38,8.25.13,9.27.05a10.55,10.55,0,0,1,3.85.28,9.2,9.2,0,0,0,2.73.4c1,.06,2.51.14,3.29.8C20.6,2.79,22.68,3.71,23,5.88c0,.28.16.76-.19.9a.33.33,0,0,1-.26,0c.05.15.09.3.14.44.12.41.23.82.31,1.24a7.18,7.18,0,0,1,.13,1.85c0,.27-.08.53-.1.78a3.2,3.2,0,0,1,0,1.11c0,.34-.11,1.37-.62,1.33a.34.34,0,0,1-.33-.23c-.21,1.71-.81,4-2.1,4C19.59,17.31,19.1,17.15,18.91,17.5Z"/><path class="cls-2" d="M20.18,16.06l-.24.5A2.11,2.11,0,0,0,20.18,16.06Z"/><path class="cls-3" d="M5.12,1.48C2.94,2,1.55,4.89.66,5.78s-.09.38.55-.14c1-.82,1.57-.55.41.55A3.29,3.29,0,0,0,.88,8.42c-.56.77-.36,2.4-.15,3.17s.36.87.3-.26.77-.7.58.43a21.51,21.51,0,0,0,0,2.41c0,.71.74,2.22.88,2-.31-1.62.26-3,.45-2.19a10,10,0,0,0,.15,2.09C3.6,17.47,4.65,18.51,4.46,18s-1-2.08.08-1.95a1.78,1.78,0,0,1,.19.47,2.87,2.87,0,0,0,1.51,2.46c.28-.05-1.16-1.22-.14-3.25a1.37,1.37,0,0,1,.13-.2,6.62,6.62,0,0,0,.92,2.37c.26.4.81,1.2.68.48,0-.31-.47-2.24-.08-2.24.75,0,1.1,1.31,1.33,1.87.32.79.13-.15.29-.63.29-.92.59-.5.91-.57.61-.12.42,2.5.78,1.44.17-.6.35-1.36,1-1.41.84-.07-.06,2.73.48,1.94.39-.74.91-2,1.06-2.19,1.06-1.34,1,2,1,2,.76-.5,0-3.69.69-2.92a5,5,0,0,1,.75,2.52A6.08,6.08,0,0,0,16.43,15v-.06A4.6,4.6,0,0,1,17.7,17.6c0,.41.5-.64.54-.73.08-.25.12-1.49.41-1.38.69.26.18,1,.2,1.4a11.45,11.45,0,0,1,.55-1.23,3.57,3.57,0,0,0,.29-.76,7.26,7.26,0,0,0,.07-1.69,4.34,4.34,0,0,1,.43,1.62c0,.52-.31,1.93-.8,2.09,1.44,0,1.87-4.15,1.83-5.14l0-.63a5.67,5.67,0,0,1,.56,1.55c.07,1.48.54-1.14.31-1.58a7.33,7.33,0,0,0,0-2.63,31.92,31.92,0,0,0-1.17-3.72c1.24,1.7,1.29,2.11,1.17,1.12-.26-2-2.43-3-3.7-4.13S13.84,1.27,12.4.61C11.23.07,6.08.2,5.12,1.48Z"/><path class="cls-4" d="M3.79,3.37c-1.14,1.69,0,1.11,1.29,1.11.24,0-2,1.82-2.17,2.44s-1,3.64-.3,2.56c.32-.49,2-1.71,1.33-.26-.4.84-.87,2.26.42,1.94.91-.22.23,1.85.23,2.6,0,1.48.12,1.51.57.39.62-1.57.76-.65.92.19s.42-.5.76-.5c.56,0,.1,1.15,1.37.46,1.11-.61.32,1.58,2,.61s.86.38,2,.65c.88.22,1.5-.4,2.09-.88,1.48-1.17,1.54.66,2.63-1.18.6-1,1.14,1.06,1.14,1.64,0,.25,1.64-4.76,1.64-1.26a13.19,13.19,0,0,1,.57-2.07c.68-1.14.6.88.81,1.15,0-3.31,2.52-4.07-.31-7.79-.5-.67-.78-2-1.55-2.63C17.88,1.47,14.52,1.29,12.77.89,9.16.07,5.51.82,3.79,3.37Z"/><path class="cls-5" d="M3.79,3.37c-1.14,1.69,0,1.11,1.29,1.11.24,0-2,1.82-2.17,2.44-.09.35-.45,1.63-.56,2.33.8-.69,1.82-1.68,2.93-1.68a8.06,8.06,0,0,0-.58,2c.09,0,2.62-2.34,1.87-.08,1,0,1.37.87,1.75-.45.23-.79,2.74-2.95,2.79-1.5,0,.72-.23,1.38-.23,2.11,0,1.19.95.13.95-1s1.61-.75,2-.34C15,9.45,15.15,7.44,15.3,6.5s.95.07.95.73c0,.87-.34,1.68-.34,2.48a10.19,10.19,0,0,0,1.64-4.05c.12-1.74,1.14-.08,1.14.77.33-.11.46-2.29.8-1.61s.14,4.42,1,2.06c.72-2-1.35-2.77-1.68-4.58h0c-1.46-.86-4.42-1-6-1.41C9.16.07,5.51.82,3.79,3.37Z"/><path class="cls-6" d="M9.94,7.87A7.34,7.34,0,0,0,9,6.79L7.65,5.52l0,0,0,0a.42.42,0,0,1-.06-.26c0-.11,0-.23,0-.34h0a2.46,2.46,0,0,0,0-.26c0-.12,0-.23,0-.35a1.79,1.79,0,0,1,0-.23l0-.38h.38l.53,0,.52,0h1l.09.08a7.83,7.83,0,0,1,1,1.1,9.32,9.32,0,0,0,1,1.1,11.46,11.46,0,0,0,1.06-1.15,8.44,8.44,0,0,1,1-1.06l.1-.06h2.26V5.35l-.05.08A9.93,9.93,0,0,1,15.2,6.69a12.66,12.66,0,0,0-1.14,1.17,10.4,10.4,0,0,0,1,1.07c.43.43.88.85,1.3,1.3l0,0,0,.05a2.94,2.94,0,0,1,.08.9,2.32,2.32,0,0,1-.06.7l-.07.17-.18,0c-.13,0-.09,0-.38,0h-.7l-.48,0h-.52L14,12.05A8.28,8.28,0,0,1,13,11a11.1,11.1,0,0,0-1-1.08A10.36,10.36,0,0,0,11,11a6.22,6.22,0,0,1-1,1.07l-.05,0h0a2.72,2.72,0,0,1-.57,0,10.48,10.48,0,0,1-1.38-.05l-.29,0,0-.29c0-.07,0-.14,0-.2s0-.24,0-.36a2.34,2.34,0,0,1,.1-.88l0,0,0,0L9,9A8,8,0,0,0,9.94,7.87Z"/></g></g></svg>