
<svg width="110" height="59" viewBox="0 0 110 59" fill="none" xmlns="http://www.w3.org/2000/svg">
<g clip-path="url(#clip0)">
<path fill-rule="evenodd" clip-rule="evenodd" d="M1.59996 45.18C1.52791 45.1497 1.46056 45.1093 1.39996 45.06C1.27084 44.974 1.16616 44.856 1.09608 44.7176C1.02599 44.5792 0.99288 44.425 0.999955 44.27C1.01131 43.984 1.04812 43.6995 1.10996 43.42C1.17996 43.01 1.24996 42.59 1.29996 42.18C1.41415 41.6037 1.43441 41.0128 1.35996 40.43C1.23342 40.3243 1.14525 40.1798 1.1091 40.0189C1.07294 39.858 1.09082 39.6897 1.15996 39.54C1.28345 39.3758 1.45454 39.2536 1.64996 39.19L1.55996 39.13L1.44996 39.05C1.35403 38.9961 1.27154 38.9212 1.20866 38.8309C1.14577 38.7405 1.10411 38.6372 1.0868 38.5285C1.06949 38.4198 1.07697 38.3087 1.10869 38.2033C1.14041 38.0979 1.19554 38.0011 1.26996 37.92C1.90996 36.99 4.88996 37.25 6.06996 37.25C35.17 37.1567 64.2633 37.1 93.35 37.08C94.24 37.08 95.19 36.99 96.08 36.93C97.32 36.83 98.55 36.73 99.8 36.67C101.8 36.57 105.55 36.67 107.01 37.54C108.11 38.19 108.4 38.54 108.51 39.63C108.62 40.72 108.51 42.25 108.51 43.2V49.08C108.51 49.66 108.45 50.3 108.39 50.88C108.24 52.32 109.13 56.88 108.69 57.54C108.409 57.8315 108.064 58.0524 107.681 58.1845C107.299 58.3166 106.891 58.3562 106.49 58.3C100.87 58.23 92.04 58.48 88.36 58.2C88.01 58.2 87.64 58.14 87.3 58.14H21.62L3.45996 57.65C1.55996 57.6 0.899955 57 0.839955 55.78C0.839955 54.78 -0.0500447 50.78 -4.46776e-05 50.46C0.379955 48.46 1.28996 48.34 1.05996 48.13C0.829955 47.92 1.80996 47.75 1.75996 47.52C1.66728 47.2708 1.55354 47.0299 1.41996 46.8C1.17996 46.3 0.919955 45.61 1.53996 45.22L1.59996 45.18Z" fill="#813914"/>
<path fill-rule="evenodd" clip-rule="evenodd" d="M1.6 8.53999C1.52796 8.50973 1.46061 8.46932 1.4 8.41999C1.27089 8.33396 1.16621 8.21601 1.09612 8.07759C1.02604 7.93917 0.992924 7.78498 1 7.62999C1.01227 7.34403 1.04907 7.05966 1.11 6.77999C1.18 6.36999 1.25 5.94999 1.3 5.53999C1.42754 4.96588 1.46131 4.3749 1.4 3.78999C1.18 3.52999 1.01 3.21999 1.2 2.90999C1.31582 2.73809 1.48982 2.6138 1.69 2.55999L1.6 2.48999L1.49 2.40999C1.39408 2.35606 1.31159 2.28114 1.2487 2.19084C1.18581 2.10053 1.14416 1.99718 1.12685 1.8885C1.10954 1.77983 1.11702 1.66865 1.14874 1.56327C1.18045 1.4579 1.23558 1.36106 1.31 1.27999C2 0.349994 4.93 0.609994 6.11 0.609994C35.21 0.523327 64.3033 0.466661 93.39 0.439994C94.28 0.439994 95.23 0.359994 96.12 0.289994C97.36 0.189994 98.59 0.0899939 99.84 0.0299939C101.84 -0.0700061 105.59 0.0299939 107.05 0.899994C108.15 1.54999 108.44 1.89999 108.55 2.98999C108.66 4.07999 108.55 5.60999 108.55 6.56999V12.44C108.55 13.02 108.49 13.66 108.43 14.25C108.28 15.68 109.17 20.2 108.73 20.9C108.449 21.1915 108.104 21.4124 107.721 21.5445C107.339 21.6766 106.931 21.7162 106.53 21.66C100.91 21.59 92.08 21.84 88.4 21.56C88.05 21.56 87.68 21.5 87.34 21.5H21.62L3.46 21C3.11054 21.008 2.76303 20.9458 2.43809 20.817C2.11314 20.6882 1.81738 20.4954 1.56835 20.2501C1.31932 20.0048 1.12211 19.712 0.988402 19.389C0.854697 19.0661 0.787229 18.7195 0.79 18.37C0.79 17.86 1.46 17.16 1.24 15.96C1.02 14.76 0 15 0 13.82C0.11 13.24 1.15 13.02 1.22 12.59C1.35 11.78 1.84 11.23 1.76 10.88C1.66733 10.6308 1.55358 10.3899 1.42 10.16C1.18 9.65999 0.92 8.97999 1.54 8.57999L1.6 8.53999Z" fill="#813914"/>
<path fill-rule="evenodd" clip-rule="evenodd" d="M108.39 31.29L108.6 31.39C108.714 31.4591 108.807 31.5581 108.868 31.6762C108.93 31.7943 108.958 31.927 108.95 32.06C108.941 32.2995 108.908 32.5374 108.85 32.77C108.78 33.11 108.71 33.46 108.65 33.77C108.541 34.2523 108.52 34.7505 108.59 35.24C108.82 35.46 108.99 35.72 108.8 35.98C108.672 36.1292 108.501 36.2342 108.31 36.28H108.39L108.51 36.35C108.613 36.3771 108.707 36.4331 108.779 36.5115C108.852 36.5899 108.9 36.6874 108.919 36.7925C108.938 36.8977 108.927 37.006 108.886 37.1048C108.845 37.2035 108.777 37.2886 108.69 37.35C108.04 38.13 105.06 37.91 103.88 37.91C74.7933 37.99 45.7 38.0367 16.6 38.05C15.71 38.05 14.76 38.12 13.88 38.18C12.64 38.26 11.4 38.35 10.16 38.4C8.15998 38.48 4.39998 38.4 2.94998 37.67C1.84998 37.12 1.54998 36.79 1.43998 35.91C1.32998 35.03 1.43998 33.71 1.43998 32.91V28C1.45349 27.4946 1.4969 26.9903 1.56998 26.49C1.70998 25.28 0.829978 21.49 1.26998 20.9C1.56948 20.6449 1.91905 20.4553 2.29621 20.3433C2.67338 20.2314 3.06979 20.1996 3.45998 20.25C9.07998 20.31 17.92 20.11 21.6 20.34C21.94 20.34 22.31 20.34 22.66 20.34H88.38L106.54 20.75C108.43 20.8 109.1 21.32 109.15 22.33C109.15 23.15 110.05 26.54 109.99 26.79C109.62 28.48 108.71 28.57 108.99 28.79C109.27 29.01 108.23 29.11 108.28 29.3C108.378 29.5137 108.495 29.7179 108.63 29.91C108.87 30.32 109.12 30.91 108.5 31.24L108.39 31.29Z" fill="#813914"/>
<path fill-rule="evenodd" clip-rule="evenodd" d="M8.66996 24.6C6.66996 25.5 2.66996 26.21 2.60996 24.98C2.60996 24.72 3.60996 25.04 3.60996 24.76C3.36996 24 1.99996 22.65 2.35996 22C0.979956 21.19 2.25996 20.75 2.77996 20.8C4.70996 20.8 7.36996 20.86 10.37 20.8C11.5157 20.8654 12.6642 20.8654 13.81 20.8C17.6766 20.6473 21.5486 20.6974 25.41 20.95C24.72 21.24 20.31 22.8 20.77 22.79C21.23 22.78 21.41 23.16 8.66996 24.6Z" fill="#A54A16"/>
<path fill-rule="evenodd" clip-rule="evenodd" d="M16.3 31C13.74 31.23 11.25 31.53 8.77999 31.81C6.77999 32.71 2.77999 33.42 2.71999 32.19C2.71999 31.25 1.98999 30.1 2.45999 29.19H2.52999C2.52999 29.19 2.60999 29.26 2.60999 29.29C4.12948 29.4092 5.63737 29.6466 7.11999 30L7.60999 30.06H17.76C17.91 30.06 18.32 29.99 18.13 30.06C17.62 30.28 17.63 30.21 18.19 30.21C18.35 30.21 18.75 30.21 18.81 30.05H20.88C21.43 30.05 20.94 30.58 20.39 30.81H19.46L17.61 30.87L16.3 31Z" fill="#A54A16"/>
<path fill-rule="evenodd" clip-rule="evenodd" d="M16.11 35C13.53 35.23 11.01 35.53 8.49995 35.81C6.37995 36.71 2.32995 37.42 2.39995 36.19C2.45995 35.26 1.90995 34.11 2.47995 33.19H2.53995C2.53995 33.19 2.60995 33.26 2.60995 33.29C4.10645 33.4085 5.59113 33.6459 7.04995 34L7.52995 34.06H17.67C17.83 34.06 18.25 34 18.05 34.06C17.52 34.27 17.53 34.2 18.1 34.2C18.25 34.2 18.65 34.2 18.73 34.04H20.8C21.36 34.04 20.8 34.58 20.23 34.8H19.3C18.68 34.8 18.06 34.8 17.44 34.87C17 34.91 16.55 35 16.11 35Z" fill="#A54A16"/>
<path fill-rule="evenodd" clip-rule="evenodd" d="M99 28.44L101.58 28.65C102.06 28.81 100.01 29.43 99 30.15V31.53C99.78 32.47 101.63 35.4 104.18 36.66C104.92 37.02 107.63 36.94 108.18 36.99C108.32 36.99 107.93 36.49 108 36.35C108.43 35.55 107.86 32.66 108 32.65C108.71 32.65 107.47 29.21 107.59 28.91C107.86 28.26 108.83 27.46 108.59 26.83H108.51C108.51 26.83 108.42 26.88 108.41 26.9C106.847 26.9745 105.288 27.128 103.74 27.36H103.23L99 27.15V28.44V28.44ZM109 26.32V26.55C108.57 27.04 104.93 26.55 102.73 26.04L99 25.76V24.82H102.9H103.36C104.735 24.5784 106.125 24.4248 107.52 24.36C107.52 24.36 107.52 24.36 107.52 24.29C108.46 24.92 108.38 25.72 108.83 26.37L109 26.32ZM94.3 28.08C95.91 28.19 97.48 28.31 99.04 28.44V27.15C91.04 26.59 74.12 25.43 73.09 25.62V25.67C73.4 25.67 90.86 27.95 91.17 27.95L93 28L94.3 28.07V28.08ZM99 30.15C98.47 30.51 98.22 30.91 98.74 31.28C98.837 31.3518 98.9244 31.4359 99 31.53V30.15ZM99 24.82V25.76L94.71 25.47C94.25 25.47 93.71 25.41 93.33 25.4C92.7 25.4 92.07 25.4 91.45 25.4H90.51C89.84 25.24 89.06 24.86 89.62 24.87H91.7C91.924 24.9517 92.1617 24.989 92.4 24.98C92.97 24.98 93.01 25.03 92.4 24.88C92.17 24.88 92.62 24.88 92.77 24.88H99V24.82Z" fill="#A54A16"/>
<path fill-rule="evenodd" clip-rule="evenodd" d="M84.7599 36.43C56.4899 35.12 30.5499 32.76 2.32991 31.84C2.08351 32.1741 1.9663 32.5861 1.99991 33C1.99991 34.94 2.64991 34.71 5.47991 34.71C6.03991 34.71 2.41991 35.97 2.41991 36.49C2.41991 39.2 13.1799 37.73 16.5599 37.73C46.2299 37.73 73.7499 37.67 103.84 37.59C104.68 37.59 107.67 37.75 108.09 37.25C108.26 37.03 108.21 36.92 108.09 36.84H103.71C99.9799 36.84 96.2399 36.84 92.5199 36.77C90.0899 36.67 87.3099 36.55 84.7599 36.43Z" fill="#A54A16"/>
<path fill-rule="evenodd" clip-rule="evenodd" d="M85.5599 36.81L83.3199 36.74C75.3199 36.37 67.5199 35.87 59.7599 35.33C52.5999 34.82 45.4999 34.33 38.3099 33.8C26.4499 33 14.4066 32.4333 2.17992 32.1C2.05673 32.3838 1.99537 32.6906 1.99992 33C1.99003 33.2988 2.0169 33.5977 2.07992 33.89C22.9999 35 47.2199 36.92 41.1699 36.61C28.4999 36 15.5299 35 2.41992 34.37C2.86992 34.75 3.77992 34.66 5.51992 34.66C6.07992 34.66 2.45992 35.92 2.45992 36.44C2.45992 39.15 13.2199 37.68 16.5999 37.68C46.2699 37.68 73.7899 37.62 103.88 37.54C105.216 37.6345 106.559 37.5707 107.88 37.35C102.8 37.29 97.7233 37.2033 92.6499 37.09L85.5599 36.81Z" fill="#B35516"/>
<path d="M2.69992 37.06C10.5599 37.2867 18.4266 37.4933 26.2999 37.68C45.2999 37.68 63.6099 37.68 82.5199 37.59C60.5199 36.59 39.6499 34.3 17.6299 33.28C12.4799 33.05 7.26992 32.92 2.03992 32.82V33.19C7.82992 33.46 14.0399 33.76 18.2099 34C20.8699 34.16 48.7099 36.93 48.0099 36.9C33.5299 36.28 18.9399 35.65 4.27992 35.32C3.42992 35.7 2.45992 36.17 2.45992 36.44C2.45577 36.6701 2.54192 36.8927 2.69992 37.06V37.06Z" fill="#DE9829"/>
<path fill-rule="evenodd" clip-rule="evenodd" d="M80.4099 27.84C53.4799 26 28.3299 23.31 1.77991 21.69C2.26991 22.78 5.13991 24.38 7.77991 24.38C7.77991 24.48 2.90991 24.91 2.60991 25.07C2.30991 25.23 1.99991 27.83 1.99991 28C1.99991 30.12 2.30991 31 5.83991 31C5.20991 32.63 2.03991 30.1 2.03991 33C2.03991 34.94 2.68991 34.71 5.51991 34.71C5.81991 34.71 4.88991 35.08 3.97991 35.51C20.9802 34.7681 38.0093 35.0219 54.9799 36.27C61.8499 36.82 68.8599 37.27 75.8799 37.66L103.93 37.59C104.77 37.59 107.76 37.75 108.18 37.25C108.6 36.75 108.18 36.82 107.97 36.7C107.36 36.26 104.85 36.82 104.97 36.43C107.33 35.92 108.84 36.25 108.09 35.55C107.63 35.12 108.37 32.55 108.36 32.11C108.36 31.26 107.44 31.95 103.92 31.11C105.53 31.11 107.39 31.32 108.09 30.95C108.59 30.68 107.74 29.76 107.65 29.4C107.56 29.04 107.89 29.05 105.98 29.05C105.308 28.979 104.64 28.8722 103.98 28.73L99.7299 28.64C95.9799 28.58 92.2099 28.46 88.4399 28.32C85.8499 28.19 82.9999 28 80.4099 27.84Z" fill="#A54A16"/>
<path fill-rule="evenodd" clip-rule="evenodd" d="M81.3199 28.23C80.5599 28.23 79.7999 28.19 79.0399 28.11C70.9099 27.56 62.8699 26.88 54.8899 26.16C47.5299 25.49 40.2099 24.78 32.8199 24.16C22.5999 23.26 12.2999 22.52 1.91992 21.94C2.95651 23.0474 4.30683 23.8116 5.78992 24.13C24.3299 25.69 41.7899 27.41 36.4999 27.03C26.5999 26.31 16.4999 25.41 6.26992 24.61C4.80992 24.77 2.75992 24.98 2.56992 25.09C2.17992 25.27 1.99992 27.83 1.99992 28C1.90467 28.7405 2.0633 29.4913 2.44992 30.13C7.14992 30.34 11.7799 30.6 16.1899 30.92C16.4899 30.92 10.7099 30.73 2.96992 30.53C3.87862 30.9021 4.86 31.0628 5.83992 31C5.20992 32.63 2.03992 30.1 2.03992 33C2.02818 33.2065 2.02818 33.4135 2.03992 33.62C14.1699 33.52 27.0399 33.89 39.5499 34.19C27.6699 34.19 14.3699 33.75 2.09992 33.91C2.34992 34.91 3.20992 34.71 5.48992 34.71C5.74992 34.71 5.09992 34.99 4.31992 35.33C8.41992 35.19 12.5699 35.09 16.7399 35.04C25.0899 34.93 33.6299 34.99 42.1899 35.28C46.9899 35.44 51.8699 35.65 56.5899 36.03C61.7499 36.44 66.9799 36.77 72.1999 37.08C75.6066 37.28 79.0199 37.4667 82.4399 37.64L103.85 37.59C104.69 37.59 107.68 37.75 108.1 37.25C108.52 36.75 108.1 36.82 107.89 36.7C107.28 36.26 104.77 36.82 104.89 36.43C107.25 35.92 108.76 36.25 108.01 35.55C107.68 35.23 108.01 33.77 108.16 32.84C102.227 32.7067 96.2899 32.5333 90.3499 32.32C80.7999 31.92 70.3499 30.91 60.4999 30.47C63.2199 30.55 66.0899 30.65 67.8299 30.74C75.2199 31.15 82.6699 31.45 90.0599 31.54C95.3199 31.54 100.51 31.54 105.68 31.48C105.17 31.41 104.56 31.31 103.84 31.15C105.45 31.15 107.31 31.36 108.01 30.99C108.51 30.72 107.67 29.82 107.57 29.45C101.223 29.2433 94.8899 29 88.5699 28.72C86.2499 28.54 83.7099 28.37 81.3199 28.23Z" fill="#C37025"/>
<path d="M2.08993 32.38C28.6399 32.38 55.8899 34.99 83.2599 35.38L91.6499 35.47C97.1099 35.47 102.56 35.47 107.98 35.41C107.995 35.4514 108.019 35.4889 108.05 35.52C108.099 35.5641 108.146 35.6109 108.19 35.66L95.5699 36.09L104.93 36.45C104.99 36.6 105.67 36.54 106.38 36.51H107.63C107.733 36.5321 107.831 36.5728 107.92 36.63C108.1 36.75 108.41 36.83 108.13 37.18C107.85 37.53 104.72 37.52 103.88 37.52H100.72L92.9199 37.21C87.6299 36.97 82.3599 36.7 77.0699 36.41C52.3299 35.1 28.7199 34.22 5.57993 34.65C5.57993 34.65 5.57993 34.65 5.51993 34.65C3.23993 34.65 2.37993 34.8 2.12993 33.85C14.3999 33.7 27.6999 34.16 39.5799 34.13C27.2899 33.83 14.4399 33.29 2.03993 33.23V33C2.03577 32.7922 2.05252 32.5845 2.08993 32.38Z" fill="#D68821"/>
<path d="M2.13 26.79C10.13 27.19 18.1633 27.5667 26.23 27.92C26.95 27.92 15 27.92 10.9 27.92L2 27.9V28C2 28.3 2 28.58 2 28.83C15.24 28.93 28.49 29.07 41.43 29.83C58.1 30.91 73.53 32.53 90.63 33C96.15 33.11 101.63 33.18 107.13 33.19H108.06C108.16 32.66 108.26 32.19 108.26 32.05C108.268 31.9267 108.229 31.8049 108.15 31.71C104.37 31.71 100.58 31.71 96.78 31.71L90.02 31.65C78.17 31.38 67.41 30.25 56.47 29.32C67 30 80.76 30.76 89.85 30.87H93.46C97.94 30.87 102.82 30.93 107.88 31L108.05 30.93C108.34 30.77 108.17 30.39 107.96 30.02C101.653 29.9133 95.32 29.7467 88.96 29.52C62.63 28.33 37.76 24.9 11.77 23.13C8.72 22.93 5.65 22.76 2.58 22.61C2.86526 22.8283 3.16606 23.0255 3.48 23.2C6.88 23.44 10.07 23.67 12.57 23.87C15.29 24.08 44.15 27.49 43.44 27.45C29.92 26.58 16.28 25.7 2.63 25H2.57C2.35 25.18 2.21 26 2.13 26.79Z" fill="#DD9829"/>
<path d="M107.9 34.79C102.527 34.87 97.1499 34.9333 91.7699 34.98C83.3599 34.98 74.8399 34.88 66.2999 34.64V33.7H68.6199C76.1199 33.82 83.7099 34.06 91.0599 33.92C92.7105 33.9601 94.3618 33.8765 95.9999 33.67L91.1399 33.74C82.9499 33.74 74.6299 33.61 66.2999 33.28V32.53C74.4599 32.96 82.6499 33.33 90.9099 33.53C96.6299 33.65 102.34 33.74 108.01 33.78C107.95 34.1137 107.913 34.4512 107.9 34.79V34.79ZM66.2999 34.64C59.8899 34.46 53.4599 34.22 47.0499 33.91C33.9399 33.29 17.8399 32.61 2.04993 32.4C2.42993 30.5 4.96993 32.29 5.69993 31.15C12.1199 31.39 17.9699 31.52 18.7799 31.15L2.77993 30.45C2.53704 30.2687 2.34186 30.031 2.21121 29.7575C2.08056 29.484 2.01835 29.1829 2.02993 28.88C23.4599 29.8 44.7299 31.4 66.2599 32.55V33.3C56.3099 32.91 46.3499 32.3 36.5699 31.58C43.2899 32.9 57.4299 33.5 66.2999 33.7V34.64Z" fill="#DD9826"/>
<path fill-rule="evenodd" clip-rule="evenodd" d="M29.32 24.43C30.08 24.43 30.84 24.49 31.6 24.54C39.73 25.07 47.77 25.72 55.75 26.42C63.11 27.06 70.43 27.75 77.82 28.42C87.82 29.2733 97.9366 29.97 108.17 30.51C108.04 30.13 107.67 29.67 107.61 29.43C107.48 28.97 107.85 29.08 105.94 29.08C105.38 29.08 100.77 28.2 101.32 28.08C84.17 26.66 69.19 25.22 74.14 25.56C84.22 26.27 94.53 27.16 104.92 27.94C109.26 27.61 112.41 26.64 105.14 25.12C102.9 24.64 106.2 25.05 107.68 24.57C107.889 24.4888 108.079 24.3634 108.235 24.2022C108.392 24.0411 108.512 23.848 108.587 23.6363C108.662 23.4246 108.69 23.1991 108.67 22.9754C108.65 22.7516 108.582 22.5349 108.47 22.34C103.66 22.15 98.92 21.9 94.41 21.59C94.1 21.59 100.17 21.76 108.2 21.94C107.981 21.72 107.718 21.5477 107.429 21.4341C107.14 21.3205 106.83 21.2681 106.52 21.28L88.36 20.86H28.07C35.35 21.32 42.88 21.92 50.07 22.22C47.36 22.15 44.49 22.06 42.75 21.97C35.6 21.59 28.39 21.32 21.25 21.24C23.03 21.79 22.68 21.55 19.64 21.55C18.6544 21.5534 17.6716 21.446 16.71 21.23C11.66 21.23 6.70996 21.32 1.70996 21.4C1.70996 21.96 2.54996 22.76 3.79996 23.4C9.89996 23.5867 15.9966 23.8033 22.09 24.05C24.39 24.12 26.93 24.29 29.32 24.43Z" fill="#BD6710"/>
<path d="M107.26 25.57C99.6399 25.21 92.0199 24.8767 84.3999 24.57C83.6899 24.57 95.6399 24.51 99.7399 24.5H107.67C107.885 24.4263 108.08 24.3027 108.238 24.1393C108.396 23.9759 108.513 23.7774 108.58 23.56C95.3399 23.5 82.0799 23.4 69.1399 22.66C60.1399 22.11 51.5599 21.4 42.8499 20.79H22.6199C21.6799 20.79 19.2299 20.51 20.2999 20.86L20.7299 21.01C32.5199 21.24 43.2199 22.34 54.1099 23.23C43.6699 22.6 29.8799 21.87 20.7899 21.79H17.1699C14.5899 21.79 11.8699 21.79 9.05992 21.79V22.79C13.2499 22.87 17.4399 22.99 21.6399 23.12C47.9699 24.24 72.8399 27.6 98.8299 29.29C101.83 29.48 104.83 29.63 107.83 29.77C107.743 29.6476 107.676 29.5127 107.63 29.37C107.62 29.3204 107.62 29.2695 107.63 29.22C104.06 28.99 100.7 28.75 98.0799 28.55C95.4599 28.35 66.4999 25.03 67.2099 25.07C80.8799 25.91 94.6499 26.76 108.41 27.38C109.05 27.2 109.41 27 109.52 26.76V26.64C109.44 26.33 108.79 25.96 107.31 25.55L107.26 25.57ZM9.05992 21V20.76L16.0599 20.83C16.0999 20.9038 16.1585 20.9659 16.2299 21.01H9.05992V21ZM9.05992 21.8L1.78992 21.73C2.01892 22.1304 2.33716 22.4726 2.71992 22.73L9.05992 22.84V21.84V21.8ZM9.05992 20.8V21H1.86992C2.33152 20.7199 2.87408 20.6036 3.40992 20.67L9.05992 20.8Z" fill="#DD9826"/>
<path d="M107.4 21.38C100.07 21.1 92.7299 20.9 91.8199 21.38L108.29 22.05C108.459 22.266 108.575 22.5192 108.627 22.7888C108.679 23.0583 108.666 23.3363 108.59 23.6C91.6599 22.92 74.8299 21.82 57.8999 20.85H71.8999L73.9999 21L73.2099 20.85H88.3599L106.52 21.27C106.817 21.2571 107.115 21.2943 107.4 21.38V21.38Z" fill="#D98D2B"/>
<path fill-rule="evenodd" clip-rule="evenodd" d="M101.32 53.14C103.32 52.07 107.32 51.22 107.38 52.69C107.38 53.8 108.11 55.17 107.64 56.23C109.01 57.23 107.74 57.73 107.21 57.66C105.29 57.66 102.63 57.6 99.63 57.66C98.4847 57.5797 97.3353 57.5797 96.19 57.66C93.63 58.04 84.51 57.52 84.58 57.48C85.27 57.13 89.69 55.28 89.22 55.29C88.75 55.3 88.58 54.86 101.32 53.14Z" fill="#A54A16"/>
<path fill-rule="evenodd" clip-rule="evenodd" d="M93.7 45.55C96.26 45.28 98.7 44.92 101.22 44.55C103.22 43.49 107.22 42.64 107.28 44.1C107.28 45.21 108 46.58 107.53 47.65H107.46C107.46 47.6 107.38 47.57 107.38 47.54C105.856 47.4125 104.347 47.1481 102.87 46.75L102.38 46.68H92.24C92.09 46.68 91.67 46.76 91.87 46.68C92.37 46.42 92.37 46.51 91.8 46.51C91.65 46.51 91.25 46.51 91.18 46.7H89.12C88.56 46.7 89.06 46.07 89.6 45.79H90.53C91.15 45.79 91.76 45.79 92.38 45.72C92.8 45.65 93.27 45.6 93.7 45.55Z" fill="#A54A16"/>
<path fill-rule="evenodd" clip-rule="evenodd" d="M93.88 40.77C96.47 40.5 98.98 40.14 101.49 39.77C103.61 38.7 107.67 37.85 107.59 39.31C107.53 40.43 108.09 41.8 107.52 42.86H107.45C107.45 42.86 107.38 42.77 107.38 42.74C105.879 42.6142 104.392 42.3497 102.94 41.95L102.46 41.88H92.32C92.17 41.88 91.75 41.96 91.95 41.88C92.48 41.62 92.47 41.71 91.95 41.71C91.79 41.71 91.39 41.71 91.31 41.9H89.24C88.69 41.9 89.24 41.26 89.81 40.99H90.75L92.6 40.91C93 40.87 93.44 40.82 93.88 40.77Z" fill="#A54A16"/>
<path fill-rule="evenodd" clip-rule="evenodd" d="M15.6999 49C14.0899 48.88 12.5199 48.73 10.9599 48.58V50.12C18.9599 50.78 35.8799 52.12 36.9099 51.94V51.87C36.5999 51.87 19.1399 49.16 18.8299 49.15C18.2233 49.15 17.6133 49.13 16.9999 49.09C16.5899 49.09 16.1299 49.09 15.7099 49H15.6999ZM10.9999 46.54C11.5199 46.1 11.7699 45.63 11.2499 45.19C11.1562 45.0992 11.0723 44.9986 10.9999 44.89V46.54ZM10.9999 52.88V51.76L15.2899 52.11L16.6599 52.19L18.5399 52.25H19.4899C20.1499 52.44 20.9399 52.89 20.3799 52.88H18.2999C18.0754 52.7861 17.8332 52.7417 17.5899 52.75C17.0199 52.75 16.9799 52.68 17.5899 52.87C17.8299 52.93 17.3799 52.87 17.2299 52.87H10.9999V52.88ZM10.9999 48.57L8.40995 48.32C7.93995 48.12 9.97995 47.39 10.9999 46.54V44.89C10.2199 43.77 8.35995 40.29 5.80995 38.79C5.07995 38.36 2.35995 38.45 1.85995 38.39C1.70995 38.39 2.10995 38.99 2.02995 39.15C1.60995 40.15 2.17995 43.55 2.02995 43.56C1.30995 43.56 2.54995 47.65 2.42995 48.01C2.15995 48.78 1.19995 49.74 1.42995 50.48H1.50995C1.50995 50.48 1.60995 50.42 1.61995 50.4C3.18619 50.31 4.74564 50.1263 6.28995 49.85H6.78995L10.9599 50.19V48.57H10.9999ZM10.9999 51.76V52.88H7.04995H6.59995C5.22895 53.1669 3.8384 53.3508 2.43995 53.43C2.43995 53.43 2.43995 53.48 2.43995 53.51H2.38995C1.43995 52.77 1.51995 51.81 1.06995 51.03V50.74C1.49995 50.16 5.13995 50.74 7.33995 51.35L10.9999 51.76Z" fill="#A54A16"/>
<path fill-rule="evenodd" clip-rule="evenodd" d="M25.2299 39.06C53.51 40.61 79.45 43.43 107.66 44.53C107.893 44.1276 107.998 43.6635 107.96 43.2C107.96 40.89 107.31 41.2 104.47 41.2C103.92 41.2 107.53 39.71 107.53 39.08C107.53 35.86 96.77 37.61 93.39 37.61C63.72 37.61 36.2 37.69 6.11995 37.78C5.26995 37.78 2.28995 37.58 1.86995 38.19C1.68995 38.44 1.74995 38.58 1.86995 38.67H6.23995C9.96995 38.67 13.7 38.67 17.42 38.74C19.91 38.77 22.6799 38.92 25.2299 39.06Z" fill="#A54A16"/>
<path fill-rule="evenodd" clip-rule="evenodd" d="M24.43 38.61C25.19 38.61 25.94 38.61 26.68 38.69C34.68 39.13 42.47 39.69 50.23 40.37C57.39 40.97 64.49 41.62 71.68 42.19C83.5467 43.1433 95.5933 43.81 107.82 44.19C107.921 43.8666 107.968 43.5287 107.96 43.19C107.968 42.8378 107.937 42.4858 107.87 42.14C87 40.72 62.77 38.48 68.82 38.84C81.49 39.63 94.47 40.76 107.57 41.51C107.13 41.06 106.21 41.16 104.47 41.16C103.92 41.16 107.53 39.67 107.53 39.04C107.53 35.82 96.77 37.57 93.39 37.57C63.72 37.57 36.2 37.65 6.12 37.74C5.37 37.74 2.95 37.59 2.12 37.97C7.21333 38.0433 12.29 38.1467 17.35 38.28C19.61 38.37 22.09 38.5 24.43 38.61Z" fill="#B35516"/>
<path d="M107.3 38.31C99.44 38.04 91.57 37.78 83.69 37.58C64.69 37.58 46.39 37.63 27.48 37.68C49.48 38.85 70.35 41.59 92.37 42.81C97.51 43.09 102.73 43.24 107.95 43.36C107.955 43.3068 107.955 43.2532 107.95 43.2C107.95 43.1 107.95 43.01 107.95 42.91C102.16 42.59 95.95 42.24 91.78 41.91C89.12 41.73 61.28 38.43 61.98 38.46C76.47 39.2 91.05 39.95 105.71 40.34C106.57 39.88 107.53 39.34 107.53 39C107.525 38.752 107.445 38.5113 107.3 38.31V38.31Z" fill="#DE9829"/>
<path fill-rule="evenodd" clip-rule="evenodd" d="M29.58 49.29C56.51 51.46 81.66 54.67 108.22 56.61C107.72 55.3 104.85 53.4 102.22 53.4C102.22 53.28 107.09 52.78 107.39 52.59C107.69 52.4 107.92 49.29 107.92 49.08C107.92 46.58 107.64 45.57 104.12 45.57C104.74 43.63 107.92 46.65 107.92 43.2C107.92 40.89 107.27 41.2 104.43 41.2C104.13 41.2 105.06 40.76 105.98 40.26C88.9795 41.1424 71.9382 40.8383 54.98 39.35C48.12 38.69 41.11 38.15 34.08 37.7L6.08 37.78C5.23 37.78 2.25 37.58 1.83 38.19C1.54 38.6 1.83 38.69 2.03 38.84C2.65 39.36 5.16 38.7 5.03 39.16C2.68 39.77 1.17 39.37 1.91 40.21C2.37 40.72 1.64 43.79 1.65 44.3C1.65 45.3 2.56 44.5 6.09 45.45C4.48 45.45 2.61 45.19 1.92 45.63C1.41 45.96 2.26 47.04 2.36 47.48C2.46 47.92 2.11 47.9 4.03 47.9C4.70361 47.9823 5.37153 48.1059 6.03 48.27L10.27 48.38C14.03 48.46 17.7967 48.5867 21.57 48.76C24.14 48.86 27 49.08 29.58 49.29Z" fill="#A54A16"/>
<path fill-rule="evenodd" clip-rule="evenodd" d="M28.6699 48.83C29.4299 48.83 30.1999 48.91 30.9499 48.97C39.0899 49.62 47.1299 50.42 55.1099 51.29C62.4699 52.08 69.7899 52.92 77.1699 53.69C87.3899 54.7633 97.6933 55.64 108.08 56.32C107.103 55.06 105.746 54.1483 104.21 53.72C85.6699 51.87 68.2099 49.82 73.4899 50.27C83.3899 51.13 93.4899 52.2 103.72 53.16C105.18 52.96 107.24 52.71 107.43 52.59C107.82 52.35 107.96 49.29 107.96 49.08C108.059 48.2066 107.899 47.3234 107.5 46.54C102.8 46.3 98.1799 45.99 93.7599 45.61C93.4599 45.61 99.2499 45.83 106.99 46.07C106.106 45.6618 105.131 45.4895 104.16 45.57C104.78 43.63 107.96 46.65 107.96 43.2C107.977 42.9536 107.977 42.7064 107.96 42.46C95.8399 42.59 82.9599 42.15 70.4599 41.78C82.3399 41.78 95.6399 42.3 107.91 42.11C107.65 40.99 106.79 41.11 104.51 41.11C104.25 41.11 104.91 40.79 105.68 40.37C101.58 40.54 97.4299 40.66 93.2699 40.73C84.9099 40.85 76.3699 40.73 67.8099 40.44C62.9999 40.3 58.0999 40 53.3799 39.59C48.2199 39.11 42.9899 38.72 37.7699 38.35C34.3599 38.11 30.9399 37.88 27.5199 37.68L6.11994 37.74C5.26994 37.74 2.28994 37.54 1.86994 38.15C1.57994 38.56 1.86994 38.65 2.06994 38.8C2.68994 39.32 5.19994 38.66 5.06994 39.12C2.71994 39.73 1.20994 39.33 1.94994 40.17C2.28994 40.54 1.94994 42.28 1.79994 43.39C7.72994 43.55 13.6799 43.76 19.6099 44.01C29.1699 44.49 39.6099 45.69 49.4599 46.22C46.7499 46.12 43.8799 46 42.1399 45.89C34.7399 45.4 27.2899 45.05 19.9099 44.89C14.6399 44.89 9.44994 44.89 4.27994 44.97C4.90481 45.0575 5.52293 45.1878 6.12994 45.36C4.51994 45.36 2.64994 45.1 1.95994 45.54C1.45994 45.87 2.28994 46.94 2.39994 47.38C8.7466 47.62 15.0966 47.91 21.4499 48.25C23.7499 48.45 26.2799 48.65 28.6699 48.83Z" fill="#C37025"/>
<path d="M107.9 43.89C81.36 43.89 54.11 40.78 26.74 40.34C23.94 40.2867 21.1433 40.25 18.35 40.23C12.89 40.23 7.44332 40.25 2.00998 40.29C1.9949 40.2457 1.9711 40.2049 1.93998 40.17C1.89202 40.117 1.84853 40.0602 1.80998 40L14.43 39.49L5.05998 39.06C4.99998 38.88 4.31998 39 3.60998 39L2.35998 38.95C2.25708 38.9175 2.1594 38.8704 2.06998 38.81C1.89998 38.66 1.57998 38.57 1.86998 38.16C2.28998 37.55 5.26998 37.75 6.11998 37.75H9.26998C11.88 37.86 14.48 37.99 17.08 38.12C22.37 38.4 27.64 38.73 32.92 39.06C57.66 40.63 81.27 41.67 104.42 41.16C106.7 41.16 107.57 40.99 107.82 42.16C95.55 42.35 82.25 41.81 70.37 41.83C82.66 42.19 95.51 42.83 107.9 42.91C107.9 43.02 107.9 43.13 107.9 43.25C107.92 43.4629 107.92 43.6771 107.9 43.89V43.89Z" fill="#D68821"/>
<path d="M107.86 50.53C99.86 50.05 91.8267 49.6 83.76 49.18C83.04 49.18 94.99 49.18 99.09 49.18L107.95 49.23C107.95 49.17 107.95 49.12 107.95 49.1C107.95 48.74 107.95 48.42 107.95 48.1C94.7 48 81.44 47.81 68.5 46.89C51.84 45.61 36.41 43.67 19.3 43.12C13.7667 42.9933 8.27 42.9167 2.81 42.89H1.87C1.78137 43.3395 1.71793 43.7935 1.68 44.25C1.66304 44.3926 1.70252 44.5362 1.79 44.65C5.57 44.65 9.36 44.65 13.16 44.65C15.4 44.65 17.66 44.65 19.92 44.72C31.77 45.04 42.53 46.39 53.47 47.5C43 46.72 29.24 45.8 20.14 45.68H16.53C12.06 45.68 7.17 45.6 2.11 45.52L2 45.59C1.7 45.78 1.87 46.24 2.09 46.67C8.39 46.7967 14.7233 46.9967 21.09 47.27C47.42 48.69 72.29 52.77 98.28 54.88C101.327 55.12 104.39 55.3234 107.47 55.49C107.184 55.2345 106.88 55.0005 106.56 54.79C103.17 54.51 99.98 54.23 97.48 54C94.75 53.74 65.89 49.69 66.61 49.74C80.16 50.74 93.81 51.83 107.45 52.61H107.52C107.788 51.951 107.904 51.2401 107.86 50.53Z" fill="#DF9C25"/>
<path d="M43.69 41.19C50.11 41.3967 56.5267 41.6867 62.94 42.06C76.06 42.8 92.16 43.6 107.94 43.86C107.55 46.12 105.02 43.99 104.28 45.35C97.86 45.06 92.01 44.9 91.21 45.35L107.21 46.18C107.463 46.4187 107.661 46.7096 107.791 47.0325C107.92 47.3554 107.978 47.7026 107.96 48.05C86.52 46.95 65.25 45.05 43.72 43.69V42.79C53.72 43.25 63.64 43.98 73.42 44.79C66.74 43.19 52.6 42.48 43.72 42.24L43.69 41.19ZM2.08999 41C7.45999 40.91 12.85 40.83 18.23 40.77C26.64 40.77 35.15 40.89 43.69 41.18V42.3L41.37 42.25C33.87 42.11 26.28 41.83 18.93 41.99C17.2794 41.9557 15.6292 42.0729 14 42.34C15.61 42.34 17.23 42.28 18.86 42.25C27.05 42.25 35.36 42.41 43.69 42.8V43.7C35.53 43.18 27.34 42.7 19.09 42.46C13.3567 42.3134 7.65666 42.2134 1.98999 42.16C1.99999 41.76 2.07999 41.35 2.08999 41Z" fill="#E1A02D"/>
<path fill-rule="evenodd" clip-rule="evenodd" d="M80.68 53.35C79.92 53.35 79.15 53.27 78.4 53.21C70.27 52.59 62.22 51.81 54.24 50.98C46.88 50.21 39.56 49.39 32.18 48.65C22.14 47.6433 12.0233 46.8133 1.82996 46.16C1.94996 46.6 2.32996 47.16 2.38996 47.44C2.50996 47.99 2.13996 47.86 4.05996 47.86C4.61996 47.86 9.22996 48.86 8.67996 49.06C25.82 50.75 40.81 52.47 35.86 52.06C25.78 51.22 15.46 50.16 5.07996 49.23C0.729957 49.62 -2.42004 50.77 4.84996 52.59C7.09996 53.15 3.84996 52.67 2.31996 53.24C1.87061 53.4933 1.53651 53.9104 1.38743 54.4042C1.23835 54.898 1.28584 55.4303 1.51996 55.89C6.32996 56.12 11.07 56.42 15.59 56.79C15.89 56.79 9.81996 56.58 1.79996 56.36C1.99865 56.6146 2.25391 56.8195 2.54551 56.9583C2.83711 57.0972 3.15704 57.1662 3.47996 57.16L21.63 57.65H81.92C74.65 57.11 67.11 56.39 59.92 56.03C62.63 56.12 65.5 56.22 67.24 56.33C74.4 56.78 81.6 57.1 88.75 57.2C86.96 56.55 87.31 56.83 90.35 56.83C91.3426 56.8234 92.3316 56.9512 93.29 57.21C98.29 57.21 103.29 57.11 108.29 57.01C108.29 56.34 107.45 55.39 106.21 54.63C100.11 54.41 94.01 54.15 87.91 53.85C85.61 53.71 83.07 53.51 80.68 53.35Z" fill="#BD6710"/>
<path d="M100.94 56.49L108.21 56.58C107.985 56.1267 107.668 55.725 107.28 55.4C105.17 55.4 103.05 55.32 100.94 55.27V56.49V56.49ZM100.94 57.74V57.44C103.34 57.44 105.733 57.44 108.12 57.44C107.904 57.6085 107.656 57.7309 107.391 57.7997C107.127 57.8685 106.85 57.8822 106.58 57.84L100.94 57.74ZM2.73998 52C10.3533 52.42 17.97 52.8166 25.59 53.19C26.31 53.19 14.36 53.25 10.26 53.26C9.25998 53.26 6.30998 53.26 2.31998 53.26C2.08957 53.3572 1.88631 53.5091 1.72775 53.7025C1.5692 53.8959 1.46014 54.125 1.40998 54.37C14.65 54.45 27.9 54.57 40.85 55.44C49.85 56.1 58.43 56.95 67.13 57.67H87.38C88.31 57.67 90.76 58.01 89.7 57.59L89.26 57.41C77.48 57.13 66.77 55.83 55.88 54.76C66.32 55.52 80.11 56.39 89.21 56.48H92.82C95.4 56.48 98.13 56.48 100.94 56.48V55.27C96.7533 55.17 92.5566 55.0366 88.35 54.87C62 53.55 37.15 49.55 11.16 47.54C8.15998 47.31 5.15998 47.13 2.15998 46.96C2.2466 47.1122 2.31699 47.273 2.36998 47.44V47.61C5.92998 47.9 9.29998 48.18 11.91 48.41C14.52 48.64 43.5 52.61 42.78 52.56C29.11 51.56 15.35 50.56 1.58998 49.81C0.94998 50.02 0.58998 50.26 0.47998 50.54V50.69C0.55998 51.07 1.21998 51.5 2.68998 51.99L2.73998 52ZM100.94 57.45V57.75L93.94 57.66C93.9017 57.5769 93.8432 57.5047 93.77 57.45H100.96H100.94Z" fill="#DF9C22"/>
<path d="M2.6 57C9.93 57.33 17.26 57.57 18.17 57L1.7 56.23C1.52818 55.9558 1.41309 55.6499 1.36157 55.3304C1.31004 55.0109 1.32311 54.6843 1.4 54.37C18.33 55.19 35.16 56.5 52.1 57.65H38.1L36 57.47L36.8 57.65H21.63L3.48 57.16C3.17952 57.1591 2.88156 57.105 2.6 57V57Z" fill="#D98D2B"/>
<path fill-rule="evenodd" clip-rule="evenodd" d="M101.32 16.5C103.32 15.43 107.32 14.59 107.38 16.05C107.38 17.16 108.11 18.53 107.64 19.59C109.01 20.59 107.74 21.09 107.21 21.03C105.29 21.03 102.63 20.96 99.63 21.03C98.4847 20.9497 97.3353 20.9497 96.19 21.03C93.63 21.41 84.51 20.89 84.58 20.85C85.27 20.5 89.69 18.65 89.22 18.66C88.75 18.67 88.58 18.22 101.32 16.5Z" fill="#A54A16"/>
<path fill-rule="evenodd" clip-rule="evenodd" d="M93.7 8.90998C96.26 8.63998 98.7 8.27998 101.22 7.90998C103.22 6.83998 107.22 5.98998 107.28 7.44998C107.28 8.56998 108 9.92998 107.53 11H107.46C107.46 10.95 107.38 10.92 107.38 10.89C105.856 10.7624 104.347 10.498 102.87 10.1L102.38 10.03H92.24C92.09 10.03 91.67 10.11 91.87 10.03C92.37 9.76998 92.37 9.85998 91.8 9.85998C91.65 9.85998 91.25 9.85998 91.18 10.05H89.12C88.56 10.05 89.06 9.41998 89.6 9.14998H90.53L92.38 8.99998C92.8 8.99998 93.27 8.99998 93.7 8.90998Z" fill="#A54A16"/>
<path fill-rule="evenodd" clip-rule="evenodd" d="M93.88 4.12998C96.47 3.85998 98.98 3.49998 101.49 3.12998C103.61 2.05998 107.67 1.20998 107.59 2.67998C107.53 3.78998 108.09 5.15998 107.52 6.21998H107.45C107.45 6.21998 107.38 6.12998 107.38 6.09998C105.879 5.9741 104.392 5.70964 102.94 5.30998L102.46 5.23998H92.32C92.17 5.23998 91.75 5.31998 91.95 5.23998C92.48 4.97998 92.47 5.06998 91.95 5.06998C91.79 5.06998 91.39 5.06998 91.31 5.25998H89.24C88.69 5.25998 89.24 4.61998 89.81 4.34998H90.75C91.36 4.34998 91.98 4.34998 92.6 4.26998C93 4.22998 93.44 4.17998 93.88 4.12998Z" fill="#A54A16"/>
<path fill-rule="evenodd" clip-rule="evenodd" d="M15.7 12.36C14.09 12.23 12.52 12.09 10.96 11.93V13.47C18.96 14.13 35.88 15.47 36.91 15.29V15.23C36.6 15.23 19.14 12.52 18.83 12.51C18.2233 12.51 17.6133 12.49 17 12.45L15.71 12.37L15.7 12.36ZM11 9.9C11.52 9.46 11.77 8.99 11.25 8.55C11.1562 8.4592 11.0724 8.35863 11 8.25V9.9ZM11 16.24V15.12L15.29 15.47L16.66 15.56H18.54H19.49C20.15 15.75 20.94 16.2 20.38 16.2H18.3C18.0755 16.106 17.8333 16.0617 17.59 16.07C17.02 16.07 16.98 16.01 17.59 16.19C17.83 16.25 17.38 16.19 17.23 16.19H11V16.24ZM11 11.93L8.41 11.68C7.9 11.49 9.94 10.75 11 9.9V8.25C10.22 7.13 8.36 3.65 5.81 2.15C5.08 1.72 2.36 1.81 1.86 1.75C1.71 1.75 2.11 2.35 2.03 2.52C1.61 3.52 2.18 6.91 2.03 6.92C1.31 6.92 2.55 11.02 2.43 11.37C2.16 12.14 1.2 13.1 1.43 13.84H1.51C1.51 13.84 1.61 13.78 1.62 13.76C3.18624 13.6699 4.74569 13.4863 6.29 13.21H6.79L10.96 13.55V11.93H11ZM11 15.12V16.24H7.05L6.6 16.29C5.229 16.5769 3.83845 16.7608 2.44 16.84C2.44 16.84 2.44 16.89 2.44 16.92H2.39C1.92 16.55 2.78 16.59 2.62 16.16C2.46 15.73 1.27 14.86 1 14.48V14.18C1.43 13.6 5.07 14.18 7.27 14.79L11 15.12Z" fill="#A54A16"/>
<path fill-rule="evenodd" clip-rule="evenodd" d="M25.2299 2.41997C53.51 3.99997 79.45 6.78997 107.66 7.88997C107.892 7.49072 107.997 7.03024 107.96 6.56997C107.96 4.24997 107.31 4.56997 104.47 4.56997C103.92 4.56997 107.53 3.06997 107.53 2.43997C107.53 -0.82003 96.77 0.93997 93.39 0.93997C63.72 0.93997 36.2 0.99997 6.11995 1.09997C5.26995 1.09997 2.28995 0.909969 1.86995 1.50997C1.68995 1.76997 1.74995 1.89997 1.86995 1.98997C3.30995 1.99997 4.76995 1.99997 6.23995 1.99997C9.99995 1.99997 13.7 1.99997 17.42 2.05997C19.91 2.12997 22.6799 2.27997 25.2299 2.41997Z" fill="#A54A16"/>
<path fill-rule="evenodd" clip-rule="evenodd" d="M24.43 2C25.19 2 25.94 2.03 26.68 2.09C34.68 2.52 42.47 3.09 50.23 3.77C57.39 4.33 64.49 5 71.68 5.56C83.5467 6.50667 95.5933 7.17334 107.82 7.56C107.923 7.23697 107.97 6.89885 107.96 6.56C107.968 6.20447 107.938 5.84913 107.87 5.5C87 4.08 62.77 1.84 68.82 2.2C81.49 3 94.47 4.12 107.57 4.87C107.13 4.42 106.21 4.53 104.47 4.53C103.92 4.53 107.53 3.03 107.53 2.4C107.53 -0.819998 96.77 0.940002 93.39 0.940002C63.72 0.940002 36.2 1 6.12 1.1C5.37 1.1 2.95 0.950002 2.12 1.33C7.21333 1.39667 12.29 1.5 17.35 1.64C19.61 1.73 22.09 1.87 24.43 2Z" fill="#B35516"/>
<path d="M107.3 1.67C99.44 1.39667 91.57 1.15334 83.69 0.940002C64.69 0.940002 46.39 0.990002 27.48 1.04C49.51 2.21 70.35 5 92.37 6.17C97.51 6.45 102.73 6.6 107.95 6.72C107.955 6.67012 107.955 6.61988 107.95 6.57C107.95 6.46 107.95 6.37 107.95 6.28C102.16 5.96 95.95 5.6 91.78 5.28C89.12 5.13 61.28 1.83 62 1.86C76.49 2.6 91.07 3.35 105.73 3.75C106.59 3.28 107.55 2.75 107.55 2.4C107.548 2.13603 107.46 1.87988 107.3 1.67V1.67Z" fill="#E19B38"/>
<path fill-rule="evenodd" clip-rule="evenodd" d="M29.58 12.65C56.51 14.82 81.66 18 108.22 20C107.72 18.69 104.85 16.8 102.22 16.8C102.22 16.67 107.09 16.17 107.39 15.98C107.69 15.79 107.92 12.68 107.92 12.47C107.92 9.97 107.64 8.96 104.12 8.96C104.78 7 108 10 108 6.57C108 4.25 107.35 4.57 104.51 4.57C104.21 4.57 105.14 4.12 106.06 3.57C89.0595 4.45241 72.0181 4.14834 55.06 2.66C48.2 2 41.19 1.48 34.16 1L6.15996 1.08C5.30996 1.08 2.32996 0.89 1.90996 1.49C1.61996 1.9 1.90996 1.99 2.10996 2.14C2.72996 2.66 5.23996 2 5.10996 2.47C2.75996 3.07 1.24996 2.67 1.98996 3.47C2.44996 3.98 1.71996 7.05 1.72996 7.56C1.72996 8.56 2.63996 7.76 6.16996 8.71C4.50996 8.77 2.63996 8.51 1.99996 9C1.48996 9.33 2.33996 10.42 2.43996 10.85C2.53996 11.28 2.18996 11.27 4.10996 11.27C4.78356 11.3523 5.45148 11.4759 6.10996 11.64L10.35 11.75C14.11 11.83 17.8766 11.9567 21.65 12.13C24.14 12.22 27 12.44 29.58 12.65Z" fill="#A54A16"/>
<path fill-rule="evenodd" clip-rule="evenodd" d="M28.6699 12.19C29.4299 12.19 30.1999 12.27 30.9499 12.33C39.0899 12.98 47.1299 13.79 55.1099 14.65C62.4699 15.44 69.7899 16.28 77.1699 17.06C87.3899 18.12 97.6933 18.9966 108.08 19.69C107.107 18.4237 105.749 17.5077 104.21 17.08C85.6699 15.23 68.2099 13.18 73.4899 13.63C83.3899 14.49 93.4899 15.57 103.72 16.52C105.18 16.32 107.24 16.07 107.43 15.95C107.82 15.71 107.96 12.65 107.96 12.44C108.059 11.5665 107.899 10.6834 107.5 9.89998C102.8 9.65998 98.1799 9.34998 93.7599 8.96998C93.4599 8.96998 99.2499 9.18998 106.99 9.42998C106.106 9.02174 105.131 8.84948 104.16 8.92998C104.78 6.99998 108 9.99998 108 6.56998C108.017 6.32027 108.017 6.06968 108 5.81998C95.7999 5.99998 82.9999 5.50998 70.4199 5.13998C82.2999 5.13998 95.5999 5.65998 107.87 5.47998C107.61 4.34998 106.75 4.47998 104.47 4.47998C104.21 4.47998 104.87 4.14998 105.64 3.72998C101.54 3.89998 97.3899 4.01998 93.2299 4.08998C84.8699 4.20998 76.3299 4.13998 67.7699 3.79998C62.9999 3.65998 58.0999 3.39998 53.3799 2.99998C48.2199 2.46998 42.9999 2.07998 37.7699 1.70998C34.3599 1.46998 30.9399 1.23998 27.5199 1.03998L6.11994 1.09998C5.26994 1.09998 2.28994 0.909978 1.86994 1.50998C1.57994 1.91998 1.86994 2.00998 2.06994 2.15998C2.68994 2.67998 5.19994 2.01998 5.06994 2.48998C2.71994 3.08998 1.20994 2.68998 1.94994 3.48998C2.28994 3.85998 1.94994 5.59998 1.79994 6.70998C7.72994 6.86998 13.6799 7.07998 19.6099 7.32998C29.1699 7.80998 39.6099 9.01998 49.4599 9.53998C46.7499 9.43998 43.8799 9.31998 42.1399 9.20998C34.7399 8.71998 27.2899 8.36998 19.9099 8.25998C14.6399 8.25998 9.44994 8.25998 4.27994 8.33998C4.90481 8.42744 5.52293 8.55775 6.12994 8.72998C4.50994 8.76998 2.63994 8.50998 1.99994 8.99998C1.49994 9.32998 2.32994 10.4 2.43994 10.84C8.7866 11.08 15.1366 11.37 21.4899 11.71C23.7499 11.81 26.2799 12 28.6699 12.19Z" fill="#C37025"/>
<path d="M107.9 7.24998C81.36 7.24998 54.11 4.13998 26.74 3.69998C23.94 3.64665 21.1433 3.60998 18.35 3.58998C12.89 3.58998 7.44332 3.60998 2.00998 3.64998C1.9949 3.6057 1.9711 3.5649 1.93998 3.52998C1.89202 3.47701 1.84853 3.42015 1.80998 3.35998C9.54998 3.04998 14.62 2.85998 14.43 2.84998L5.05998 2.41998C4.99998 2.23998 4.31998 2.31998 3.60998 2.35998L2.35998 2.29998C2.25545 2.27176 2.1571 2.22428 2.06998 2.15998C1.89998 2.00998 1.57998 1.91998 1.86998 1.50998C2.28998 0.909978 5.26998 1.09998 6.11998 1.09998H9.26998C11.88 1.20998 14.48 1.33998 17.08 1.46998C22.37 1.74998 27.64 2.07998 32.92 2.40998C57.66 3.99998 81.27 4.99998 104.42 4.49998C106.7 4.49998 107.57 4.31998 107.82 5.49998C95.55 5.67998 82.25 5.13998 70.37 5.15998C82.66 5.51998 95.51 6.15998 107.9 6.23998C107.9 6.34998 107.9 6.45998 107.9 6.58998C107.921 6.80947 107.921 7.03049 107.9 7.24998Z" fill="#D68821"/>
<path d="M107.86 13.89C99.86 13.41 91.8267 12.9633 83.76 12.55C83.04 12.55 94.99 12.55 99.09 12.55H107.95C107.95 12.49 107.95 12.44 107.95 12.42C107.95 12.06 107.95 11.74 107.95 11.42C94.72 11.3 81.46 11.13 68.52 10.21C51.84 9.00001 36.41 7.00001 19.3 6.48001C13.7667 6.34668 8.27 6.27334 2.81 6.26001H1.87C1.78137 6.70945 1.71793 7.16349 1.68 7.62001C1.66304 7.76259 1.70252 7.90615 1.79 8.02001C5.57 8.00668 9.36 8.00001 13.16 8.00001C15.4 8.00001 17.66 8.00001 19.92 8.07001C31.77 8.39001 42.53 9.74001 53.47 10.85C43 10.08 29.24 9.17001 20.14 9.00001H16.53C12.06 9.00001 7.17 9.00001 2.11 8.87001L2 9.00001C1.7 9.20001 1.87 9.65001 2.09 10.08C8.39 10.2133 14.7233 10.4133 21.09 10.68C47.42 12.1 72.29 16.18 98.28 18.29C101.28 18.53 104.39 18.73 107.47 18.91C107.185 18.6511 106.88 18.4138 106.56 18.2C103.17 17.92 99.98 17.65 97.48 17.41C94.75 17.15 65.89 13.1 66.61 13.15C80.16 14.15 93.81 15.25 107.45 16.03H107.52C107.797 15.3525 107.913 14.62 107.86 13.89V13.89Z" fill="#E1A02D"/>
<path d="M43.69 4.55002C50.11 4.76336 56.5267 5.05336 62.94 5.42002C76.06 6.16002 92.16 6.96002 107.94 7.22002C107.55 9.48002 105.02 7.35002 104.28 8.71002C97.86 8.42002 92.01 8.27002 91.21 8.71002L107.21 9.54002C107.464 9.78026 107.662 10.0728 107.792 10.3975C107.921 10.7221 107.979 11.071 107.96 11.42C86.52 10.31 65.25 8.42002 43.72 7.05002V6.15002C53.72 6.61002 63.64 7.34002 73.42 8.20002C66.74 6.60002 52.6 5.89002 43.72 5.65002L43.69 4.55002ZM2.09 4.37002C7.46 4.28002 12.85 4.20002 18.23 4.15002C26.64 4.15002 35.15 4.26002 43.69 4.55002V5.67002H41.37C33.87 5.53002 26.28 5.25002 18.93 5.41002C17.281 5.35919 15.6307 5.45961 14 5.71002C15.61 5.71002 17.23 5.65002 18.86 5.62002C27.05 5.62002 35.36 5.78002 43.69 6.17002V7.07002C35.53 6.55002 27.34 6.07002 19.09 5.83002C13.3633 5.68336 7.66667 5.58336 2 5.53002C2 5.12002 2.08 4.71002 2.09 4.37002Z" fill="#DF9C30"/>
<path fill-rule="evenodd" clip-rule="evenodd" d="M80.68 16.71C79.92 16.71 79.15 16.63 78.4 16.57C70.27 15.95 62.22 15.17 54.24 14.34C46.88 13.57 39.56 12.75 32.18 12.01C22.14 11.0034 12.0233 10.1734 1.82996 9.52002C1.94996 9.96002 2.32996 10.52 2.38996 10.8C2.50996 11.35 0.899957 12.68 2.75996 12.34C5.28996 11.87 9.22996 12.26 8.67996 12.42C25.82 14.11 40.81 15.83 35.86 15.42C25.78 14.58 15.46 13.52 5.07996 12.59C0.729957 13 -2.42004 14.14 4.84996 16C7.09996 16.56 3.84996 16.08 2.31996 16.65C1.87061 16.9033 1.53651 17.3204 1.38743 17.8143C1.23835 18.3081 1.28584 18.8404 1.51996 19.3C6.32996 19.53 11.07 19.83 15.59 20.2C15.89 20.2 9.81996 19.99 1.79996 19.78C2.00071 20.0317 2.25662 20.2338 2.54792 20.3707C2.83922 20.5077 3.15811 20.5759 3.47996 20.57L21.63 21H81.92C74.65 20.46 67.11 19.74 59.92 19.38C62.63 19.47 65.5 19.58 67.24 19.68C74.4 20.13 81.6 20.45 88.75 20.55C86.96 19.9 87.31 20.18 90.35 20.18C91.3426 20.1734 92.3316 20.3013 93.29 20.56C98.29 20.56 103.29 20.46 108.29 20.36C108.29 19.69 107.45 18.74 106.21 17.98C100.11 17.76 94.01 17.5 87.91 17.2C85.61 17.07 83.07 16.87 80.68 16.71Z" fill="#BD6710"/>
<path d="M100.94 19.86L108.21 19.94C107.987 19.4883 107.67 19.0894 107.28 18.77C105.17 18.77 103.05 18.69 100.94 18.63V19.86V19.86ZM100.94 21.1V20.81H108.12C107.904 20.9785 107.656 21.1009 107.391 21.1698C107.127 21.2386 106.85 21.2523 106.58 21.21L100.94 21.1ZM2.73991 15.35C10.3532 15.77 17.9699 16.1667 25.5899 16.54C26.3099 16.54 14.3599 16.6 10.2599 16.62H2.31991C2.09044 16.7187 1.88802 16.871 1.72966 17.0641C1.57131 17.2573 1.46165 17.4857 1.40991 17.73C14.6499 17.81 27.8999 17.93 40.8499 18.8C49.8499 19.46 58.4299 20.31 67.1299 21.03H87.3799C88.3099 21.03 90.7599 21.37 89.6999 20.95L89.2599 20.78C77.4799 20.49 66.7699 19.19 55.8799 18.12C66.3199 18.88 80.1099 19.75 89.2099 19.85H92.8199C95.3999 19.85 98.1299 19.85 100.94 19.85V18.63C96.7532 18.53 92.5566 18.4 88.3499 18.24C61.9999 16.91 37.1499 12.91 11.1599 10.9C8.15991 10.67 5.15991 10.49 2.15991 10.33C2.24798 10.478 2.31845 10.6357 2.36991 10.8C2.36991 10.87 2.36991 10.92 2.36991 10.97C5.92991 11.26 9.29991 11.54 11.9099 11.77C14.5199 12 43.5499 16 42.8299 15.92C29.1599 14.92 15.3999 13.92 1.63991 13.18C0.999907 13.38 0.639907 13.62 0.529907 13.9V14.06C0.609907 14.43 1.26991 14.86 2.73991 15.35V15.35ZM100.94 20.81V21.1L93.9399 21.01C93.9016 20.927 93.8432 20.8548 93.7699 20.8H100.96L100.94 20.81Z" fill="#E1A02D"/>
<path d="M2.59992 20.34C9.92992 20.67 17.2599 20.91 18.1699 20.34L1.69992 19.59C1.52785 19.3177 1.41257 19.0135 1.36102 18.6956C1.30946 18.3777 1.3227 18.0527 1.39992 17.74C18.3299 18.55 35.1599 19.86 52.0999 21.01H38.0999L35.9999 20.83L36.7999 21.01H21.6299L3.47992 20.52C3.17822 20.5127 2.88023 20.4518 2.59992 20.34V20.34Z" fill="#D98D2B"/>
<path d="M37.5282 19.7857L36.3454 18.5864L37.4789 6.47036L39.7379 6.64286L38.5714 18.7918L37.5282 19.7857ZM38.5714 18.7918L38.5139 19.7857H37.5282L38.5714 18.7918ZM32 18.8904L33.0925 17.765L37.4296 17.5679L37.5282 19.7857L33.1911 19.9829L32 18.8904ZM33.1911 20.0075L32 20.065V18.8904L33.1911 20.0075ZM33.0925 5.69821L34.2754 6.82357V18.8904H32V6.82357L33.0925 5.69821ZM32 6.82357V5.7475L33.0925 5.69821L32 6.82357ZM39.7379 6.64286L38.6536 7.69429L33.1911 7.94071L33.0925 5.69821L38.5714 5.44357L39.7379 6.64286ZM38.5714 5.44357L39.8611 5.38607L39.7379 6.64286L38.5714 5.44357ZM50.1371 11.2757L48.9707 10.1257L49.0693 6.34714L51.3364 6.40464L51.2214 10.175L50.1207 11.2757H50.1371ZM51.2214 10.175V11.2346H50.1536L51.2214 10.175ZM45.8904 10.175L46.9829 9.10714L50.0714 9.025L50.1454 11.2757L47.0814 11.3825L45.8904 10.175ZM45.8904 10.175L45.9643 9.16464H46.9664L45.8904 10.1504V10.175ZM46.2846 19.7857L45.1429 18.5864L45.9232 10.1504L48.1821 10.3557L47.4018 18.7918L46.2846 19.7857ZM47.3689 18.7671L47.2786 19.7857H46.2846L47.3689 18.7671ZM40.7975 18.8657L41.8571 17.765L46.1943 17.5679L46.2846 19.7857L41.9475 19.9829L40.7646 18.8657H40.7975ZM41.9804 19.9829L40.7975 20.0404V18.8904L41.9804 20.0075V19.9829ZM41.8982 9.30429L43.0893 10.4214V18.8657H40.7646V10.4214L41.8982 9.30429ZM41.8982 9.30429L43.0893 9.24679V10.4461L41.8571 9.32893L41.8982 9.30429ZM37.75 10.5611L38.8014 9.46857L41.8571 9.32893L41.9721 11.5714L38.9082 11.7193L37.75 10.5611ZM38.9082 11.7193L37.6843 11.7768L37.75 10.5611L38.9082 11.7193ZM38.9821 5.27107L40.1157 6.42107L39.9925 10.6268L37.75 10.5611L37.8732 6.36357L38.9821 5.27107ZM37.8486 6.36357V5.27107H38.9821L37.8486 6.36357ZM51.32 6.40464L50.1864 7.46429L38.9821 7.51357V5.27107H50.1864L51.32 6.42107V6.40464ZM50.1864 5.25464H51.3529V6.40464L50.1864 5.25464ZM61.5139 7.99L59.2468 7.85036V6.2075L61.5139 6.38V8.02286V7.99ZM60.2982 10.7007L60.1996 8.45821L59.1071 9.47679V7.83393L61.3743 7.97357V9.68214L60.2982 10.7007V10.7007ZM61.3743 9.68214L61.2839 10.6596L60.2982 10.7007L61.3743 9.68214ZM54.7536 9.68214L55.8214 8.65536L60.1832 8.45821L60.2818 10.7007L55.92 10.8979L54.7536 9.68214ZM54.7536 9.68214L54.8439 8.69643H55.8379L54.7536 9.68214V9.68214ZM55.8214 12.0232L54.655 10.7993L54.7536 9.68214L57.0125 9.87107L56.9139 10.9964L55.8214 12.0232ZM55.8214 12.0232H54.54L54.655 10.7993L55.8214 12.0232ZM60.0189 10.9882L58.8443 12.0232H55.8214V9.7725H58.8854L60.0189 10.9882V10.9882ZM58.8443 9.7725H60.0764L59.9779 10.9882L58.8443 9.7725ZM58.6554 14.775L57.4643 13.5675L57.6861 10.8075L59.9532 10.9882L59.7314 13.74L58.6554 14.775V14.775ZM59.7561 13.74L59.6739 14.7504H58.6554L59.7561 13.7154V13.74ZM54.4004 13.6579L55.5093 12.6229L58.5896 12.5325L58.6554 14.775L55.5668 14.8571L54.4004 13.6579ZM54.4004 13.6579L54.4825 12.6475H55.5093L54.4004 13.6825V13.6579ZM55.4354 16.1632L54.2936 14.9557L54.4004 13.6579L56.6757 13.8304L56.5689 15.1282L55.4354 16.1632ZM55.4354 16.1632H54.1786L54.2771 14.9557L55.4189 16.1632H55.4354ZM57.9818 16.1632H55.4354V13.9207H57.9818V16.1714V16.1632ZM60.9307 15.1036L59.7971 16.1714H57.9818V13.9125H59.7971L60.9307 15.1118V15.1036ZM59.7971 13.9043H61.0046L60.9307 15.1036L59.7971 13.9043V13.9043ZM60.7993 17.0586L58.5321 16.9107V14.9721L60.7993 15.1118V17.0586V17.0586ZM59.5671 20.0404L59.5261 17.7896L58.4089 18.8575V16.9107L60.6761 17.0668V18.9643L59.5671 20.0321V20.0404ZM60.6761 18.9643L60.6268 20.0075H59.5671L60.6761 18.9643ZM49.5457 19.0546L50.6629 17.9621L59.5261 17.7814L59.5671 20.0321L50.7039 20.2046L49.5457 19.0546V19.0546ZM50.7039 20.2046H49.5211V19.03L50.6793 20.18L50.7039 20.2046ZM51.0161 5.13964L52.1496 6.29786L51.8129 19.1286L49.5457 19.0711L49.8743 6.24036L51.0161 5.13964ZM49.8743 6.24036V5.13964H50.9832L49.8743 6.24036ZM61.6289 6.35536L60.4954 7.39857H51.0161V5.13964H60.4954L61.6289 6.35536ZM60.4954 5.13964H61.7193L61.6289 6.35536L60.4954 5.13964ZM75.8314 20.3114L74.6568 19.1121L75.6096 6.05143L77.8768 6.2075L76.9321 19.2682L75.8314 20.3114ZM76.9321 19.2682L76.8582 20.2704L75.8314 20.3114L76.9321 19.2682ZM69.9664 19.3668L71.0671 18.2414L75.7493 18.0689L75.8314 20.3114L71.1411 20.4921L69.9664 19.3668V19.3668ZM71.1411 20.4921L69.9582 20.5332V19.3668L71.1329 20.4921H71.1411ZM70.0814 12.0807L72.25 12.4832V19.375H69.9664L70.0075 12.4832L70.0814 12.0807ZM70.0814 12.0807L72.3157 6.22393V12.4832L70.1143 12.0807H70.0814ZM69.03 19.1614L67.9621 17.6336L70.0814 12.0807L72.2089 12.9021L70.0896 18.455L69.03 19.1861V19.1614ZM70.0896 18.4304L69.8104 19.1614H68.9889L70.0486 18.4304H70.0896ZM66.1386 18.3729L67.2146 16.9025H69.03V19.1614H67.2146L66.1386 18.34V18.3729ZM67.2146 19.1943H66.3932L66.1386 18.3729L67.2146 19.1943ZM64.4546 13.0664L66.6725 12.7214L68.3154 17.65L66.155 18.3318L64.5121 13.4032L64.4546 13.0664ZM64.4546 13.0664V6.035L66.6725 12.7214L64.4546 13.0664ZM65.5964 19.9582L64.4382 18.8329V13.0829H66.7136V18.8329L65.5964 19.9582ZM66.7054 18.8329V19.9254H65.5964L66.7054 18.8V18.8329ZM59.6904 18.9643L60.7993 17.8554L65.5471 17.7321L65.5964 19.9829L60.8486 20.1061L59.6904 18.9643ZM60.8486 20.1061H59.6657V18.9314L60.8239 20.0732L60.8486 20.1061ZM60.9882 5.53393L62.1629 6.64286L61.9575 18.9643H59.6904L59.9286 6.64286L60.9882 5.53393ZM59.9286 6.64286V5.575H61.0046L59.9286 6.64286ZM67.42 6.10893L66.3521 7.60393L61.0621 7.78464L60.9882 5.53393L66.2782 5.36143L67.3871 6.10893H67.42ZM66.2782 5.36143H67.0996L67.3789 6.18286L66.2782 5.36143ZM69.4571 12.8282L67.3214 12.7461L65.2432 6.85643L67.3871 6.10893L69.4818 11.9986L69.4571 12.8282ZM69.4571 12.8282L68.2907 15.4157L67.3214 12.7461L69.4407 12.8282H69.4571ZM71.2068 5L72.25 6.58536L69.4571 12.8282L67.3707 11.9164L70.1636 5.67357L71.2068 5ZM70.1636 5.67357L70.4675 5H71.2068L70.1636 5.67357ZM77.8768 6.2075L76.7432 7.25893H71.2068V5H76.7432L77.8768 6.2075ZM76.7432 5H78L77.9096 6.2075L76.7432 5Z" fill="#A14326"/>
<path d="M38.5715 6.56894L37.479 18.6932L33.1418 18.8904V6.82358L38.5715 6.56894ZM50.1536 6.38001L50.0715 10.1504L47.0076 10.2572L46.1861 18.6932L41.849 18.8904V10.4461L38.7851 10.5939L38.9822 6.38822L50.1536 6.38001ZM60.4626 6.26501C60.4626 6.82358 60.3804 7.38215 60.3476 7.90787C60.3147 8.43358 60.2654 9.00858 60.2161 9.55072L55.8543 9.74787L55.8215 10.8979H58.8854L58.6636 13.6579L55.5751 13.74L55.4765 15.0461H59.8383C59.7972 15.695 59.7479 16.3439 59.7068 16.9847C59.6658 17.6254 59.6247 18.2743 59.5836 18.9232L50.7204 19.1039L51.0572 6.26501H60.4626ZM76.7104 6.12537L75.7576 19.1861L71.0672 19.3668L71.1165 12.475L68.9972 18.0279H67.2147L65.5718 13.0993V18.8493L60.824 18.9643L61.0293 6.64287L66.3111 6.47037L68.414 12.3929L71.2068 6.14179L76.7104 6.12537Z" fill="white"/>
<g clip-path="url(#clip1)">
<path fill-rule="evenodd" clip-rule="evenodd" d="M19.41 52.89C18.06 53.72 17.12 53.5 15.71 53.55C14.5097 53.6115 13.3194 53.3044 12.2987 52.6698C11.278 52.0352 10.4759 51.1036 9.99999 50C9.99999 50 9.99999 50 9.99999 50C9.82255 49.7145 9.68779 49.4045 9.59999 49.08C9.35761 48.3805 9.27893 47.6347 9.36999 46.9C8.9619 46.5126 8.63502 46.0478 8.40839 45.5327C8.18177 45.0176 8.05993 44.4626 8.04999 43.9C8.00991 43.5296 8.02678 43.1553 8.09999 42.79C8.09999 42.44 8.17999 42.09 8.21999 41.74C8.28999 40.8 8.39999 39.89 8.49999 39C8.49999 38.75 8.54999 38.5 8.56999 38.25C8.63512 37.6255 8.66517 36.9979 8.65999 36.37C8.65999 34.54 8.65999 32.84 8.75999 30.99C8.90999 28.51 10.58 27.05 12.63 26.25C13 26.09 13.46 26 13.88 25.81C14.03 25.76 14.22 25.71 14.36 25.65C15.656 25.0874 17.0738 24.8638 18.48 25C19.41 25.07 21.48 25.49 23.48 25.53C26.15 25.58 28.84 25.27 29.48 25.45C30.206 25.6483 30.8857 25.9881 31.48 26.45C31.8012 26.6695 32.1351 26.8698 32.48 27.05C33.1773 27.4134 33.812 27.886 34.36 28.45C35.2802 29.4514 35.8092 30.7506 35.85 32.11C35.8809 32.6307 35.9477 33.1486 36.05 33.66C36.47 36.29 35.89 38.16 35.95 40.66C35.95 41.42 35.95 42.08 35.9 42.82C35.9598 43.1875 36.0399 43.5514 36.14 43.91C36.424 45.795 36.0384 47.7199 35.05 49.35C34.05 51.3 32.41 53.35 30.1 53.41C27.47 53.5 24.85 53.27 22.22 53.36C21.2622 53.3804 20.309 53.221 19.41 52.89Z" fill="#782910"/>
<path fill-rule="evenodd" clip-rule="evenodd" d="M10.81 49.37V49.43C11.2807 50.3087 11.9958 51.0322 12.869 51.5131C13.7421 51.994 14.7358 52.2118 15.73 52.14C16.99 52.14 17.88 52.29 19.03 51.66L19.33 51.49L19.67 51.6C20.4961 51.8697 21.361 52.0015 22.23 51.99C24.82 51.91 27.41 52.1 30 51.99C32 51.93 33.37 50.28 34.24 48.8C35.1068 47.5681 35.465 46.0494 35.24 44.56C35.06 44.08 33.73 44.56 33.03 44.43C32.495 44.2907 31.9782 44.0894 31.49 43.83C31.77 43.61 33.94 44.1 34.69 43.21C34.891 42.6783 35.0057 42.1179 35.03 41.55C35.03 39.55 35.54 37.77 35.14 35.55C35.0644 35.0867 35.0177 34.6191 35 34.15C34.9663 33.1084 34.5203 32.1228 33.76 31.41C33.2337 30.952 32.6401 30.5777 32 30.3C31.6518 30.1335 31.3174 29.9396 31 29.72C30.4672 29.3788 29.8781 29.135 29.26 29C27.8925 28.7376 26.4817 28.8131 25.15 29.22C24.4473 29.4038 23.726 29.5077 23 29.53H22.88H22.77H22.69L21.69 29.24C20.6414 28.9369 19.5667 28.7327 18.48 28.63C17.2223 28.515 15.9548 28.6824 14.77 29.12C14.5895 29.1825 14.4059 29.2359 14.22 29.28L13 29.59C11.27 30.2 9.83001 31.26 9.70001 33.11C9.63001 34.11 9.83001 35.79 9.82001 36.81C9.82001 37.35 11.01 37.24 11.01 37.81C11.01 38.38 9.60001 37.9 9.51001 39.54C9.51001 39.76 9.46001 39.98 9.44001 40.2C9.34001 41 9.23001 41.8 9.13001 42.6C8.70001 46.1 11.4 45.42 14.33 46C11.7 46.68 9.22001 46.54 10.81 49.37Z" fill="#7E3014"/>
<path fill-rule="evenodd" clip-rule="evenodd" d="M35.32 37.39C24.48 36.39 11.51 35.33 10.46 35.57V35.67C10.86 35.67 33.88 39.67 34.29 39.67H35.14C35.21 38.91 35.3 38.16 35.31 37.38L35.32 37.39ZM35.08 35.11C35.0337 34.802 35.007 34.4914 35 34.18H32.34C31.6 34.18 32.63 34.84 33.51 35.11H34.75H35.08Z" fill="#7F3113"/>
<path fill-rule="evenodd" clip-rule="evenodd" d="M20.12 39.43C16.7067 39.1433 13.3067 38.8266 9.92001 38.48C9.78836 38.6108 9.68425 38.7668 9.61384 38.9385C9.54342 39.1103 9.50812 39.2944 9.51001 39.48C9.51001 39.7 9.46001 39.92 9.44001 40.14C9.34001 40.94 9.23001 41.74 9.13001 42.54C8.70001 46.1 11.4 45.42 14.33 46C11.7 46.71 9.22001 46.57 10.81 49.4V49.46C11.2807 50.3386 11.9958 51.0622 12.869 51.5431C13.7421 52.024 14.7358 52.2418 15.73 52.17C16.99 52.17 17.88 52.32 19.03 51.69L19.33 51.52L19.67 51.63C20.4961 51.8997 21.361 52.0315 22.23 52.02C24.82 51.94 27.41 52.13 30 52.02C32 51.96 33.37 50.31 34.24 48.83C35.1068 47.5981 35.465 46.0793 35.24 44.59C35.06 44.11 33.73 44.59 33.03 44.46C32.495 44.3207 31.9782 44.1193 31.49 43.86C31.77 43.64 33.94 44.13 34.69 43.24C34.891 42.7083 35.0057 42.1479 35.03 41.58C35.0098 41.2103 35.0098 40.8397 35.03 40.47L30.56 40.27C27.29 40.06 23.55 39.73 20.12 39.43Z" fill="#7F3113"/>
<path fill-rule="evenodd" clip-rule="evenodd" d="M22.57 45.51C26.01 45.65 29.46 45.75 32.89 45.81H35.37C35.4122 45.3974 35.3783 44.9804 35.27 44.58C35.09 44.1 33.76 44.58 33.06 44.45C32.525 44.3107 32.0082 44.1094 31.52 43.85C31.8 43.63 33.97 44.12 34.72 43.23C34.921 42.6983 35.0357 42.1379 35.06 41.57V41.12L30.85 40.88C28.21 40.68 25.34 40.43 22.57 40.2V45.5V45.51ZM22.57 51.98V46.38C26.2 46.69 29.78 46.97 33.27 47.16L35.03 47.24C34.8274 47.7928 34.5729 48.3252 34.27 48.83C33.4 50.31 32 52 30 52C27.55 52.1 25.06 51.92 22.57 52V51.98ZM21.32 40.11C20.32 40.11 19.32 39.99 18.32 39.9C15.4 39.64 12.4867 39.3667 9.58001 39.08C9.54739 39.2179 9.52731 39.3585 9.52001 39.5C9.52001 39.72 9.47001 39.94 9.45001 40.16C9.35001 40.96 9.24001 41.76 9.14001 42.56C9.04362 42.946 9.03307 43.3484 9.10909 43.7389C9.18511 44.1294 9.34586 44.4984 9.58001 44.82C13.9067 45.1 18.24 45.33 22.58 45.51V40.21L21.33 40.11H21.32ZM22.57 46.38V52H22.26C21.391 52.0115 20.5261 51.8798 19.7 51.61L19.36 51.5L19.06 51.67C17.91 52.3 17.06 52.11 15.76 52.15C14.7658 52.2218 13.7721 52.0041 12.899 51.5231C12.0258 51.0422 11.3107 50.3187 10.84 49.44V49.38C9.25001 46.55 11.73 46.69 14.36 45.98C12.7 45.67 11.12 45.75 10.13 45.24C14.28 45.62 18.45 46 22.57 46.38Z" fill="#9B3D18"/>
<path fill-rule="evenodd" clip-rule="evenodd" d="M9.51001 39.55L16.69 40.37C22.7633 41.0367 28.86 41.66 34.98 42.24C34.98 42 35.03 41.76 35.06 41.58C35.0732 40.5104 35.1433 39.4422 35.27 38.38C18.52 36.46 6.55001 34.9 11.84 35.38C19.57 36.1 27.41 36.92 35.31 37.75C35.3403 37.0271 35.2934 36.303 35.17 35.59C35.0827 35.1141 35.0259 34.6331 35 34.15C34.9663 33.1084 34.5203 32.1228 33.76 31.41C33.2337 30.952 32.6401 30.5777 32 30.3C31.6518 30.1335 31.3174 29.9396 31 29.72C30.4672 29.3788 29.8781 29.135 29.26 29C27.8925 28.7376 26.4817 28.8131 25.15 29.22C24.4473 29.4038 23.726 29.5077 23 29.53H22.88H22.77H22.69L21.69 29.24C20.6414 28.9369 19.5667 28.7327 18.48 28.63C17.2223 28.515 15.9548 28.6824 14.77 29.12C14.5895 29.1825 14.4059 29.2359 14.22 29.28L13 29.59C11.27 30.2 9.83001 31.26 9.70001 33.11C9.63001 34.11 9.83001 35.79 9.82001 36.81C9.82001 37.35 11.01 37.24 11.01 37.81C11.01 38.38 9.60001 37.9 9.51001 39.54V39.55Z" fill="#993913"/>
</g>
<g clip-path="url(#clip2)">
<path fill-rule="evenodd" clip-rule="evenodd" d="M52.41 52.89C51.06 53.72 50.12 53.5 48.71 53.55C47.5097 53.6115 46.3194 53.3044 45.2987 52.6698C44.278 52.0352 43.4759 51.1036 43 50C43 50 43 50 43 50C42.8225 49.7145 42.6878 49.4045 42.6 49.08C42.3576 48.3805 42.2789 47.6347 42.37 46.9C41.9619 46.5126 41.635 46.0478 41.4084 45.5327C41.1818 45.0176 41.0599 44.4626 41.05 43.9C41.0099 43.5296 41.0268 43.1553 41.1 42.79C41.1 42.44 41.18 42.09 41.22 41.74C41.29 40.8 41.4 39.89 41.5 39C41.5 38.75 41.55 38.5 41.57 38.25C41.6351 37.6255 41.6652 36.9979 41.66 36.37C41.66 34.54 41.66 32.84 41.76 30.99C41.91 28.51 43.58 27.05 45.63 26.25C46 26.09 46.46 26 46.88 25.81C47.03 25.76 47.22 25.71 47.36 25.65C48.656 25.0874 50.0738 24.8638 51.48 25C52.41 25.07 54.48 25.49 56.48 25.53C59.15 25.58 61.84 25.27 62.48 25.45C63.206 25.6483 63.8857 25.9881 64.48 26.45C64.8012 26.6695 65.1351 26.8698 65.48 27.05C66.1773 27.4134 66.812 27.886 67.36 28.45C68.2802 29.4514 68.8092 30.7506 68.85 32.11C68.8809 32.6307 68.9477 33.1486 69.05 33.66C69.47 36.29 68.89 38.16 68.95 40.66C68.95 41.42 68.95 42.08 68.9 42.82C68.9598 43.1875 69.0399 43.5514 69.14 43.91C69.424 45.795 69.0384 47.7199 68.05 49.35C67.05 51.3 65.41 53.35 63.1 53.41C60.47 53.5 57.85 53.27 55.22 53.36C54.2622 53.3804 53.309 53.221 52.41 52.89Z" fill="#782910"/>
<path fill-rule="evenodd" clip-rule="evenodd" d="M43.81 49.37V49.43C44.2807 50.3087 44.9958 51.0322 45.869 51.5131C46.7421 51.994 47.7358 52.2118 48.73 52.14C49.99 52.14 50.88 52.29 52.03 51.66L52.33 51.49L52.67 51.6C53.4961 51.8697 54.361 52.0015 55.23 51.99C57.82 51.91 60.41 52.1 63 51.99C65 51.93 66.37 50.28 67.24 48.8C68.1068 47.5681 68.465 46.0494 68.24 44.56C68.06 44.08 66.73 44.56 66.03 44.43C65.495 44.2907 64.9782 44.0894 64.49 43.83C64.77 43.61 66.94 44.1 67.69 43.21C67.891 42.6783 68.0057 42.1179 68.03 41.55C68.03 39.55 68.54 37.77 68.14 35.55C68.0644 35.0867 68.0177 34.6191 68 34.15C67.9663 33.1084 67.5203 32.1228 66.76 31.41C66.2337 30.952 65.6401 30.5777 65 30.3C64.6518 30.1335 64.3174 29.9396 64 29.72C63.4672 29.3788 62.8781 29.135 62.26 29C60.8925 28.7376 59.4817 28.8131 58.15 29.22C57.4473 29.4038 56.726 29.5077 56 29.53H55.88H55.77H55.69L54.69 29.24C53.6414 28.9369 52.5667 28.7327 51.48 28.63C50.2223 28.515 48.9548 28.6824 47.77 29.12C47.5895 29.1825 47.4059 29.2359 47.22 29.28L46 29.59C44.27 30.2 42.83 31.26 42.7 33.11C42.63 34.11 42.83 35.79 42.82 36.81C42.82 37.35 44.01 37.24 44.01 37.81C44.01 38.38 42.6 37.9 42.51 39.54C42.51 39.76 42.46 39.98 42.44 40.2C42.34 41 42.23 41.8 42.13 42.6C41.7 46.1 44.4 45.42 47.33 46C44.7 46.68 42.22 46.54 43.81 49.37Z" fill="#7E3014"/>
<path fill-rule="evenodd" clip-rule="evenodd" d="M68.32 37.39C57.48 36.39 44.51 35.33 43.46 35.57V35.67C43.86 35.67 66.88 39.67 67.29 39.67H68.14C68.21 38.91 68.3 38.16 68.31 37.38L68.32 37.39ZM68.08 35.11C68.0337 34.802 68.007 34.4914 68 34.18H65.34C64.6 34.18 65.63 34.84 66.51 35.11H67.75H68.08Z" fill="#7F3113"/>
<path fill-rule="evenodd" clip-rule="evenodd" d="M53.12 39.43C49.7067 39.1433 46.3067 38.8266 42.92 38.48C42.7884 38.6108 42.6843 38.7668 42.6138 38.9385C42.5434 39.1103 42.5081 39.2944 42.51 39.48C42.51 39.7 42.46 39.92 42.44 40.14C42.34 40.94 42.23 41.74 42.13 42.54C41.7 46.1 44.4 45.42 47.33 46C44.7 46.71 42.22 46.57 43.81 49.4V49.46C44.2807 50.3386 44.9958 51.0622 45.869 51.5431C46.7421 52.024 47.7358 52.2418 48.73 52.17C49.99 52.17 50.88 52.32 52.03 51.69L52.33 51.52L52.67 51.63C53.4961 51.8997 54.361 52.0315 55.23 52.02C57.82 51.94 60.41 52.13 63 52.02C65 51.96 66.37 50.31 67.24 48.83C68.1068 47.5981 68.465 46.0793 68.24 44.59C68.06 44.11 66.73 44.59 66.03 44.46C65.495 44.3207 64.9782 44.1193 64.49 43.86C64.77 43.64 66.94 44.13 67.69 43.24C67.891 42.7083 68.0057 42.1479 68.03 41.58C68.0098 41.2103 68.0098 40.8397 68.03 40.47L63.56 40.27C60.29 40.06 56.55 39.73 53.12 39.43Z" fill="#7F3113"/>
<path fill-rule="evenodd" clip-rule="evenodd" d="M55.57 45.51C59.01 45.65 62.46 45.75 65.89 45.81H68.37C68.4122 45.3974 68.3783 44.9804 68.27 44.58C68.09 44.1 66.76 44.58 66.06 44.45C65.525 44.3107 65.0082 44.1094 64.52 43.85C64.8 43.63 66.97 44.12 67.72 43.23C67.921 42.6983 68.0357 42.1379 68.06 41.57V41.12L63.85 40.88C61.21 40.68 58.34 40.43 55.57 40.2V45.5V45.51ZM55.57 51.98V46.38C59.2 46.69 62.78 46.97 66.27 47.16L68.03 47.24C67.8274 47.7928 67.5729 48.3252 67.27 48.83C66.4 50.31 65 52 63 52C60.55 52.1 58.06 51.92 55.57 52V51.98ZM54.32 40.11C53.32 40.11 52.32 39.99 51.32 39.9C48.4 39.64 45.4867 39.3667 42.58 39.08C42.5474 39.2179 42.5273 39.3585 42.52 39.5C42.52 39.72 42.47 39.94 42.45 40.16C42.35 40.96 42.24 41.76 42.14 42.56C42.0436 42.946 42.0331 43.3484 42.1091 43.7389C42.1851 44.1294 42.3459 44.4984 42.58 44.82C46.9067 45.1 51.24 45.33 55.58 45.51V40.21L54.33 40.11H54.32ZM55.57 46.38V52H55.26C54.391 52.0115 53.5261 51.8798 52.7 51.61L52.36 51.5L52.06 51.67C50.91 52.3 50.06 52.11 48.76 52.15C47.7658 52.2218 46.7721 52.0041 45.899 51.5231C45.0258 51.0422 44.3107 50.3187 43.84 49.44V49.38C42.25 46.55 44.73 46.69 47.36 45.98C45.7 45.67 44.12 45.75 43.13 45.24C47.28 45.62 51.45 46 55.57 46.38Z" fill="#9B3D18"/>
<path fill-rule="evenodd" clip-rule="evenodd" d="M42.51 39.55L49.69 40.37C55.7633 41.0367 61.86 41.66 67.98 42.24C67.98 42 68.03 41.76 68.06 41.58C68.0732 40.5104 68.1433 39.4422 68.27 38.38C51.52 36.46 39.55 34.9 44.84 35.38C52.57 36.1 60.41 36.92 68.31 37.75C68.3403 37.0271 68.2934 36.303 68.17 35.59C68.0827 35.1141 68.0259 34.6331 68 34.15C67.9663 33.1084 67.5203 32.1228 66.76 31.41C66.2337 30.952 65.6401 30.5777 65 30.3C64.6518 30.1335 64.3174 29.9396 64 29.72C63.4672 29.3788 62.8781 29.135 62.26 29C60.8925 28.7376 59.4817 28.8131 58.15 29.22C57.4473 29.4038 56.726 29.5077 56 29.53H55.88H55.77H55.69L54.69 29.24C53.6414 28.9369 52.5667 28.7327 51.48 28.63C50.2223 28.515 48.9548 28.6824 47.77 29.12C47.5895 29.1825 47.4059 29.2359 47.22 29.28L46 29.59C44.27 30.2 42.83 31.26 42.7 33.11C42.63 34.11 42.83 35.79 42.82 36.81C42.82 37.35 44.01 37.24 44.01 37.81C44.01 38.38 42.6 37.9 42.51 39.54V39.55Z" fill="#993913"/>
</g>
<g clip-path="url(#clip3)">
<path fill-rule="evenodd" clip-rule="evenodd" d="M85.41 52.89C84.06 53.72 83.12 53.5 81.71 53.55C80.5097 53.6115 79.3194 53.3044 78.2987 52.6698C77.278 52.0352 76.4759 51.1036 76 50C76 50 76 50 76 50C75.8225 49.7145 75.6878 49.4045 75.6 49.08C75.3576 48.3805 75.2789 47.6347 75.37 46.9C74.9619 46.5126 74.635 46.0478 74.4084 45.5327C74.1818 45.0176 74.0599 44.4626 74.05 43.9C74.0099 43.5296 74.0268 43.1553 74.1 42.79C74.1 42.44 74.18 42.09 74.22 41.74C74.29 40.8 74.4 39.89 74.5 39C74.5 38.75 74.55 38.5 74.57 38.25C74.6351 37.6255 74.6652 36.9979 74.66 36.37C74.66 34.54 74.66 32.84 74.76 30.99C74.91 28.51 76.58 27.05 78.63 26.25C79 26.09 79.46 26 79.88 25.81C80.03 25.76 80.22 25.71 80.36 25.65C81.656 25.0874 83.0738 24.8638 84.48 25C85.41 25.07 87.48 25.49 89.48 25.53C92.15 25.58 94.84 25.27 95.48 25.45C96.206 25.6483 96.8857 25.9881 97.48 26.45C97.8012 26.6695 98.1351 26.8698 98.48 27.05C99.1773 27.4134 99.812 27.886 100.36 28.45C101.28 29.4514 101.809 30.7506 101.85 32.11C101.881 32.6307 101.948 33.1486 102.05 33.66C102.47 36.29 101.89 38.16 101.95 40.66C101.95 41.42 101.95 42.08 101.9 42.82C101.96 43.1875 102.04 43.5514 102.14 43.91C102.424 45.795 102.038 47.7199 101.05 49.35C100.05 51.3 98.41 53.35 96.1 53.41C93.47 53.5 90.85 53.27 88.22 53.36C87.2622 53.3804 86.309 53.221 85.41 52.89Z" fill="#782910"/>
<path fill-rule="evenodd" clip-rule="evenodd" d="M76.81 49.37V49.43C77.2807 50.3087 77.9958 51.0322 78.869 51.5131C79.7421 51.994 80.7358 52.2118 81.73 52.14C82.99 52.14 83.88 52.29 85.03 51.66L85.33 51.49L85.67 51.6C86.4961 51.8697 87.361 52.0015 88.23 51.99C90.82 51.91 93.41 52.1 96 51.99C98 51.93 99.37 50.28 100.24 48.8C101.107 47.5681 101.465 46.0494 101.24 44.56C101.06 44.08 99.73 44.56 99.03 44.43C98.495 44.2907 97.9782 44.0894 97.49 43.83C97.77 43.61 99.94 44.1 100.69 43.21C100.891 42.6783 101.006 42.1179 101.03 41.55C101.03 39.55 101.54 37.77 101.14 35.55C101.064 35.0867 101.018 34.6191 101 34.15C100.966 33.1084 100.52 32.1228 99.76 31.41C99.2337 30.952 98.6401 30.5777 98 30.3C97.6518 30.1335 97.3174 29.9396 97 29.72C96.4672 29.3788 95.8781 29.135 95.26 29C93.8925 28.7376 92.4817 28.8131 91.15 29.22C90.4473 29.4038 89.726 29.5077 89 29.53H88.88H88.77H88.69L87.69 29.24C86.6414 28.9369 85.5667 28.7327 84.48 28.63C83.2223 28.515 81.9548 28.6824 80.77 29.12C80.5895 29.1825 80.4059 29.2359 80.22 29.28L79 29.59C77.27 30.2 75.83 31.26 75.7 33.11C75.63 34.11 75.83 35.79 75.82 36.81C75.82 37.35 77.01 37.24 77.01 37.81C77.01 38.38 75.6 37.9 75.51 39.54C75.51 39.76 75.46 39.98 75.44 40.2C75.34 41 75.23 41.8 75.13 42.6C74.7 46.1 77.4 45.42 80.33 46C77.7 46.68 75.22 46.54 76.81 49.37Z" fill="#7E3014"/>
<path fill-rule="evenodd" clip-rule="evenodd" d="M101.32 37.39C90.48 36.39 77.51 35.33 76.46 35.57V35.67C76.86 35.67 99.88 39.67 100.29 39.67H101.14C101.21 38.91 101.3 38.16 101.31 37.38L101.32 37.39ZM101.08 35.11C101.034 34.802 101.007 34.4914 101 34.18H98.34C97.6 34.18 98.63 34.84 99.51 35.11H100.75H101.08Z" fill="#7F3113"/>
<path fill-rule="evenodd" clip-rule="evenodd" d="M86.12 39.43C82.7067 39.1433 79.3067 38.8266 75.92 38.48C75.7884 38.6108 75.6843 38.7668 75.6138 38.9385C75.5434 39.1103 75.5081 39.2944 75.51 39.48C75.51 39.7 75.46 39.92 75.44 40.14C75.34 40.94 75.23 41.74 75.13 42.54C74.7 46.1 77.4 45.42 80.33 46C77.7 46.71 75.22 46.57 76.81 49.4V49.46C77.2807 50.3386 77.9958 51.0622 78.869 51.5431C79.7421 52.024 80.7358 52.2418 81.73 52.17C82.99 52.17 83.88 52.32 85.03 51.69L85.33 51.52L85.67 51.63C86.4961 51.8997 87.361 52.0315 88.23 52.02C90.82 51.94 93.41 52.13 96 52.02C98 51.96 99.37 50.31 100.24 48.83C101.107 47.5981 101.465 46.0793 101.24 44.59C101.06 44.11 99.73 44.59 99.03 44.46C98.495 44.3207 97.9782 44.1193 97.49 43.86C97.77 43.64 99.94 44.13 100.69 43.24C100.891 42.7083 101.006 42.1479 101.03 41.58C101.01 41.2103 101.01 40.8397 101.03 40.47L96.56 40.27C93.29 40.06 89.55 39.73 86.12 39.43Z" fill="#7F3113"/>
<path fill-rule="evenodd" clip-rule="evenodd" d="M88.57 45.51C92.01 45.65 95.46 45.75 98.89 45.81H101.37C101.412 45.3974 101.378 44.9804 101.27 44.58C101.09 44.1 99.76 44.58 99.06 44.45C98.525 44.3107 98.0082 44.1094 97.52 43.85C97.8 43.63 99.97 44.12 100.72 43.23C100.921 42.6983 101.036 42.1379 101.06 41.57V41.12L96.85 40.88C94.21 40.68 91.34 40.43 88.57 40.2V45.5V45.51ZM88.57 51.98V46.38C92.2 46.69 95.78 46.97 99.27 47.16L101.03 47.24C100.827 47.7928 100.573 48.3252 100.27 48.83C99.4 50.31 98 52 96 52C93.55 52.1 91.06 51.92 88.57 52V51.98ZM87.32 40.11C86.32 40.11 85.32 39.99 84.32 39.9C81.4 39.64 78.4867 39.3667 75.58 39.08C75.5474 39.2179 75.5273 39.3585 75.52 39.5C75.52 39.72 75.47 39.94 75.45 40.16C75.35 40.96 75.24 41.76 75.14 42.56C75.0436 42.946 75.0331 43.3484 75.1091 43.7389C75.1851 44.1294 75.3459 44.4984 75.58 44.82C79.9067 45.1 84.24 45.33 88.58 45.51V40.21L87.33 40.11H87.32ZM88.57 46.38V52H88.26C87.391 52.0115 86.5261 51.8798 85.7 51.61L85.36 51.5L85.06 51.67C83.91 52.3 83.06 52.11 81.76 52.15C80.7658 52.2218 79.7721 52.0041 78.899 51.5231C78.0258 51.0422 77.3107 50.3187 76.84 49.44V49.38C75.25 46.55 77.73 46.69 80.36 45.98C78.7 45.67 77.12 45.75 76.13 45.24C80.28 45.62 84.45 46 88.57 46.38Z" fill="#9B3D18"/>
<path fill-rule="evenodd" clip-rule="evenodd" d="M75.51 39.55L82.69 40.37C88.7633 41.0367 94.86 41.66 100.98 42.24C100.98 42 101.03 41.76 101.06 41.58C101.073 40.5104 101.143 39.4422 101.27 38.38C84.52 36.46 72.55 34.9 77.84 35.38C85.57 36.1 93.41 36.92 101.31 37.75C101.34 37.0271 101.293 36.303 101.17 35.59C101.083 35.1141 101.026 34.6331 101 34.15C100.966 33.1084 100.52 32.1228 99.76 31.41C99.2337 30.952 98.6401 30.5777 98 30.3C97.6518 30.1335 97.3174 29.9396 97 29.72C96.4672 29.3788 95.8781 29.135 95.26 29C93.8925 28.7376 92.4817 28.8131 91.15 29.22C90.4473 29.4038 89.726 29.5077 89 29.53H88.88H88.77H88.69L87.69 29.24C86.6414 28.9369 85.5667 28.7327 84.48 28.63C83.2223 28.515 81.9548 28.6824 80.77 29.12C80.5895 29.1825 80.4059 29.2359 80.22 29.28L79 29.59C77.27 30.2 75.83 31.26 75.7 33.11C75.63 34.11 75.83 35.79 75.82 36.81C75.82 37.35 77.01 37.24 77.01 37.81C77.01 38.38 75.6 37.9 75.51 39.54V39.55Z" fill="#993913"/>
</g>
</g>
<defs>
<clipPath id="clip0">
<rect width="110" height="58.33" fill="white"/>
</clipPath>
<clipPath id="clip1">
<rect width="28.33" height="28.55" fill="white" transform="translate(8 25)"/>
</clipPath>
<clipPath id="clip2">
<rect width="28.33" height="28.55" fill="white" transform="translate(41 25)"/>
</clipPath>
<clipPath id="clip3">
<rect width="28.33" height="28.55" fill="white" transform="translate(74 25)"/>
</clipPath>
</defs>
</svg>
