<svg xmlns="http://www.w3.org/2000/svg" viewBox="0 0 110 96.39"><defs><style>.cls-1{fill:#813914;}.cls-1,.cls-2,.cls-3,.cls-5,.cls-9{fill-rule:evenodd;}.cls-2{fill:#a54a16;}.cls-3{fill:#b35516;}.cls-4{fill:#de9829;}.cls-5{fill:#c37025;}.cls-6{fill:#d68821;}.cls-7{fill:#dd9829;}.cls-8{fill:#dd9826;}.cls-9{fill:#bd6710;}.cls-10{fill:#d98d2b;}.cls-11{fill:#df9c25;}.cls-12{fill:#e1a02d;}.cls-13{fill:#df9c22;}.cls-14{fill:#e19b38;}.cls-15{fill:#df9c30;}</style></defs><g id="레이어_2" data-name="레이어 2"><g id="Layer_1" data-name="Layer 1"><path class="cls-1" d="M1.6,74.65a.89.89,0,0,1-.2-.19A2,2,0,0,1,1,73.14a13,13,0,0,1,.11-1.39c.07-.68.14-1.37.19-2a15.62,15.62,0,0,0,.07-2.89,1.78,1.78,0,0,1-.21-1.46,1.06,1.06,0,0,1,.49-.58l-.09-.11s-.08-.09-.11-.14a1.73,1.73,0,0,1-.18-1.87c.64-1.53,3.62-1.1,4.8-1.1q43.65-.22,87.28-.27A22.91,22.91,0,0,0,96.12,61c1.24-.16,2.47-.32,3.72-.43,2-.16,5.75,0,7.21,1.44a4.28,4.28,0,0,1,1.5,3.46c.1,1.63,0,4.33,0,5.9V81.1c0,1-.06,2-.12,3-.15,2.37.74,9.85.3,11a2.09,2.09,0,0,1-2.2,1.27c-5.62-.12-14.45.29-18.13-.17a9.72,9.72,0,0,0-1.06-.1H21.62L3.46,95.26C1.56,95.18.9,94.14.84,92.17c0-1.63-.89-8.3-.84-8.78.38-3.32,1.29-3.5,1.06-3.86s.75-.63.7-1a10.63,10.63,0,0,0-.34-1.19c-.24-.82-.5-2,.12-2.61Z"/><path class="cls-1" d="M1.6,14.11a.89.89,0,0,1-.2-.19A2,2,0,0,1,1,12.6a13,13,0,0,1,.11-1.39c.07-.69.14-1.37.19-2.06a15.49,15.49,0,0,0,.07-2.88A1.81,1.81,0,0,1,1.2,4.8a1.06,1.06,0,0,1,.49-.58l-.09-.1A1.71,1.71,0,0,0,1.49,4a1.73,1.73,0,0,1-.18-1.87C2,.57,4.93,1,6.11,1Q49.76.79,93.39.73A22.89,22.89,0,0,0,96.12.48C97.36.32,98.59.15,99.84.05c2-.16,5.75,0,7.21,1.44A4.26,4.26,0,0,1,108.55,5c.1,1.62,0,4.32,0,5.9v9.71c0,1-.06,2-.12,3-.15,2.37.74,9.85.3,11a2.11,2.11,0,0,1-2.2,1.27c-5.62-.12-14.45.28-18.13-.17a7.75,7.75,0,0,0-1.06-.1H21.62L3.46,34.72c-1.9-.09-2.62-2.4-2.67-4.37,0-.84.67-2,.45-4S0,24.74,0,22.84c.11-1,1.15-1.32,1.22-2,.13-1.34.62-2.24.54-2.82a10.63,10.63,0,0,0-.34-1.19c-.24-.82-.5-2,.12-2.62Z"/><path class="cls-1" d="M108.39,51.7a1.66,1.66,0,0,1,.21.16A1.62,1.62,0,0,1,109,53a11.57,11.57,0,0,1-.11,1.17c-.07.58-.14,1.15-.2,1.73a11,11,0,0,0-.06,2.42,1.3,1.3,0,0,1,.21,1.23,1,1,0,0,1-.49.49l.08.09.12.12a1.25,1.25,0,0,1,.18,1.56c-.65,1.3-3.63.93-4.81.94q-43.63.18-87.28.22a24.72,24.72,0,0,0-2.72.22c-1.24.13-2.48.27-3.72.36-2,.13-5.75,0-7.21-1.21a3.35,3.35,0,0,1-1.5-2.91c-.1-1.36-.05-3.63-.05-5V46.29c0-.81.07-1.7.13-2.51.14-2-.74-8.27-.3-9.23a2.17,2.17,0,0,1,2.19-1.06c5.62.1,14.46-.25,18.14.14.34,0,.71.08,1.06.08H88.38l18.16.68c1.89.07,2.56.94,2.62,2.6,0,1.37.89,7,.83,7.38-.37,2.79-1.28,2.94-1,3.24s-.76.53-.71.85a9.22,9.22,0,0,0,.35,1c.24.68.49,1.64-.13,2.19Z"/><path class="cls-2" d="M8.67,40.65c-2,1.49-6,2.66-6.06.63,0-.43,1,.1,1-.37C3.37,39.7,2,37.42,2.36,36.36c-1.38-1.34-.1-2.08.42-2,1.93,0,4.59.09,7.59,0a17.89,17.89,0,0,0,3.44,0c2.56-.53,11.67.2,11.6.25-.69.49-5.1,3.06-4.64,3S21.41,38.27,8.67,40.65Z"/><path class="cls-2" d="M16.3,51.19c-2.56.38-5.05.87-7.52,1.34-2,1.48-6,2.65-6.06.63,0-1.55-.73-3.45-.26-4.93l.07.07c0,.07.08.11.08.16,1.68,0,2.89.71,4.52,1.1l.48.09H17.76c.15,0,.56-.11.37,0-.51.36-.5.23.07.23.15,0,.55-.06.61-.26l2.07,0c.55,0,.06.89-.49,1.26l-.93,0c-.61,0-1.23.06-1.85.11C17.2,51.06,16.73,51.12,16.3,51.19Z"/><path class="cls-2" d="M16.11,57.82c-2.58.38-5.1.88-7.61,1.34-2.12,1.48-6.17,2.66-6.09.63.06-1.55-.5-3.44.07-4.92l.06.06c0,.07.07.11.07.16,1.67,0,2.84.72,4.44,1.1l.48.09H17.67c.16,0,.58-.1.38,0-.53.36-.52.24.05.24.15,0,.56-.06.63-.27l2.07-.05c.56,0,0,.89-.57,1.27l-.93,0c-.62,0-1.24.06-1.86.11C17,57.69,16.55,57.76,16.11,57.82Z"/><path class="cls-2" d="M99,47l2.58.35c.48.27-1.57,1.3-2.58,2.47v2.3c.78,1.54,2.63,6.39,5.18,8.46.74.6,3.45.48,4,.56.14,0-.25-.83-.18-1.06.43-1.33-.14-6.11,0-6.12.71,0-.53-5.68-.4-6.17.26-1.08,1.23-2.41,1-3.44l-.08,0s-.09.09-.1.12a28.25,28.25,0,0,0-4.67.77l-.5.06L99,44.86V47Zm9.93-3.5v.38c-.43.81-4.07.07-6.27-.85L99,42.57V41h3.9l.46-.06a20.17,20.17,0,0,1,4.16-.77s0-.06,0-.11l0,0c.94,1,.86,2.36,1.31,3.44ZM94.3,46.4c1.61.18,3.18.38,4.74.59V44.86c-8-.92-24.93-2.84-25.95-2.53v.09h0c.31,0,17.77,3.77,18.08,3.78.61,0,1.22,0,1.83.07l1.3.12ZM99,49.81c-.53.61-.77,1.26-.26,1.87a2.46,2.46,0,0,1,.26.43v-2.3ZM99,41v1.56c-1.42-.17-2.85-.34-4.29-.48-.46-.05-1-.1-1.38-.13-.63,0-1.26-.06-1.88-.07l-.94,0c-.67-.26-1.45-.89-.89-.88l2.08,0a1.2,1.2,0,0,0,.7.19c.57,0,.61.08,0-.17-.23-.09.22,0,.37,0H99Z"/><path class="cls-2" d="M84.76,60.2C56.49,58,30.55,54.13,2.33,52.61A4.3,4.3,0,0,0,2,54.44c0,3.22.65,2.84,3.48,2.84.56,0-3.06,2.07-3.06,2.94,0,4.48,10.76,2,14.14,2,29.67,0,57.19-.1,87.28-.23.84,0,3.83.27,4.25-.57.17-.35.12-.53,0-.67h-4.38c-3.73,0-7.47,0-11.19-.1C90.09,60.6,87.31,60.39,84.76,60.2Z"/><path class="cls-3" d="M85.56,60.82c-.75,0-1.5-.06-2.24-.11-8-.61-15.8-1.43-23.56-2.34-7.16-.83-14.26-1.73-21.45-2.52Q20.52,53.87,2.18,53A5.75,5.75,0,0,0,2,54.44a9.92,9.92,0,0,0,.08,1.48C23,57.89,47.22,61,41.18,60.5c-12.67-1.09-25.65-2.67-38.76-3.71.45.63,1.36.49,3.1.49.56,0-3.06,2.07-3.06,2.94,0,4.48,10.76,2,14.14,2,29.67,0,57.19-.1,87.28-.23.74,0,3.16.21,4-.32q-7.62-.15-15.23-.43C90.39,61.16,87.9,61,85.56,60.82Z"/><path class="cls-4" d="M2.7,61.24c7.86.37,15.72.73,23.6,1,19,0,37.31-.07,56.22-.14-22-1.63-42.87-5.44-64.89-7.13C12.48,54.6,7.27,54.4,2,54.23v.62c5.79.44,12,.94,16.17,1.33C20.87,56.44,48.71,61,48,61,33.53,60,18.94,58.9,4.28,58.36c-.85.64-1.82,1.41-1.82,1.86A2.08,2.08,0,0,0,2.7,61.24Z"/><path class="cls-2" d="M80.41,46C53.48,43,28.33,38.52,1.78,35.84c.49,1.81,3.37,4.44,6,4.44-.06.17-4.87.88-5.17,1.14S2,46,2,46.29c0,3.47.27,4.87,3.8,4.87C5.21,53.85,2,49.67,2,54.44c0,3.22.65,2.84,3.48,2.84.3,0-.63.61-1.54,1.31a264.61,264.61,0,0,1,51,1.26c6.87.91,13.88,1.66,20.9,2.29L103.88,62c.84,0,3.83.27,4.25-.57.28-.57,0-.7-.21-.9-.61-.72-3.12.2-3-.45,2.36-.84,3.87-.29,3.12-1.45-.46-.72.28-5,.27-5.68,0-1.41-.91-.27-4.44-1.59,1.61,0,3.47.35,4.17-.26.5-.45-.35-2-.44-2.56-.13-.77.24-.58-1.67-.58a12,12,0,0,1-2-.53l-4.25-.15c-3.75-.11-7.52-.29-11.29-.52C85.85,46.59,83,46.28,80.41,46Z"/><path class="cls-5" d="M81.32,46.64c-.76,0-1.52-.12-2.28-.2-8.13-.9-16.17-2-24.15-3.22-7.36-1.1-14.68-2.27-22.07-3.34q-15.33-2.22-30.9-3.65a7.86,7.86,0,0,0,3.87,3.62c18.54,2.57,36,5.42,30.71,4.79-9.9-1.2-20-2.69-30.23-4a26.75,26.75,0,0,0-3.7.79C2.18,41.75,2,46,2,46.29a8.51,8.51,0,0,0,.45,3.52c4.7.34,9.33.77,13.74,1.29.3,0-5.48-.3-13.22-.63a4.32,4.32,0,0,0,2.83.69C5.21,53.85,2,49.67,2,54.44c0,.4,0,.75,0,1,12.13-.18,25,.43,37.51.94C27.7,56.46,14.4,55.7,2.13,56c.25,1.56,1.11,1.32,3.39,1.32.26,0-.39.45-1.17,1,4.1-.24,8.25-.4,12.42-.49,8.36-.18,16.89-.08,25.45.4,4.8.26,9.68.61,14.4,1.24,5.16.67,10.39,1.21,15.61,1.72q5.11.51,10.24.94L103.88,62c.84,0,3.83.27,4.25-.57.28-.57,0-.7-.21-.9-.61-.72-3.12.2-3-.45,2.36-.84,3.87-.29,3.12-1.45-.33-.52,0-2.94.15-4.47-5.93-.22-11.87-.52-17.81-.86-9.55-.66-20-2.34-29.84-3.07,2.71.14,5.58.3,7.32.46,7.39.68,14.84,1.17,22.23,1.32,5.26.06,10.45,0,15.62-.11a12.88,12.88,0,0,1-1.84-.54c1.61,0,3.47.35,4.17-.26.5-.45-.34-1.94-.44-2.55q-9.52-.51-19-1.2C86.25,47.17,83.71,46.88,81.32,46.64Z"/><path class="cls-6" d="M2.09,53.5c26.55,0,53.8,4.31,81.17,4.93,2.8,0,5.6.12,8.39.15q8.19,0,16.33-.09a.54.54,0,0,0,.07.17c.06.09.1.17.14.24-7.75.43-12.81.7-12.62.71l9.36.59c.06.25.74.14,1.45.09l1.25.08a.67.67,0,0,1,.29.19c.18.2.49.33.21.9-.42.84-3.41.57-4.25.57l-3.16,0c-2.6-.16-5.21-.34-7.8-.51-5.29-.4-10.56-.85-15.85-1.32C52.33,58,28.72,56.6,5.58,57.31t-.06,0c-2.28,0-3.14.24-3.39-1.32,12.27-.26,25.57.5,37.45.46C27.29,55.92,14.44,55,2,54.93v-.49A8.47,8.47,0,0,1,2.09,53.5Z"/><path class="cls-7" d="M2.13,44.27c8,.67,16.07,1.31,24.1,1.87.72,0-11.23,0-15.33,0L2,46.1v.19c0,.49,0,1,0,1.36,13.24.17,26.49.4,39.43,1.68,16.67,1.77,32.1,4.46,49.2,5.23,5.52.18,11,.3,16.5.31.25,0,.56,0,.93,0,.1-.87.2-1.62.2-1.88a1.12,1.12,0,0,0-.11-.56H96.84c-2.25,0-4.5-.05-6.76-.11C78.23,51.87,67.47,50,56.53,48.46,67,49.56,80.76,50.83,89.85,51h3.61c4.48,0,9.36.11,14.42.22l.17-.11c.29-.27.12-.9-.09-1.5q-9.46-.27-19-.83c-26.33-2-51.2-7.64-77.19-10.56-3.05-.34-6.12-.61-9.19-.86a7.4,7.4,0,0,0,.9,1c3.4.4,6.59.78,9.09,1.1,2.72.36,31.58,6,30.87,5.92-13.56-1.44-27.2-2.91-40.85-4l-.06,0A8.59,8.59,0,0,0,2.13,44.27Z"/><path class="cls-8" d="M107.9,57.49q-8.06.19-16.13.32c-8.41,0-16.93-.17-25.47-.56V55.68l2.32.08c7.5.19,15.09.58,22.44.36A20.43,20.43,0,0,0,96,55.64l-4.86.11C83,55.82,74.63,55.53,66.3,55V53.75c8.16.71,16.35,1.32,24.61,1.72,5.72.2,11.43.34,17.1.42C108,56.45,107.91,57,107.9,57.49Zm-41.6-.24C59.89,57,53.46,56.54,47.05,56c-13.11-1-29.21-2.15-45-2.51.38-3.13,2.92-.17,3.65-2.06,6.42.4,12.27.62,13.08,0l-16-1.15a4.1,4.1,0,0,1-.75-2.61c21.43,1.54,42.7,4.18,64.23,6.07V55c-9.95-.64-19.91-1.65-29.69-2.84,6.68,2.21,20.82,3.2,29.69,3.53Z"/><path class="cls-9" d="M29.32,40.36c.76,0,1.52.11,2.28.19,8.13.87,16.17,2,24.15,3.11,7.36,1.06,14.68,2.19,22.07,3.23q15,2.1,30.35,3.45c-.12-.61-.5-1.38-.56-1.77-.13-.77.24-.58-1.67-.58-.56,0-5.17-1.46-4.62-1.67C84.17,44,69.19,41.59,74.14,42.15c10.08,1.17,20.39,2.64,30.78,3.93,4.34-.54,7.49-2.14.22-4.66-2.24-.78,1.06-.11,2.54-.91.91-.49,1.22-2.28.79-3.68-4.81-.31-9.55-.73-14.06-1.24-.31,0,5.76.28,13.79.59a2,2,0,0,0-1.68-1.11l-18.16-.68H28.07c7.28.75,14.81,1.76,22,2.25-2.71-.12-5.58-.27-7.32-.42-7.15-.62-14.36-1.07-21.5-1.2,1.78.9,1.43.51-1.61.51A8.17,8.17,0,0,1,16.73,35c-5.05,0-10,.14-15,.28,0,.92.84,2.25,2.09,3.31q9.15.45,18.29,1.07C24.39,39.86,26.93,40.14,29.32,40.36Z"/><path class="cls-8" d="M107.26,42.25C99.64,41.66,92,41.09,84.41,40.6c-.72-.05,11.23-.09,15.33-.11l7.93,0h0a2.19,2.19,0,0,0,.91-1.54c-13.24-.11-26.5-.27-39.44-1.49-9-.91-17.58-2.08-26.29-3.09H22.62c-.94,0-3.39-.47-2.32.12l.43.23c11.79.4,22.49,2.21,33.38,3.69C43.67,37.37,29.88,36.17,20.79,36H17.18c-2.59,0-5.31,0-8.12,0v1.7q6.28.21,12.58.55C48,40.08,72.84,45.63,98.83,48.43c3,.31,6,.57,9,.79a3,3,0,0,1-.2-.65,1.29,1.29,0,0,1,0-.25c-3.57-.39-6.93-.78-9.55-1.1s-31.58-5.83-30.87-5.77c13.67,1.39,27.44,2.8,41.2,3.82.63-.28,1-.62,1.11-1V44c-.08-.51-.74-1.11-2.21-1.79ZM9.06,34.67v-.4l7,.12a.72.72,0,0,0,.17.29H9.06Zm0,1.32-7.27-.12a4.85,4.85,0,0,0,.93,1.64l6.34.18V36Zm0-1.72v.4l-7.19,0a1.7,1.7,0,0,1,1.54-.55Z"/><path class="cls-10" d="M107.4,35.32c-7.33-.46-14.67-.79-15.58,0l16.47,1.1a4.43,4.43,0,0,1,.3,2.57C91.66,37.81,74.83,36,57.9,34.39h14l2.1.25c-.25-.09-.52-.17-.79-.25H88.36l18.16.68A2.1,2.1,0,0,1,107.4,35.32Z"/><path class="cls-2" d="M101.33,87.81c2-1.77,6-3.17,6-.75,0,1.84.73,4.1.26,5.86,1.37,1.59.1,2.47-.43,2.37-1.92,0-4.58-.12-7.58,0-1.11,0-2.26-.34-3.44-.05-2.56.64-11.68-.23-11.61-.29.69-.58,5.11-3.65,4.64-3.63S88.58,90.65,101.33,87.81Z"/><path class="cls-2" d="M93.7,75.27c2.56-.46,5-1,7.52-1.6,2-1.76,6-3.16,6.06-.74,0,1.83.72,4.09.25,5.85l-.07-.07c0-.08-.08-.14-.08-.19-1.67,0-2.89-.86-4.51-1.31a3.88,3.88,0,0,0-.49-.11H92.24c-.15,0-.57.13-.37,0,.5-.43.5-.28-.07-.28-.15,0-.55.06-.62.31l-2.06.06c-.56,0-.06-1.06.48-1.51l.93,0c.62,0,1.23-.07,1.85-.13Z"/><path class="cls-2" d="M93.88,67.37c2.59-.45,5.1-1,7.61-1.59,2.12-1.76,6.18-3.16,6.1-.75-.06,1.84.5,4.1-.07,5.86l-.07-.08c0-.08-.07-.13-.07-.19-1.67,0-2.84-.85-4.43-1.31l-.49-.11H92.32c-.15,0-.57.13-.37,0,.53-.43.52-.28,0-.28-.15,0-.56.07-.64.31l-2.07.06c-.55,0,0-1.05.58-1.5l.93-.05c.61,0,1.23-.07,1.85-.13C93,67.53,93.45,67.45,93.88,67.37Z"/><path class="cls-2" d="M15.7,81c-1.61-.2-3.18-.45-4.74-.7V82.8c8,1.1,24.91,3.38,25.95,3v-.1h0c-.31,0-17.77-4.48-18.08-4.49q-.91,0-1.83-.09L15.7,81ZM11,76.9a1.8,1.8,0,0,0,.25-2.22,3.43,3.43,0,0,1-.25-.51V76.9Zm0,10.48V85.53c1.42.2,2.85.4,4.29.57l1.37.15,1.88.09.95,0c.66.31,1.45,1.07.89,1l-2.08,0c-.13-.17-.55-.22-.71-.22-.57,0-.61-.1,0,.2.24.11-.21,0-.36,0H11Zm0-7.12-2.59-.41C7.9,79.52,10,78.3,11,76.9V74.17c-.78-1.84-2.64-7.6-5.19-10.07-.73-.71-3.45-.57-3.95-.66-.15,0,.25,1,.17,1.26C1.57,66.28,2.14,72,2,72c-.72,0,.52,6.78.4,7.35-.27,1.29-1.23,2.87-1,4.1l.08,0c0-.06.1-.1.11-.14a24.23,24.23,0,0,0,4.67-.91l.5-.08L11,82.8V80.26Zm0,5.27v1.85H7.05l-.45.08c-1.51.31-2.49.91-4.16.91,0,0,0,.08,0,.14l-.05,0c-.95-1.23-.87-2.81-1.32-4.1V84c.43-1,4.07-.07,6.27,1Z"/><path class="cls-2" d="M25.23,64.54c28.28,2.57,54.22,7.23,82.43,9a5.8,5.8,0,0,0,.3-2.19c0-3.82-.65-3.37-3.49-3.37-.55,0,3.06-2.46,3.06-3.5,0-5.33-10.76-2.43-14.14-2.43-29.67,0-57.19.12-87.27.27-.85,0-3.83-.32-4.25.68a.79.79,0,0,0,0,.8H6.24c3.73,0,7.46,0,11.18.12C19.91,64.07,22.68,64.31,25.23,64.54Z"/><path class="cls-3" d="M24.43,63.81c.76,0,1.51.06,2.25.13,8,.72,15.79,1.7,23.55,2.77,7.16,1,14.27,2.06,21.45,3q17.8,2.36,36.14,3.34a8,8,0,0,0,.14-1.67,16.09,16.09,0,0,0-.08-1.75C87,67.28,62.77,63.58,68.82,64.18c12.67,1.3,25.65,3.18,38.75,4.42-.44-.75-1.36-.58-3.1-.58-.55,0,3.06-2.46,3.06-3.5,0-5.33-10.76-2.43-14.14-2.43-29.67,0-57.19.12-87.27.27-.75,0-3.17-.25-4,.38,5.09.12,10.16.28,15.23.51C19.61,63.4,22.09,63.63,24.43,63.81Z"/><path class="cls-4" d="M107.3,63.3c-7.86-.44-15.73-.86-23.61-1.21-19,0-37.3.08-56.21.17,22,1.94,42.87,6.47,64.89,8.48,5.14.46,10.36.7,15.58.91a2.26,2.26,0,0,0,0-.26c0-.17,0-.33,0-.48-5.79-.53-12-1.11-16.17-1.59-2.66-.3-30.5-5.75-29.8-5.7,14.49,1.22,29.07,2.46,43.73,3.11.86-.76,1.82-1.68,1.82-2.21A3.05,3.05,0,0,0,107.3,63.3Z"/><path class="cls-2" d="M29.58,81.45C56.52,85,81.66,90.34,108.22,93.54c-.5-2.16-3.37-5.29-6-5.29,0-.21,4.87-1,5.17-1.35s.53-5.45.53-5.8c0-4.14-.28-5.8-3.8-5.8.62-3.2,3.8,1.78,3.8-3.91,0-3.82-.65-3.37-3.49-3.37-.3,0,.63-.73,1.55-1.56a223.39,223.39,0,0,1-51-1.5c-6.86-1.09-13.87-2-20.9-2.73l-28,.13c-.85,0-3.83-.32-4.25.68-.29.68,0,.83.2,1.07.62.86,3.13-.23,3,.54-2.35,1-3.86.35-3.12,1.72.46.86-.27,5.93-.26,6.77,0,1.68.91.32,4.44,1.89-1.61,0-3.48-.42-4.17.31-.51.54.34,2.33.44,3,.12.92-.25.7,1.67.7a10.91,10.91,0,0,1,2,.62c1.41.07,2.82.12,4.24.18,3.76.13,7.53.35,11.3.63C24.14,80.74,27,81.11,29.58,81.45Z"/><path class="cls-5" d="M28.67,80.68c.76.06,1.53.14,2.28.24,8.14,1.07,16.18,2.4,24.16,3.83,7.36,1.31,14.68,2.7,22.06,4q15.33,2.64,30.91,4.34a8.69,8.69,0,0,0-3.87-4.3c-18.54-3.06-36-6.45-30.72-5.71,9.9,1.43,20,3.2,30.23,4.78a24.69,24.69,0,0,0,3.71-.94c.39-.4.53-5.45.53-5.8a11.58,11.58,0,0,0-.46-4.19c-4.7-.4-9.32-.92-13.74-1.54-.3-.05,5.49.36,13.23.75a3.83,3.83,0,0,0-2.83-.82c.62-3.2,3.8,1.78,3.8-3.91,0-.47,0-.88,0-1.23-12.12.21-25-.51-37.5-1.12,11.88,0,25.18.86,37.45.55-.25-1.86-1.12-1.57-3.4-1.57-.26,0,.4-.54,1.17-1.22-4.1.28-8.25.47-12.41.58-8.36.21-16.9.08-25.46-.48-4.79-.31-9.67-.73-14.39-1.47C48.22,64.62,43,64,37.77,63.37q-5.12-.6-10.25-1.11l-21.4.1c-.85,0-3.83-.32-4.25.68-.29.68,0,.83.2,1.07.62.86,3.13-.23,3,.54-2.35,1-3.86.35-3.12,1.72.34.63,0,3.5-.15,5.33,5.93.26,11.88.62,17.81,1,9.56.79,20,2.79,29.85,3.65-2.71-.16-5.58-.36-7.32-.55-7.4-.8-14.85-1.38-22.23-1.57-5.26-.06-10.46,0-15.63.14A10.26,10.26,0,0,1,6.12,75c-1.61,0-3.48-.42-4.17.31-.5.53.33,2.31.44,3q9.52.61,19.05,1.44C23.75,80.06,26.28,80.4,28.67,80.68Z"/><path class="cls-6" d="M107.9,72.52c-26.54,0-53.79-5.14-81.16-5.87-2.8-.07-5.6-.14-8.39-.18q-8.19,0-16.34.11a1,1,0,0,0-.07-.21,1.68,1.68,0,0,1-.13-.28c7.74-.51,12.81-.83,12.62-.84l-9.37-.7c-.06-.3-.74-.18-1.45-.11l-1.25-.1a.8.8,0,0,1-.29-.23c-.17-.24-.49-.39-.2-1.07.42-1,3.4-.68,4.25-.68l3.15,0c2.61.19,5.21.4,7.81.61,5.29.47,10.56,1,15.84,1.56,24.74,2.6,48.35,4.32,71.5,3.47,0,0,0,0,0,0,2.28,0,3.15-.29,3.4,1.57C95.6,69.9,82.3,69,70.42,69c12.29.6,25.14,1.65,37.53,1.78,0,.18,0,.37,0,.57A9.17,9.17,0,0,1,107.9,72.52Z"/><path class="cls-11" d="M107.87,83.5c-8-.79-16.07-1.55-24.11-2.23-.72-.06,11.23,0,15.33,0,1.11,0,4.41,0,8.86.08,0-.11,0-.19,0-.22q0-.88,0-1.62c-13.23-.2-26.49-.48-39.43-2-16.66-2.11-32.09-5.31-49.2-6.23-5.52-.21-11-.35-16.49-.37l-.94,0c-.1,1-.2,1.92-.19,2.24a1.38,1.38,0,0,0,.11.66c3.78,0,7.57,0,11.37,0,2.24,0,4.5.06,6.76.12,11.85.53,22.61,2.76,33.55,4.59-10.44-1.32-24.23-2.83-33.33-3l-3.61,0c-4.47,0-9.36-.12-14.42-.26a1.07,1.07,0,0,0-.16.14c-.3.32-.13,1.07.09,1.78q9.45.33,19,1c26.33,2.34,51.2,9.09,77.19,12.57,3,.4,6.11.73,9.19,1a8.91,8.91,0,0,0-.91-1.16c-3.39-.47-6.58-.92-9.08-1.31-2.73-.42-31.59-7.12-30.87-7,13.55,1.72,27.2,3.46,40.84,4.75l.07,0A12.49,12.49,0,0,0,107.87,83.5Z"/><path class="cls-12" d="M43.69,68.06q9.63.52,19.25,1.44c13.12,1.22,29.22,2.55,45,3-.39,3.73-2.92.21-3.66,2.46-6.42-.48-12.27-.74-13.07,0l16,1.37a5.53,5.53,0,0,1,.75,3.1c-21.44-1.83-42.71-5-64.24-7.22V70.74c10,.77,19.92,2,29.7,3.38-6.68-2.63-20.82-3.81-29.7-4.2Zm-41.6-.29c5.37-.16,10.76-.28,16.14-.38,8.41,0,16.92.2,25.46.67v1.86l-2.32-.09c-7.5-.23-15.09-.7-22.44-.43-1.52.07-3.86.07-4.93.57,1.61,0,3.23-.1,4.86-.13,8.19-.08,16.51.26,24.83.9v1.48c-8.15-.85-16.35-1.57-24.6-2q-8.6-.37-17.1-.5C2,69,2.08,68.33,2.09,67.77Z"/><path class="cls-9" d="M80.68,88.15c-.76-.05-1.53-.13-2.28-.22-8.13-1-16.18-2.32-24.16-3.7C46.88,83,39.56,81.62,32.18,80.39Q17.12,77.87,1.83,76.27c.12.74.5,1.65.56,2.11.12.92-.25.7,1.67.7.56,0,5.17,1.73,4.62,2,17.14,2.79,32.13,5.63,27.18,5-10.08-1.4-20.4-3.15-30.78-4.68C.73,82-2.42,83.9,4.85,86.9c2.25.92-1,.13-2.53,1.08-.92.58-1.23,2.71-.8,4.37,4.82.38,9.55.88,14.07,1.49.3,0-5.77-.34-13.79-.7a2,2,0,0,0,1.68,1.31l18.15.81H81.92c-7.27-.89-14.81-2.09-22-2.68,2.71.15,5.58.33,7.32.5,7.16.74,14.36,1.27,21.51,1.43-1.79-1.07-1.43-.6,1.6-.6a7.13,7.13,0,0,1,2.94.62c5,0,10-.16,15-.33a6.37,6.37,0,0,0-2.08-3.93c-6.1-.37-12.2-.78-18.3-1.29C85.61,88.75,83.07,88.42,80.68,88.15Z"/><path class="cls-13" d="M100.94,93.35l7.27.14a6.33,6.33,0,0,0-.93-1.94c-2.11-.06-4.23-.13-6.34-.22v2Zm0,2.06v-.49c2.4,0,4.79,0,7.18,0a1.57,1.57,0,0,1-1.54.66ZM2.74,85.9q11.42,1.06,22.85,2c.72.05-11.23.1-15.33.12L2.32,88h0a2.6,2.6,0,0,0-.91,1.83c13.24.13,26.49.33,39.44,1.77,9,1.08,17.58,2.49,26.28,3.68H87.38c.93,0,3.38.56,2.32-.14l-.44-.28c-11.78-.47-22.49-2.62-33.38-4.38,10.44,1.25,24.23,2.69,33.33,2.84,1.2,0,2.41,0,3.61,0,2.59,0,5.31,0,8.12,0v-2q-6.28-.26-12.59-.65c-26.33-2.2-51.2-8.8-77.19-12.12-3-.38-6-.69-9-1a5.89,5.89,0,0,1,.21.78c0,.12,0,.22,0,.3C6,79.15,9.35,79.61,12,80s31.59,6.94,30.87,6.86C29.16,85.2,15.4,83.53,1.64,82.31,1,82.65.58,83.06.53,83.53v.23c.07.61.73,1.33,2.21,2.14Zm98.2,9v.49l-7-.15a.78.78,0,0,0-.17-.34l2.44,0Z"/><path class="cls-10" d="M2.6,94.15c7.33.55,14.66.95,15.58.07L1.7,92.91a6.22,6.22,0,0,1-.3-3.06c16.93,1.34,33.76,3.51,50.7,5.41h-14L36,95l.8.29H21.63L3.48,94.45A1.63,1.63,0,0,1,2.6,94.15Z"/><path class="cls-2" d="M101.33,27.26c2-1.76,6-3.16,6-.74,0,1.83.73,4.09.26,5.85,1.37,1.6.1,2.48-.43,2.37-1.92,0-4.58-.11-7.58,0a15.16,15.16,0,0,0-3.44,0c-2.56.63-11.68-.24-11.61-.29.69-.59,5.11-3.65,4.64-3.63S88.58,30.1,101.33,27.26Z"/><path class="cls-2" d="M93.7,14.73c2.56-.46,5-1.05,7.52-1.6,2-1.76,6-3.16,6.06-.75,0,1.84.72,4.1.25,5.86l-.07-.07c0-.09-.08-.14-.08-.2-1.67,0-2.89-.85-4.51-1.3-.16-.05-.32-.08-.49-.12H92.24c-.15,0-.57.13-.37,0,.5-.42.5-.28-.07-.28-.15,0-.55.07-.62.31l-2.06.06c-.56,0-.06-1,.48-1.5l.93,0c.62,0,1.23-.07,1.85-.13C92.8,14.88,93.27,14.8,93.7,14.73Z"/><path class="cls-2" d="M93.88,6.83c2.59-.45,5.1-1,7.61-1.6,2.12-1.76,6.18-3.16,6.1-.74-.06,1.84.5,4.1-.07,5.86l-.07-.08c0-.08-.07-.13-.07-.19-1.67,0-2.84-.85-4.43-1.31l-.49-.11H92.32c-.15,0-.57.13-.37,0,.53-.43.52-.28,0-.28-.15,0-.56.07-.64.31l-2.07.06c-.55,0,0-1.05.58-1.5l.93,0c.61,0,1.23-.07,1.85-.13C93,7,93.45,6.91,93.88,6.83Z"/><path class="cls-2" d="M15.7,20.42c-1.61-.21-3.18-.45-4.74-.7v2.54c8,1.09,24.91,3.38,25.95,3v-.1h0c-.31,0-17.77-4.48-18.08-4.5q-.91,0-1.83-.09c-.41,0-.87-.09-1.29-.14ZM11,16.36a1.8,1.8,0,0,0,.25-2.22,3.43,3.43,0,0,1-.25-.51v2.73Zm0,10.47V25c1.42.21,2.85.41,4.29.58.45.05.94.11,1.37.14.64.05,1.26.08,1.88.09l.95,0c.66.31,1.45,1.06.89,1.05l-2.08-.05a1.16,1.16,0,0,0-.71-.21c-.57,0-.61-.1,0,.19.24.12-.21,0-.36,0H11Zm0-7.11L8.37,19.3C7.9,19,10,17.76,11,16.36V13.63C10.18,11.79,8.32,6,5.77,3.56,5,2.85,2.32,3,1.82,2.9c-.15,0,.25,1,.17,1.26-.42,1.57.15,7.26,0,7.27-.72.05.52,6.77.4,7.35-.27,1.29-1.23,2.87-1,4.09l.08-.05c0-.05.1-.09.11-.13,1.67,0,3-.6,4.67-.92l.5-.07,4.17.56V19.72ZM11,25v1.85H7.05l-.45.08c-1.51.32-2.49.92-4.16.92,0,0,0,.07,0,.13L2.36,28c-.47-.61.39-.54.23-1.25S1.27,24.56,1,23.92v-.49c.43-1,4.07-.07,6.27,1Z"/><path class="cls-2" d="M25.23,4c28.28,2.58,54.22,7.24,82.43,9a5.8,5.8,0,0,0,.3-2.19c0-3.83-.65-3.37-3.49-3.37-.55,0,3.06-2.47,3.06-3.51,0-5.32-10.76-2.42-14.14-2.42-29.67,0-57.19.12-87.27.26-.85,0-3.83-.31-4.25.68a.81.81,0,0,0,0,.81l4.39,0c3.73,0,7.46,0,11.18.13C19.91,3.53,22.68,3.77,25.23,4Z"/><path class="cls-3" d="M24.43,3.26c.76,0,1.51.07,2.25.14,8,.72,15.79,1.69,23.55,2.77,7.16,1,14.27,2.06,21.45,3q17.8,2.36,36.14,3.34a8.11,8.11,0,0,0,.14-1.67,16.09,16.09,0,0,0-.08-1.75C87,6.74,62.77,3,68.82,3.64c12.67,1.3,25.65,3.18,38.75,4.41-.44-.74-1.36-.57-3.1-.57-.55,0,3.06-2.47,3.06-3.51,0-5.32-10.76-2.42-14.14-2.42-29.67,0-57.19.12-87.27.26-.75,0-3.17-.24-4,.39,5.09.12,10.16.28,15.23.51C19.61,2.85,22.09,3.08,24.43,3.26Z"/><path class="cls-14" d="M107.3,2.76c-7.86-.44-15.73-.87-23.61-1.21-19,0-37.3.08-56.21.16,22,1.94,42.87,6.47,64.89,8.49,5.14.46,10.36.7,15.58.9a2,2,0,0,0,0-.25c0-.17,0-.33,0-.48-5.79-.53-12-1.12-16.17-1.59C89.12,8.47,61.28,3,62,3.08,76.47,4.3,91.05,5.54,105.71,6.19c.86-.76,1.82-1.68,1.82-2.22A3,3,0,0,0,107.3,2.76Z"/><path class="cls-2" d="M29.58,20.9c26.94,3.59,52.08,8.9,78.64,12.1-.5-2.16-3.37-5.3-6-5.3,0-.2,4.87-1,5.17-1.35s.53-5.44.53-5.79c0-4.14-.28-5.8-3.8-5.8.62-3.21,3.8,1.77,3.8-3.91,0-3.83-.65-3.37-3.49-3.37-.3,0,.63-.73,1.55-1.57a222.26,222.26,0,0,1-51-1.5c-6.86-1.08-13.87-2-20.9-2.72l-28,.12c-.85,0-3.83-.31-4.25.68a.82.82,0,0,0,.2,1.08c.62.86,3.13-.24,3,.54-2.35,1-3.86.34-3.12,1.72.46.85-.27,5.92-.26,6.76,0,1.68.91.33,4.44,1.9-1.61,0-3.48-.43-4.17.31-.51.53.34,2.33.44,3,.12.91-.25.69,1.67.69a11.25,11.25,0,0,1,2,.63l4.24.18c3.76.13,7.53.35,11.3.62C24.14,20.2,27,20.56,29.58,20.9Z"/><path class="cls-5" d="M28.67,20.14c.76.05,1.53.13,2.28.23,8.14,1.08,16.18,2.41,24.16,3.84,7.36,1.31,14.68,2.7,22.06,4q15.33,2.64,30.91,4.35a8.65,8.65,0,0,0-3.87-4.3c-18.54-3.06-36-6.46-30.72-5.71,9.9,1.43,20,3.2,30.23,4.77a23.48,23.48,0,0,0,3.71-.94c.39-.4.53-5.44.53-5.79a11.58,11.58,0,0,0-.46-4.19c-4.7-.4-9.32-.92-13.74-1.54-.3-.05,5.49.35,13.23.75a3.83,3.83,0,0,0-2.83-.82c.62-3.21,3.8,1.77,3.8-3.91,0-.47,0-.88,0-1.23C95.8,9.83,83,9.1,70.42,8.5c11.88-.05,25.18.86,37.45.55-.25-1.86-1.12-1.57-3.4-1.57-.26,0,.4-.54,1.17-1.23-4.1.28-8.25.48-12.41.59-8.36.21-16.9.08-25.46-.48C63,6.05,58.1,5.63,53.38,4.89,48.22,4.08,43,3.44,37.77,2.83q-5.12-.6-10.25-1.12l-21.4.1c-.85,0-3.83-.31-4.25.68a.82.82,0,0,0,.2,1.08c.62.86,3.13-.24,3,.54-2.35,1-3.86.34-3.12,1.72.34.62,0,3.5-.15,5.33,5.93.26,11.88.61,17.81,1,9.56.79,20,2.78,29.85,3.65-2.71-.17-5.58-.36-7.32-.55-7.4-.8-14.85-1.39-22.23-1.57-5.26-.06-10.46,0-15.63.13a11.26,11.26,0,0,1,1.85.65c-1.61,0-3.48-.43-4.17.31-.5.53.33,2.31.44,3q9.52.6,19.05,1.43C23.75,19.51,26.28,19.85,28.67,20.14Z"/><path class="cls-6" d="M107.9,12C81.36,12,54.11,6.84,26.74,6.11c-2.8-.07-5.6-.14-8.39-.18Q10.16,5.92,2,6a.73.73,0,0,0-.07-.21,1.68,1.68,0,0,1-.13-.28C9.55,5,14.62,4.72,14.43,4.7c-3.12-.22-6.25-.46-9.37-.7-.06-.3-.74-.17-1.45-.11L2.36,3.8a.92.92,0,0,1-.29-.23.82.82,0,0,1-.2-1.08c.42-1,3.4-.67,4.25-.68H9.27c2.61.19,5.21.4,7.81.61,5.29.47,10.56,1,15.84,1.56,24.74,2.6,48.35,4.32,71.5,3.47,0,0,0,0,0,0,2.28,0,3.15-.29,3.4,1.57-12.27.31-25.57-.6-37.45-.55,12.29.6,25.14,1.65,37.53,1.77,0,.18,0,.38,0,.58A9,9,0,0,1,107.9,12Z"/><path class="cls-12" d="M107.87,23c-8-.79-16.07-1.56-24.11-2.23-.72-.06,11.23,0,15.33,0,1.11,0,4.41,0,8.86.08,0-.11,0-.19,0-.22q0-.89,0-1.62c-13.23-.21-26.49-.48-39.43-2-16.66-2.11-32.09-5.31-49.2-6.23Q11,10.38,2.81,10.34H1.87c-.1,1-.2,1.93-.19,2.24a1.4,1.4,0,0,0,.11.67q5.67,0,11.37,0c2.24,0,4.5.06,6.76.13,11.85.52,22.61,2.75,33.55,4.58-10.44-1.31-24.23-2.82-33.33-3-1.2,0-2.41,0-3.61,0-4.47,0-9.36-.12-14.42-.26A1.07,1.07,0,0,0,2,14.8c-.3.31-.13,1.07.09,1.78q9.45.33,19,1c26.33,2.34,51.2,9.09,77.19,12.56,3,.41,6.11.73,9.19,1a8.91,8.91,0,0,0-.91-1.16c-3.39-.47-6.58-.92-9.08-1.31-2.73-.43-31.59-7.12-30.87-7,13.55,1.72,27.2,3.46,40.84,4.75,0,0,.06,0,.07,0A12.4,12.4,0,0,0,107.87,23Z"/><path class="cls-15" d="M43.69,7.51Q53.32,8.05,62.94,9c13.12,1.23,29.22,2.56,45,3-.39,3.73-2.92.2-3.66,2.46-6.42-.49-12.27-.74-13.07,0l16,1.36a5.56,5.56,0,0,1,.75,3.11c-21.44-1.83-42.71-5-64.24-7.22V10.2c10,.76,19.92,2,29.7,3.38-6.68-2.64-20.82-3.81-29.7-4.21ZM2.09,7.22C7.46,7.07,12.85,7,18.23,6.85c8.41,0,16.92.19,25.46.66V9.37l-2.32-.08c-7.5-.23-15.09-.7-22.44-.44-1.52.08-3.86.07-4.93.58l4.86-.14c8.19-.08,16.51.27,24.83.91v1.48c-8.15-.85-16.35-1.58-24.6-2Q10.5,9.27,2,9.13C2,8.46,2.08,7.79,2.09,7.22Z"/><path class="cls-9" d="M80.68,27.61c-.76-.05-1.53-.13-2.28-.22-8.13-1-16.18-2.32-24.16-3.7-7.36-1.27-14.68-2.62-22.06-3.85q-15.06-2.5-30.35-4.11c.12.74.5,1.65.56,2.11.12.91-1.49,3.11.37,2.54,2.53-.76,6.47-.11,5.92.14,17.14,2.79,32.13,5.63,27.18,5-10.08-1.39-20.4-3.14-30.78-4.68-4.35.65-7.5,2.56-.23,5.55,2.25.93-1,.14-2.53,1.08-.92.59-1.23,2.72-.8,4.38,4.82.38,9.55.87,14.07,1.48.3.05-5.77-.34-13.79-.7a2,2,0,0,0,1.68,1.32l18.15.8H81.92c-7.27-.88-14.81-2.08-22-2.67,2.71.15,5.58.32,7.32.5,7.16.74,14.36,1.27,21.51,1.43-1.79-1.07-1.43-.6,1.6-.6a7.13,7.13,0,0,1,2.94.62c5,0,10-.16,15-.33a6.42,6.42,0,0,0-2.08-3.94q-9.15-.54-18.3-1.28C85.61,28.2,83.07,27.88,80.68,27.61Z"/><path class="cls-12" d="M100.94,32.81l7.27.14a6.33,6.33,0,0,0-.93-1.94c-2.11-.06-4.23-.13-6.34-.22v2Zm0,2v-.48l7.18-.05a1.55,1.55,0,0,1-1.54.65Zm-98.2-9.5c7.61.7,15.23,1.38,22.85,2,.72.06-11.23.11-15.33.13l-7.94,0h0a2.65,2.65,0,0,0-.91,1.84c13.24.12,26.49.32,39.44,1.77,9,1.08,17.58,2.48,26.28,3.67H87.38c.93,0,3.38.57,2.32-.13l-.44-.28c-11.78-.47-22.49-2.63-33.38-4.39,10.44,1.26,24.23,2.69,33.33,2.85,1.2,0,2.41,0,3.61,0,2.59,0,5.31,0,8.12.05v-2q-6.28-.25-12.59-.66C62,27.94,37.15,21.34,11.16,18c-3-.37-6-.68-9-1a5.89,5.89,0,0,1,.21.78c0,.12,0,.21,0,.29,3.56.47,6.93.93,9.54,1.32s31.59,6.94,30.87,6.86C29.16,24.66,15.4,23,1.64,21.77,1,22.11.58,22.51.53,23v.23c.07.61.73,1.33,2.21,2.14Zm98.2,9v.48l-7-.15a.75.75,0,0,0-.17-.33h7.19Z"/><path class="cls-10" d="M2.6,33.61c7.33.55,14.66.94,15.58.07L1.7,32.37a6.22,6.22,0,0,1-.3-3.06c16.93,1.34,33.76,3.51,50.7,5.4h-14L36,34.43l.8.28H21.63l-18.15-.8A1.72,1.72,0,0,1,2.6,33.61Z"/></g></g></svg>