<svg width="112" height="130" viewBox="0 0 112 130" fill="none" xmlns="http://www.w3.org/2000/svg">
<g clip-path="url(#clip0)">
<path opacity="0.3" d="M80.6252 39C80.6252 46.4635 69.3916 52.4894 55.5561 52.4588C41.7206 52.4282 30.6094 46.3717 30.6094 38.9388C30.6094 31.5059 41.843 25.4494 55.6785 25.48C69.514 25.5106 80.6558 31.567 80.6252 39Z" fill="url(#paint0_linear)"/>
<path d="M111.816 74.0236C111.822 85.0454 108.556 95.8213 102.431 104.987C96.3055 114.153 87.5969 121.297 77.4069 125.515C67.217 129.733 56.0039 130.835 45.1869 128.682C34.3699 126.529 24.4354 121.217 16.6406 113.419C8.84586 105.621 3.54137 95.6877 1.39853 84.8758C-0.744301 74.064 0.370856 62.8599 4.60286 52.6816C8.83486 42.5034 15.9934 33.8086 25.1725 27.6978C34.3516 21.587 45.1386 18.3348 56.1681 18.353C70.9275 18.3854 85.0722 24.263 95.503 34.698C105.934 45.133 111.8 59.2744 111.816 74.0236Z" fill="#F6AE28"/>
<path style="mix-blend-mode:multiply" d="M112 74.4212C111.982 85.4318 108.697 96.1897 102.56 105.335C96.4237 114.479 87.7113 121.601 77.5249 125.797C67.3384 129.994 56.1353 131.078 45.3324 128.912C34.5294 126.746 24.6118 121.428 16.8335 113.63C9.05532 105.831 3.76591 95.9027 1.63417 85.1002C-0.49757 74.2976 0.624114 63.106 4.85738 52.9405C9.09064 42.775 16.2453 34.0922 25.4167 27.9901C34.5881 21.888 45.3643 18.6408 56.3825 18.6589C63.6995 18.6669 70.9432 20.1161 77.6993 22.9235C84.4555 25.7309 90.5917 29.8415 95.757 35.0203C100.922 40.1992 105.016 46.3446 107.803 53.1053C110.59 59.866 112.016 67.1093 112 74.4212Z" fill="url(#paint1_linear)"/>
<path style="mix-blend-mode:multiply" d="M107.96 69.8636C107.929 100.605 84.5131 125.412 55.6484 125.412C26.7837 125.412 3.6123 100.391 3.6123 69.6189C3.6123 38.8471 26.9979 14.0706 55.832 14.1012C84.6661 14.1318 108.021 39.0918 107.96 69.8636Z" fill="url(#paint2_linear)"/>
<path d="M111.418 65.6424C111.4 76.653 108.115 87.4109 101.979 96.5558C95.8421 105.701 87.1298 112.822 76.9433 117.019C66.7569 121.215 55.5538 122.299 44.7508 120.133C33.9479 117.968 24.0302 112.649 16.252 104.851C8.47378 97.0522 3.18436 87.1239 1.05263 76.3214C-1.07911 65.5188 0.042571 54.3272 4.27583 44.1617C8.5091 33.9962 15.6638 25.3134 24.8352 19.2113C34.0066 13.1092 44.7828 9.86195 55.801 9.88008C63.118 9.8881 70.3616 11.3372 77.1178 14.1447C83.8739 16.9521 90.0101 21.0627 95.1755 26.2415C100.341 31.4203 104.434 37.5658 107.221 44.3265C110.008 51.0872 111.434 58.3305 111.418 65.6424Z" fill="url(#paint3_linear)"/>
<path style="mix-blend-mode:screen" d="M108.847 64.6637C108.835 75.1674 105.706 85.4315 99.8553 94.1579C94.005 102.884 85.6963 109.681 75.9802 113.688C66.2641 117.695 55.577 118.732 45.2708 116.669C34.9646 114.606 25.5022 109.534 18.0805 102.096C10.6588 94.6585 5.61124 85.1881 3.57624 74.8831C1.54124 64.5782 2.61022 53.9016 6.64799 44.2038C10.6858 34.506 17.5109 26.2227 26.2601 20.4016C35.0094 14.5805 45.2896 11.4832 55.8006 11.5013C62.7774 11.5093 69.6842 12.891 76.1264 15.5674C82.5686 18.2438 88.42 22.1624 93.3462 27.0994C98.2724 32.0364 102.177 37.8949 104.836 44.3404C107.496 50.7858 108.859 57.6917 108.847 64.6637Z" fill="url(#paint4_linear)"/>
<path d="M101.501 64.0213C101.501 73.0959 98.8084 81.9668 93.7633 89.5121C88.7182 97.0574 81.5474 102.938 73.1576 106.411C64.7679 109.884 55.5361 110.792 46.6296 109.022C37.7232 107.252 29.542 102.882 23.1208 96.465C16.6996 90.0482 12.3267 81.8728 10.5551 72.9725C8.78349 64.0722 9.69275 54.8468 13.1679 46.4629C16.643 38.0789 22.528 30.9131 30.0785 25.8715C37.6291 20.8299 46.5061 18.1389 55.5871 18.1389C61.6166 18.1389 67.5871 19.3257 73.1576 21.6315C78.7282 23.9373 83.7898 27.317 88.0533 31.5775C92.3168 35.8381 95.6988 40.8961 98.0062 46.4629C100.314 52.0296 101.501 57.9959 101.501 64.0213Z" fill="url(#paint5_linear)"/>
<path d="M97.7666 64.5414C97.7545 72.9506 95.2473 81.1673 90.5621 88.1526C85.8769 95.1378 79.2241 100.578 71.445 103.785C63.6659 106.992 55.1099 107.821 46.8589 106.169C38.608 104.516 31.0326 100.456 25.0909 94.5014C19.1491 88.5467 15.1078 80.9649 13.478 72.715C11.8482 64.465 12.7031 55.9173 15.9346 48.1529C19.166 40.3884 24.6289 33.7559 31.6325 29.0941C38.6361 24.4323 46.8657 21.9505 55.2807 21.9626C60.8681 21.9706 66.3991 23.0783 71.5581 25.2224C76.7171 27.3666 81.403 30.5051 85.3482 34.4589C89.2933 38.4128 92.4206 43.1044 94.5514 48.2659C96.6821 53.4275 97.7747 58.9579 97.7666 64.5414Z" fill="url(#paint6_linear)"/>
<path opacity="0.5" d="M24.4873 107.365C32.764 114.156 43.1328 117.883 53.8418 117.918C78.8497 117.918 87.8795 106.937 87.8795 106.937C87.8795 106.937 56.9639 121.435 24.4873 107.365Z" fill="white"/>
<path opacity="0.7" d="M55.3724 30.0379C67.7692 30.0379 78.0234 34.9014 80.0742 41.2638C80.2857 40.516 80.4089 39.746 80.4415 38.9696C80.4415 31.5061 69.2385 25.4496 55.403 25.4191C41.5675 25.3885 30.3338 31.5367 30.3032 38.8779C30.3156 39.6562 30.4393 40.4287 30.6705 41.172C32.7214 34.8402 43.0061 30.0379 55.3724 30.0379Z" fill="url(#paint7_linear)"/>
<path opacity="0.5" d="M87.0224 21.9319C78.7401 15.1299 68.3577 11.4014 57.6373 11.3789C32.6294 11.3177 23.5996 22.3295 23.5996 22.3295C23.5996 22.3295 54.607 7.83068 87.0224 21.9319Z" fill="white"/>
<path d="M65.8719 44.2308V91.0308H48.4857V60.4426L38.4458 63.6238V48.9414L49.8019 44.2614L65.8719 44.2308Z" fill="url(#paint8_linear)"/>
<path d="M65.8719 42.579V89.379H48.4857V58.6072L38.4458 61.9719V47.259L49.8019 42.579H65.8719Z" fill="url(#paint9_linear)"/>
</g>
<defs>
<linearGradient id="paint0_linear" x1="55.5597" y1="52.578" x2="55.5963" y2="29.2392" gradientUnits="userSpaceOnUse">
<stop stop-color="#FFCD25"/>
<stop offset="0.99" stop-color="white"/>
</linearGradient>
<linearGradient id="paint1_linear" x1="55.5696" y1="124.124" x2="56.8752" y2="32.3918" gradientUnits="userSpaceOnUse">
<stop stop-color="#FFAC1C"/>
<stop offset="1" stop-color="#F9D445"/>
</linearGradient>
<linearGradient id="paint2_linear" x1="109533" y1="7946.1" x2="109578" y2="4607.96" gradientUnits="userSpaceOnUse">
<stop stop-color="#FFAC1C"/>
<stop offset="1" stop-color="#F9D445"/>
</linearGradient>
<linearGradient id="paint3_linear" x1="116950" y1="7790.4" x2="116993" y2="4451.28" gradientUnits="userSpaceOnUse">
<stop stop-color="#FFAC1C"/>
<stop offset="1" stop-color="#F9D445"/>
</linearGradient>
<linearGradient id="paint4_linear" x1="55.0373" y1="112.071" x2="56.275" y2="24.5909" gradientUnits="userSpaceOnUse">
<stop stop-color="#FFAC1C"/>
<stop offset="0.99" stop-color="#F9D477"/>
</linearGradient>
<linearGradient id="paint5_linear" x1="54.9878" y1="105.036" x2="56.0541" y2="29.4235" gradientUnits="userSpaceOnUse">
<stop stop-color="#FFAC1C"/>
<stop offset="0.95" stop-color="#FF6100"/>
</linearGradient>
<linearGradient id="paint6_linear" x1="89322.6" y1="5608.78" x2="89347.2" y2="3661.47" gradientUnits="userSpaceOnUse">
<stop stop-color="#FFAC1C"/>
<stop offset="1" stop-color="#F9D445"/>
</linearGradient>
<linearGradient id="paint7_linear" x1="52662" y1="749.527" x2="52662" y2="678.701" gradientUnits="userSpaceOnUse">
<stop stop-color="#FFCD25"/>
<stop offset="0.99" stop-color="white"/>
</linearGradient>
<linearGradient id="paint8_linear" x1="670.343" y1="1584.89" x2="245.011" y2="966.732" gradientUnits="userSpaceOnUse">
<stop stop-color="#FFAC1C"/>
<stop offset="0.99" stop-color="#F9D477"/>
</linearGradient>
<linearGradient id="paint9_linear" x1="45.9145" y1="32.179" x2="67.5892" y2="101.99" gradientUnits="userSpaceOnUse">
<stop stop-color="#F15A24"/>
<stop offset="0.3" stop-color="#F15A24"/>
<stop offset="1" stop-color="#F59835"/>
</linearGradient>
<clipPath id="clip0">
<rect width="112" height="130" fill="white"/>
</clipPath>
</defs>
</svg>
