<svg xmlns="http://www.w3.org/2000/svg" viewBox="0 0 28.14 11.27"><defs><style>.cls-1{fill:#96401b;}.cls-1,.cls-2{fill-rule:evenodd;}.cls-2{fill:#cf712e;}</style></defs><g id="레이어_2" data-name="레이어 2"><g id="Layer_1" data-name="Layer 1"><path class="cls-1" d="M1.49,0H26.65a1.63,1.63,0,0,1,1.49,1.74V9.52a1.64,1.64,0,0,1-1.49,1.75H1.49A1.64,1.64,0,0,1,0,9.52V1.74A1.63,1.63,0,0,1,1.49,0Z"/><path class="cls-2" d="M1.9.51H26.67a1.58,1.58,0,0,1,1.47,1.67V9.6a1.58,1.58,0,0,1-1.47,1.67H1.9A1.58,1.58,0,0,1,.44,9.6V2.18A1.58,1.58,0,0,1,1.9.51Z"/></g></g></svg>