<svg width="186" height="129" viewBox="0 0 186 129" fill="none" xmlns="http://www.w3.org/2000/svg">
<path fill-rule="evenodd" clip-rule="evenodd" d="M179.317 127.826C178.591 128.586 177.847 129 177.064 129H8.93625C8.45711 128.951 8.00155 128.819 7.60897 128.614C7.21639 128.41 6.89861 128.139 6.68309 127.826C2.86418 126.348 0 121.968 0 116.774V11.5213C0 5.18045 4.29627 0 9.54727 0H176.434C181.685 0 185.981 5.18045 185.981 11.5213V116.843C186 121.968 183.174 126.334 179.317 127.826Z" fill="#A43E1A"/>
<path fill-rule="evenodd" clip-rule="evenodd" d="M175.67 126.803C175.476 127.062 175.204 127.284 174.873 127.455C174.542 127.625 174.161 127.737 173.76 127.784H12.2587C11.4949 127.784 10.7693 127.384 10.0819 126.624C6.263 125.242 3.60886 120.96 3.60886 115.987V15.5551C3.60886 9.42149 7.75237 4.39301 12.8124 4.39301H173.531C178.591 4.39301 182.735 9.42149 182.735 15.5551V116.042C182.735 121.195 179.756 125.602 175.67 126.803Z" fill="#BE5722"/>
</svg>
