<svg width="195" height="164" viewBox="0 0 195 164" fill="none" xmlns="http://www.w3.org/2000/svg">
<path fill-rule="evenodd" clip-rule="evenodd" d="M-1.04648 172.707C-1.19595 172.574 -1.32788 172.423 -1.43904 172.257C-1.94089 171.326 -2.18003 170.276 -2.13069 169.219C-2.13069 168.225 -1.99984 166.987 -1.92507 165.994C-1.81291 164.418 -1.68205 162.824 -1.5699 161.231C-1.36513 159.011 -1.32764 156.78 -1.45774 154.555C-1.97812 153.503 -2.11057 152.301 -1.8316 151.161C-1.69533 150.626 -1.37816 150.155 -0.934322 149.829C-0.994841 149.755 -1.04514 149.673 -1.08387 149.585L-1.30819 149.267C-1.69383 148.623 -1.92348 147.897 -1.97867 147.148C-2.03386 146.399 -1.91306 145.647 -1.62598 144.954C-0.448296 141.391 5.02885 142.403 7.19727 142.385C60.6228 142.047 114.048 141.841 167.474 141.766C169.157 141.696 170.832 141.495 172.484 141.166C174.745 140.791 177.026 140.416 179.307 140.172C183.045 139.797 189.868 140.172 192.542 143.51C194.482 145.7 195.477 148.573 195.308 151.498C195.495 155.249 195.308 161.512 195.308 165.15V187.652C195.308 189.884 195.196 192.34 195.084 194.553C194.803 200.047 196.43 217.337 195.626 219.981C195.429 220.877 194.911 221.67 194.17 222.21C193.43 222.749 192.518 222.997 191.607 222.906C181.288 222.625 165.062 223.581 158.295 222.512C157.678 222.395 157.054 222.319 156.426 222.287H35.7046L2.3557 220.412C-1.12126 220.225 -2.35501 217.824 -2.46717 213.268C-2.46717 209.517 -4.09349 194.065 -4.00003 192.94C-3.30837 185.271 -1.62597 184.839 -2.13069 184.014C-2.63541 183.189 -0.747389 182.552 -0.840855 181.689C-0.934322 180.826 -1.30819 179.664 -1.47643 178.933C-1.90637 177.057 -2.3924 174.413 -1.23342 172.894C-1.13995 172.801 -1.08387 172.763 -1.04648 172.707Z" fill="#813914"/>
<path fill-rule="evenodd" clip-rule="evenodd" d="M-1.0467 32.6485C-1.19617 32.516 -1.3281 32.3647 -1.43926 32.1985C-1.9411 31.2679 -2.18025 30.2175 -2.13091 29.1607C-2.13091 28.1668 -2.00006 26.9292 -1.92529 25.9353C-1.81313 24.3414 -1.68227 22.7662 -1.57011 21.1723C-1.36535 18.953 -1.32786 16.7214 -1.45795 14.4965C-1.97834 13.445 -2.11078 12.2425 -1.83182 11.1024C-1.69554 10.5677 -1.37838 10.0971 -0.93454 9.77098L-1.08409 9.5272L-1.30841 9.20841C-1.69404 8.56457 -1.92369 7.83893 -1.97889 7.08985C-2.03408 6.34077 -1.91328 5.58915 -1.62619 4.89543C-0.411127 1.33253 5.06602 2.32639 7.21575 2.32639C60.6537 2.02636 114.085 1.81383 167.511 1.68882C169.193 1.62488 170.868 1.43053 172.521 1.10751C174.783 0.732463 177.063 0.357421 179.344 0.113644C183.083 -0.261398 189.906 0.113644 192.579 3.45152C193.541 4.53491 194.281 5.79824 194.756 7.16907C195.231 8.5399 195.431 9.99125 195.345 11.4399C195.532 15.1903 195.345 21.4535 195.345 25.0914V47.594C195.345 49.8255 195.233 52.2632 195.121 54.4947C194.841 59.9704 196.467 77.2785 195.663 79.9226C195.466 80.8191 194.948 81.6121 194.208 82.1512C193.467 82.6904 192.555 82.9383 191.644 82.8479C181.325 82.5666 165.1 83.523 158.333 82.4541C157.715 82.3364 157.091 82.2612 156.463 82.2291H35.7044L2.35548 80.3539C-1.12147 80.1289 -2.4487 74.7845 -2.56086 70.209C-2.56086 68.3338 -1.3271 65.5772 -1.71966 61.0017C-2.11222 56.4262 -4.00024 57.2325 -4.00024 52.8446C-3.79462 50.6318 -1.8879 49.788 -1.75705 48.119C-1.51403 45.0249 -0.616753 42.9434 -0.7663 41.5933C-0.7663 40.8807 -1.23363 39.5681 -1.40187 38.8367C-1.83182 36.9615 -2.31785 34.3175 -1.15886 32.7798L-1.0467 32.6485Z" fill="#813914"/>
<path fill-rule="evenodd" clip-rule="evenodd" d="M195.046 119.62C195.193 119.72 195.32 119.847 195.42 119.995C195.916 120.749 196.152 121.644 196.093 122.545C196.093 123.389 195.962 124.42 195.888 125.245C195.757 126.577 195.645 127.908 195.532 129.239C195.328 131.108 195.29 132.99 195.42 134.865C195.666 135.292 195.826 135.764 195.89 136.253C195.954 136.742 195.922 137.239 195.794 137.715C195.635 138.184 195.318 138.582 194.897 138.841C194.957 138.901 195.008 138.971 195.046 139.047L195.271 139.309C195.652 139.824 195.884 140.435 195.94 141.074C195.996 141.713 195.874 142.355 195.589 142.928C194.411 145.929 188.934 145.085 186.765 145.085C133.34 145.36 79.9143 145.535 26.4888 145.61C24.8095 145.667 23.1359 145.836 21.479 146.116C19.2171 146.416 16.9365 146.735 14.6559 146.941C10.9172 147.26 4.09418 146.941 1.42104 144.147C0.492736 143.304 -0.237062 142.264 -0.715545 141.103C-1.19403 139.942 -1.40923 138.689 -1.34557 137.434C-1.53251 134.265 -1.34557 129.014 -1.34557 125.958V107.093C-1.34557 105.218 -1.23341 103.155 -1.12125 101.28C-0.859546 96.6858 -2.48586 82.1529 -1.66336 79.9214C-1.37542 79.112 -0.819105 78.4263 -0.0874975 77.9792C0.64411 77.532 1.50662 77.3504 2.3557 77.4649C12.6744 77.6899 28.9002 76.9023 35.6672 77.8024C36.2864 77.8992 36.9105 77.9618 37.5365 77.99H158.295L191.644 79.5651C195.121 79.7339 196.355 81.7404 196.448 85.5658C196.448 88.7537 198.093 101.693 198 102.649C197.308 109.1 195.626 109.437 196.131 110.15C196.635 110.862 194.747 111.387 194.841 112.119C195.009 112.899 195.221 113.669 195.476 114.425C195.906 116.019 196.374 118.176 195.233 119.507L195.046 119.62Z" fill="#813914"/>
<path fill-rule="evenodd" clip-rule="evenodd" d="M11.9267 94.0605C8.18802 97.4734 0.897629 100.192 0.804162 95.5044C0.804162 94.4918 2.67349 95.7295 2.52395 94.6418C2.18747 91.8853 -0.261357 86.5784 0.336829 84.1219C-2.18677 81.009 0.149896 79.3026 1.10326 79.5089C4.63629 79.5089 9.53394 79.7339 15.0485 79.5089C17.086 79.5089 19.1797 80.1652 21.3668 79.5089C26.0588 78.2712 42.7894 79.9589 42.6772 80.0714C41.406 81.2153 33.3305 87.1597 34.153 87.1222C34.9755 87.0847 35.256 88.5286 11.9267 94.0605Z" fill="#A54A16"/>
<path fill-rule="evenodd" clip-rule="evenodd" d="M25.9093 118.42C21.1986 119.301 16.5626 120.445 12.0949 121.514C8.35626 124.945 1.08456 127.664 0.972402 122.976C0.972402 119.395 -0.354824 115.007 0.505069 111.594L0.635922 111.725C0.635922 111.894 0.785468 111.988 0.785468 112.1C3.85117 112.1 6.07568 113.769 9.06661 114.65L9.96389 114.875H28.6572C28.9376 114.875 29.704 114.613 29.3489 114.875C28.4142 115.7 28.4329 115.419 29.461 115.419C29.7601 115.419 30.4892 115.288 30.6013 114.819L34.34 114.688C35.3494 114.688 34.4521 116.732 33.4427 117.613H31.7416C30.62 117.613 29.4797 117.744 28.3394 117.857L25.9093 118.42Z" fill="#A54A16"/>
<path fill-rule="evenodd" clip-rule="evenodd" d="M25.5915 133.759C20.8434 134.64 16.2448 135.784 11.6089 136.872C7.72067 140.284 0.280733 143.003 0.392893 138.315C0.505053 134.753 -0.523079 130.346 0.523746 126.933L0.6546 127.083C0.6546 127.233 0.785453 127.345 0.785453 127.458C3.85116 127.458 6.00089 129.108 8.93574 129.99C9.21614 130.083 9.51523 130.14 9.81433 130.215H28.5076C28.788 130.215 29.5732 129.952 29.1993 130.215C28.2272 131.04 28.2459 130.758 29.2928 130.758C29.5732 130.758 30.3209 130.627 30.4517 130.158L34.1904 130.027C35.1999 130.027 34.1904 132.09 33.1249 132.952L31.5173 133.14C30.377 133.14 29.2554 133.271 28.1151 133.402C27.2552 133.459 26.3953 133.609 25.5915 133.759Z" fill="#A54A16"/>
<path fill-rule="evenodd" clip-rule="evenodd" d="M177.867 108.762L182.615 109.569C183.494 110.206 179.737 112.569 177.867 115.307V120.614C179.307 124.176 182.709 135.39 187.401 140.191C188.747 141.56 193.738 141.278 194.654 141.466C194.934 141.466 194.205 139.591 194.336 139.009C195.121 135.953 194.074 124.889 194.336 124.87C195.645 124.87 193.364 111.744 193.588 110.6C194.074 108.087 195.85 104.974 195.458 102.63L195.308 102.743C195.308 102.855 195.14 102.93 195.121 103.005C192.056 103.005 189.625 104.149 186.541 104.768C186.242 104.768 185.924 104.88 185.625 104.937C185.326 104.993 182.503 104.487 177.961 103.83V108.762H177.867ZM196.112 100.68V101.561C195.327 103.437 188.635 101.693 184.597 99.5924L177.867 98.5423V94.8856H185.046L185.887 94.7356C188.635 94.1168 190.448 92.8604 193.514 92.8604C193.514 92.8604 193.514 92.7104 193.514 92.5979C195.252 94.9794 195.103 98.0547 195.944 100.549L196.112 100.68ZM169.175 107.356C172.128 107.75 175.007 108.218 177.867 108.706V103.774C163.137 101.655 132.106 97.2109 130.218 97.9422V98.1485C130.779 98.1485 162.838 106.868 163.417 106.887C164.539 106.887 165.661 106.887 166.782 107.074C167.53 107.074 168.371 107.243 169.156 107.356H169.175ZM177.867 115.25C177.338 115.824 177.009 116.555 176.928 117.332C176.847 118.109 177.019 118.892 177.419 119.563C177.594 119.882 177.744 120.215 177.867 120.557V115.25ZM177.867 94.8856V98.486C175.269 98.0735 172.652 97.6984 169.997 97.3609L167.474 97.0796C166.315 97.0796 165.156 96.9296 164.016 96.9109H162.277C161.062 96.3108 159.623 94.8481 160.651 94.8669L164.389 94.9606C164.764 95.2471 165.227 95.3931 165.698 95.3732C166.726 95.3732 166.82 95.5795 165.698 94.9981C165.268 94.7919 166.09 94.9981 166.352 94.9981H177.811L177.867 94.8856Z" fill="#A54A16"/>
<path fill-rule="evenodd" clip-rule="evenodd" d="M151.659 139.272C99.7292 134.265 52.0799 125.208 0.280746 121.701C-0.1491 123.077 -0.332637 124.518 -0.26136 125.958C-0.26136 133.459 0.935013 132.502 6.13175 132.502C7.15989 132.502 0.52376 137.303 0.52376 139.328C0.52376 149.679 20.2826 144.035 26.4888 144.035C80.9798 144.035 131.508 143.791 186.765 143.51C188.317 143.51 193.794 144.129 194.56 142.197C194.695 141.96 194.765 141.692 194.765 141.419C194.765 141.146 194.695 140.878 194.56 140.641C191.887 140.641 189.214 140.641 186.504 140.641C179.662 140.641 172.801 140.641 165.941 140.397C161.436 140.191 156.351 139.722 151.659 139.272Z" fill="#A54A16"/>
<path fill-rule="evenodd" clip-rule="evenodd" d="M153.117 140.641C151.753 140.641 150.369 140.51 149.005 140.378C134.331 139.047 119.993 137.134 105.748 135.015C92.6631 133.14 79.5778 131.002 66.3616 129.164C44.5652 126.102 22.4448 123.939 0.000342786 122.676C-0.197868 123.758 -0.285557 124.858 -0.261364 125.958C-0.272312 127.104 -0.222393 128.249 -0.111817 129.39C38.2282 133.965 82.7183 141.185 71.6144 140.003C48.3413 137.453 24.526 133.796 0.448982 131.377C1.27149 132.84 2.95389 132.502 6.05698 132.502C7.08511 132.502 0.448982 137.303 0.448982 139.328C0.448982 149.679 20.2078 144.035 26.414 144.035C80.905 144.035 131.433 143.791 186.691 143.51C188.055 143.51 192.504 143.997 194.037 142.76C184.703 142.535 175.356 142.21 165.997 141.785C161.978 141.485 157.435 141.053 153.117 140.641Z" fill="#B35516"/>
<path d="M0.953742 141.672C15.385 142.535 29.8349 143.36 44.3036 144.035C79.1853 144.035 112.815 143.866 147.528 143.716C107.076 139.966 68.8105 131.133 28.3768 127.214C18.918 126.333 9.34704 125.845 -0.261324 125.452C-0.270639 125.62 -0.270639 125.789 -0.261324 125.958C-0.261324 126.277 -0.261324 126.595 -0.261324 126.877C10.3752 127.908 21.7407 129.052 29.4237 129.971C34.3213 130.571 85.5036 141.222 84.1577 141.053C57.5758 138.766 30.7883 136.272 3.8699 135.015C2.29966 136.497 0.523796 138.278 0.523796 139.328C0.509433 140.13 0.655632 140.927 0.953742 141.672Z" fill="#DE9829"/>
<path fill-rule="evenodd" clip-rule="evenodd" d="M143.677 106.418C94.2147 99.3861 48.0235 89.1287 -0.728668 82.903C0.168611 87.1035 5.44013 93.198 10.2069 93.198C10.2069 93.5917 1.27152 95.2044 0.710717 95.8232C0.149918 96.4421 -0.261335 106.399 -0.261335 107.093C-0.261335 115.119 0.243384 118.345 6.71127 118.345C5.57098 124.589 -0.261335 114.913 -0.261335 125.958C-0.261335 133.459 0.935037 132.502 6.13178 132.502C6.69258 132.502 4.97279 133.928 3.30909 135.54C34.524 132.72 65.9645 133.702 96.9439 138.466C109.543 140.566 122.404 142.216 135.321 143.772L186.821 143.51C188.373 143.51 193.85 144.129 194.617 142.197C194.812 141.859 194.882 141.463 194.813 141.078C194.745 140.694 194.543 140.346 194.243 140.097C193.121 138.428 188.504 140.566 188.766 139.066C193.084 137.19 195.85 138.391 194.486 135.709C193.644 134.059 194.99 124.195 194.972 122.582C194.972 119.32 193.308 121.945 186.821 118.832C189.775 118.832 193.196 119.676 194.486 118.251C195.402 117.201 193.85 113.713 193.663 112.325C193.439 110.45 194.112 110.975 190.597 110.975C189.311 110.704 188.058 110.295 186.859 109.756L179.064 109.419C172.166 109.175 165.231 108.743 158.314 108.2C153.659 107.787 148.463 107.075 143.677 106.418Z" fill="#A54A16"/>
<path fill-rule="evenodd" clip-rule="evenodd" d="M145.341 107.9C143.939 107.787 142.537 107.637 141.154 107.45C126.199 105.349 111.45 102.761 96.7944 99.9487C83.2791 97.5109 69.8386 94.7356 56.2673 92.2603C37.5739 88.8474 18.6563 86.0346 -0.485657 83.8219C0.877097 87.3318 3.3797 90.2783 6.6178 92.1853C40.677 98.1297 72.7361 104.712 63.0342 103.268C44.8456 100.492 26.2458 97.0421 7.51508 93.8917C5.19892 94.3259 2.9229 94.9531 0.710716 95.767C0.000369579 96.5358 -0.261337 106.343 -0.261337 107.018C-0.449561 109.759 -0.164989 112.513 0.579863 115.157C9.21618 115.925 17.7029 116.938 25.8158 118.138C26.358 118.232 15.7401 117.463 1.51453 116.694C2.2266 117.301 3.05546 117.753 3.94952 118.024C4.84357 118.295 5.78367 118.379 6.71127 118.269C5.57098 124.589 -0.261337 114.913 -0.261337 125.958C-0.261337 126.877 -0.261337 127.664 -0.261337 128.358C22.1706 127.946 45.6495 129.389 68.6796 130.515C46.8645 130.608 22.4324 128.846 -0.0930972 129.446C0.374236 133.065 1.96317 132.502 6.13178 132.502C6.61781 132.502 5.42143 133.552 4.00074 134.884C11.4781 134.334 19.0738 133.959 26.7879 133.759C42.1351 133.346 57.8188 133.59 73.5212 134.678C82.3258 135.278 91.2799 136.103 99.9536 137.547C109.431 139.103 119.039 140.359 128.629 141.541C134.923 142.316 141.185 143.041 147.416 143.716L186.672 143.51C188.223 143.51 193.701 144.129 194.467 142.197C194.663 141.859 194.732 141.463 194.664 141.078C194.595 140.694 194.393 140.346 194.093 140.097C192.972 138.428 188.354 140.566 188.616 139.066C192.934 137.19 195.701 138.39 194.336 135.709C193.719 134.49 194.336 128.921 194.617 125.358C183.718 124.851 172.801 124.158 161.903 123.37C144.444 121.889 125.264 117.951 107.188 116.263C112.179 116.582 117.432 116.957 120.628 117.313C134.218 118.888 147.902 120.013 161.455 120.37C171.119 120.501 180.653 120.37 190.149 120.107C188.983 119.8 187.85 119.379 186.765 118.851C189.719 118.851 193.14 119.695 194.43 118.269C195.346 117.219 193.813 113.769 193.607 112.363C181.961 111.594 170.297 110.637 158.632 109.606C154.389 109.118 149.734 108.443 145.341 107.9Z" fill="#C37025"/>
<path d="M-0.149199 123.764C48.5843 123.764 98.6263 133.74 148.893 135.165C154.033 135.296 159.174 135.446 164.296 135.521C174.34 135.521 184.31 135.446 194.205 135.296C194.233 135.439 194.277 135.577 194.336 135.709C194.43 135.884 194.511 136.066 194.579 136.253C180.353 137.247 171.063 137.865 171.399 137.903C177.138 138.334 182.877 138.803 188.616 139.253C188.728 139.834 189.962 139.591 191.27 139.478L193.57 139.666C193.779 139.761 193.959 139.91 194.093 140.097C194.393 140.346 194.595 140.694 194.664 141.078C194.732 141.463 194.663 141.859 194.467 142.197C193.701 144.072 188.223 143.51 186.672 143.51H180.877C176.091 143.135 171.306 142.722 166.539 142.328C156.819 141.41 147.154 140.453 137.452 139.291C92.0089 134.246 48.6591 130.89 6.15045 132.54C6.15045 132.54 6.15045 132.54 6.03829 132.54C1.86968 132.54 0.280747 133.102 -0.186586 129.483C22.3389 128.883 46.771 130.646 68.5861 130.552C46.1168 129.389 22.5071 127.308 -0.261359 127.064C-0.261359 126.727 -0.261359 126.352 -0.261359 125.958C-0.267267 125.225 -0.229815 124.492 -0.149199 123.764Z" fill="#D68821"/>
<path d="M-0.0931128 102.424C14.6559 103.962 29.4049 105.443 44.1727 106.756C45.4999 106.868 23.61 106.756 16.0205 106.756C13.983 106.756 7.92632 106.756 -0.242659 106.606C-0.242659 106.812 -0.242659 106.962 -0.242659 107.037C-0.255121 108.187 -0.261353 109.256 -0.261353 110.244C24.04 110.637 48.3413 111.162 72.1379 114.125C102.814 118.138 131.134 124.439 162.557 126.22C172.689 126.652 182.802 126.914 192.841 126.952H194.56C194.747 124.926 194.934 123.201 194.916 122.601C194.95 122.16 194.88 121.716 194.71 121.307C187.781 121.307 180.821 121.307 173.83 121.307C169.717 121.307 165.567 121.195 161.417 121.064C139.658 120.051 119.899 115.719 99.7292 112.156C118.909 114.707 144.219 117.651 160.931 118.063H167.567C175.792 118.063 184.746 118.288 194.037 118.569L194.355 118.307C194.897 117.688 194.579 116.207 194.187 114.838C182.597 114.413 170.988 113.788 159.361 112.963C111.02 108.406 65.3335 95.2981 17.6095 88.5849C12.0015 87.7973 6.39347 87.1597 0.785473 86.5972C1.28823 87.3844 1.8441 88.1363 2.44918 88.8474C8.67405 89.7475 14.5438 90.7226 19.1236 91.3977C24.1334 92.2228 77.0729 105.218 75.8205 105.068C50.9583 101.618 25.9093 98.2422 0.82286 95.7294C0.82286 95.7294 0.729393 95.7294 0.7107 95.8232C0.154172 97.9783 -0.116104 100.198 -0.0931128 102.424Z" fill="#DD9829"/>
<path d="M194.149 133.009C184.292 133.309 174.415 133.546 164.52 133.721C149.08 133.721 133.433 133.346 117.787 132.446V128.827L122.049 128.996C135.807 129.446 149.753 130.346 163.174 129.821C165.96 129.69 170.278 129.69 172.241 128.714C169.268 128.827 166.296 128.902 163.305 128.977C148.351 129.127 133.003 128.471 117.712 127.214V124.345C132.667 125.995 147.734 127.402 162.894 128.321C173.4 128.796 183.868 129.121 194.299 129.296C194.243 130.59 194.149 131.902 194.149 133.009ZM117.768 132.446C105.967 131.758 94.1773 130.821 82.4005 129.633C58.3235 127.27 28.7694 124.683 -0.167888 123.764C0.542459 116.507 5.19709 123.37 6.54301 118.982C18.3385 119.92 29.0872 120.426 30.5639 118.982L1.17803 116.263C0.160168 114.453 -0.338043 112.395 -0.261354 110.319C39.1629 113.863 78.2506 120.013 117.768 124.345V127.214C99.4862 125.733 81.1854 123.464 63.2212 120.651C75.5027 125.77 101.449 128.152 117.768 128.827V132.446Z" fill="#DD9826"/>
<path fill-rule="evenodd" clip-rule="evenodd" d="M49.8368 93.3854C51.2388 93.4792 52.6408 93.6292 54.0241 93.8167C68.9787 95.8232 83.7278 98.3172 98.3833 100.999C111.899 103.455 125.339 106.081 138.91 108.5C157.342 111.737 175.917 114.4 194.635 116.488C194.411 115.063 193.719 113.281 193.607 112.381C193.383 110.506 194.056 111.031 190.541 111.031C189.532 111.031 181.045 107.675 182.055 107.168C150.575 101.73 123.115 96.1982 132.143 97.5109C150.65 100.211 169.53 103.624 188.672 106.606C196.654 105.349 202.449 101.636 189.083 95.8232C184.971 93.948 190.953 95.5607 193.738 93.723C195.42 92.5791 195.981 88.4349 195.196 85.2095C186.373 84.4782 177.662 83.5218 169.381 82.3217C168.801 82.3217 179.961 82.9968 194.691 83.6906C194.47 83.0163 194.063 82.4187 193.517 81.9672C192.971 81.5158 192.309 81.229 191.607 81.1403L158.277 79.5651H47.5562C60.9032 81.2903 74.755 83.6156 87.9898 84.7595C83.0174 84.4782 77.7459 84.1406 74.5493 83.7843C61.464 82.3592 48.1731 81.3278 35.0504 81.009C38.3404 83.0905 37.6861 82.1904 32.1155 82.1904C30.2486 82.1944 28.4038 81.7846 26.7131 80.9903C17.3665 80.9903 8.28152 81.2903 -0.878204 81.6279C-0.519563 84.5454 0.834415 87.2487 2.95393 89.2787C14.1699 89.9663 25.3859 90.7914 36.6019 91.754C40.864 92.2228 45.4438 92.8604 49.8368 93.3854Z" fill="#BD6710"/>
<path d="M192.972 97.7547C178.989 96.3858 164.932 95.0731 151.005 93.9105C149.678 93.7605 171.717 93.7605 179.195 93.7605H193.775C194.767 92.8302 195.368 91.5564 195.458 90.1976C171.156 89.9538 146.855 89.56 123.021 86.7472C106.552 84.647 90.7377 81.9279 74.755 79.6027H37.5365C35.8168 79.6027 31.3117 78.515 33.2745 79.8652L34.0783 80.409C55.7251 81.3278 75.3718 85.5096 95.3737 88.9412C76.1943 86.5034 50.8836 83.7094 34.1717 83.4093H27.5356C22.7875 83.4093 17.7964 83.4093 12.581 83.3156V87.1973C20.2639 87.516 27.9843 87.9473 35.6859 88.4724C84.0455 92.7291 129.713 105.574 177.437 112.025C182.914 112.756 188.41 113.356 193.925 113.9C193.773 113.401 193.648 112.894 193.551 112.381C193.551 112.156 193.551 111.969 193.551 111.819C187.008 110.9 180.821 109.944 176.035 109.25C171.25 108.556 118.086 95.767 119.339 95.917C144.444 99.1236 169.81 102.386 194.99 104.749C195.491 104.543 195.935 104.221 196.289 103.811C196.643 103.401 196.896 102.913 197.028 102.386V101.936C196.897 100.736 195.682 99.3486 192.972 97.7734V97.7547ZM12.637 80.2215V79.2839L25.5167 79.5651C25.5776 79.7997 25.6788 80.0218 25.8158 80.2215H12.7305H12.637ZM12.637 83.2781L-0.709991 82.9968C-0.365611 84.337 0.210119 85.6063 0.991101 86.7472C4.86685 86.8597 8.74883 87.0035 12.637 87.1785V83.2781ZM12.637 79.2839V80.2215H-0.560445C-0.264934 79.7562 0.159636 79.3876 0.661099 79.1611C1.16256 78.9346 1.71907 78.8599 2.26225 78.9463L12.637 79.2839Z" fill="#DD9826"/>
<path d="M193.233 81.7216C179.774 80.6527 166.296 79.8464 164.614 81.5903L194.878 84.1219C195.526 86.0387 195.712 88.0823 195.42 90.0851C164.333 87.4785 133.433 83.2593 102.328 79.5651H128.087L131.956 80.1277L130.498 79.5651H158.277L191.607 81.1403C192.193 81.1727 192.758 81.3746 193.233 81.7216Z" fill="#D98D2B"/>
<path fill-rule="evenodd" clip-rule="evenodd" d="M168.072 174.132C172.783 173.082 177.419 171.713 181.886 170.382C185.625 166.312 192.897 163.068 193.102 168.656C193.102 172.894 194.43 178.145 193.57 182.195L193.439 182.027C193.439 181.839 193.289 181.727 193.289 181.595C190.224 181.595 187.98 179.608 185.008 178.557L184.111 178.295H165.417C165.137 178.295 164.371 178.595 164.726 178.295C165.661 177.301 165.642 177.639 164.595 177.639C164.315 177.639 163.586 177.789 163.473 178.351L159.735 178.501C158.707 178.501 159.623 176.063 160.632 175.013L162.333 174.901C163.455 174.901 164.595 174.751 165.735 174.62C166.408 174.488 167.268 174.395 168.072 174.132Z" fill="#A54A16"/>
<path fill-rule="evenodd" clip-rule="evenodd" d="M168.408 155.867C173.157 154.817 177.755 153.448 182.391 152.117C186.279 148.029 193.719 144.804 193.607 150.392C193.495 154.63 194.523 159.768 193.476 163.931L193.345 163.762C193.345 163.575 193.214 163.462 193.214 163.331C190.149 163.331 187.999 161.343 185.064 160.293L184.186 160.03H165.492C165.212 160.03 164.427 160.33 164.801 160.03C165.773 159.037 165.754 159.374 164.801 159.374C164.52 159.374 163.773 159.524 163.642 160.087L159.903 160.237C158.894 160.237 159.903 157.799 160.969 156.749L162.67 156.636C163.791 156.636 164.931 156.486 166.072 156.355C166.726 156.224 167.605 156.036 168.408 155.867Z" fill="#A54A16"/>
<path fill-rule="evenodd" clip-rule="evenodd" d="M24.8251 187.296C21.8715 186.827 18.9928 186.265 16.1327 185.683V191.553C30.863 194.103 61.9126 199.372 63.7819 198.51V198.266C63.2211 198.266 31.1621 187.896 30.5826 187.859C29.461 187.859 28.3394 187.746 27.2178 187.652C26.4701 187.652 25.6289 187.446 24.8438 187.315L24.8251 187.296ZM16.1327 177.92C16.6657 177.181 16.9875 176.31 17.0633 175.402C17.139 174.493 16.9659 173.58 16.5626 172.763C16.388 172.386 16.2382 171.997 16.114 171.601V177.901L16.1327 177.92ZM16.1327 202.166V197.872C18.731 198.36 21.3481 198.81 24.0026 199.204C24.8251 199.335 25.741 199.466 26.5262 199.541C27.6851 199.541 28.8441 199.71 29.9844 199.747H31.7042C32.938 200.479 34.3774 202.223 33.3492 202.185H29.6106C29.3675 201.791 28.6011 201.679 28.302 201.679C27.2739 201.679 27.1804 201.435 28.302 202.129C28.732 202.391 27.9095 202.129 27.6291 202.129H16.1327V202.166ZM16.1327 185.702L11.3846 184.746C10.506 183.996 14.2633 181.164 16.1327 177.92V171.601C14.6933 167.344 11.2911 154.011 6.59908 148.292C5.25316 146.641 0.262047 146.979 -0.672619 146.773C-0.934326 146.773 -0.205286 149.042 -0.336139 149.679C-1.12126 153.317 -0.0744327 166.556 -0.336139 166.556C-1.64467 166.669 0.635913 182.233 0.411593 183.564C-0.0931263 186.546 -1.8503 190.203 -1.45774 192.94L-1.30819 192.828C-1.30819 192.697 -1.13995 192.603 -1.12126 192.509C1.94445 192.509 4.37458 191.14 7.45897 190.39L8.37495 190.221C8.48711 190.221 11.4967 190.746 16.0392 191.515V185.646L16.1327 185.702ZM16.1327 197.872V202.166H8.95444L8.11324 202.335C5.34663 203.067 3.4773 204.398 0.486367 204.398C0.486367 204.398 0.374207 204.585 0.486367 204.717L0.3929 204.829C-1.34558 201.998 -1.19603 198.341 -2.03723 195.453V194.328C-1.25211 192.097 5.4401 194.159 9.47785 196.672L16.1327 197.872Z" fill="#A54A16"/>
<path fill-rule="evenodd" clip-rule="evenodd" d="M42.3407 149.304C94.2708 155.267 141.901 166.031 193.757 170.232C194.188 168.574 194.371 166.861 194.299 165.15C194.299 156.318 193.102 157.368 187.906 157.368C186.877 157.368 193.514 151.742 193.514 149.248C193.514 136.928 173.755 143.622 167.549 143.622C113.058 143.622 62.5295 143.904 7.27206 144.241C5.72051 144.241 0.243372 143.51 -0.523054 145.816C-0.659924 146.11 -0.730865 146.43 -0.730865 146.754C-0.730865 147.078 -0.659924 147.398 -0.523054 147.692H7.53377C14.3755 147.692 21.236 147.692 28.0964 147.973C32.5641 148.142 37.6487 148.779 42.3407 149.304Z" fill="#A54A16"/>
<path fill-rule="evenodd" clip-rule="evenodd" d="M40.864 147.617C42.2473 147.617 43.6306 147.767 44.9952 147.917C59.5573 149.585 74.0072 151.892 88.2515 154.349C101.337 156.618 114.422 159.112 127.638 161.306C149.435 164.931 171.555 167.506 194 169.031C194.196 167.747 194.283 166.449 194.261 165.15C194.261 163.481 194.261 162.149 194.112 161.118C155.772 155.642 111.282 147.091 122.386 148.479C145.659 151.479 169.474 155.83 193.551 158.699C192.728 156.974 191.046 157.368 187.943 157.368C186.915 157.368 193.551 151.742 193.551 149.248C193.551 136.928 173.792 143.622 167.586 143.622C113.095 143.622 62.5669 143.904 7.30946 144.241C5.94484 144.241 1.49583 143.679 -0.0370178 145.122C9.30964 145.404 18.6563 145.779 28.003 146.304C32.0033 146.66 36.5645 147.204 40.864 147.617Z" fill="#B35516"/>
<path d="M193.046 146.435C178.615 145.422 164.24 144.391 149.696 143.641C114.815 143.641 81.1854 143.829 46.4532 144.035C86.9243 148.517 125.19 159.037 165.623 163.65C175.082 164.718 184.653 165.281 194.243 165.75C194.243 165.562 194.243 165.356 194.243 165.15C194.243 164.943 194.243 164.4 194.243 164.043C183.606 162.824 172.241 161.474 164.558 160.293C159.66 159.58 108.478 146.998 109.824 147.166C136.424 149.979 163.212 152.792 190.205 154.367C191.775 152.605 193.551 150.467 193.551 149.229C193.54 148.276 193.369 147.332 193.046 146.435Z" fill="#DE9829"/>
<path fill-rule="evenodd" clip-rule="evenodd" d="M50.3228 188.421C99.7853 196.728 145.976 209.048 194.729 216.399C193.831 211.411 188.541 204.154 183.793 204.154C183.887 203.685 192.728 201.754 193.289 201.023C193.85 200.291 194.261 188.421 194.261 187.615C194.261 178.051 193.757 174.207 187.27 174.207C188.429 166.706 194.261 178.314 194.261 165.15C194.261 156.318 193.065 157.368 187.868 157.368C187.307 157.368 189.009 155.68 190.691 153.748C159.494 157.107 127.977 155.939 97.1122 150.279C84.5129 147.767 71.6332 145.704 58.7348 143.96L7.21599 144.26C5.66444 144.26 0.187302 143.529 -0.579124 145.835C-0.788497 146.23 -0.870384 146.68 -0.81345 147.124C-0.756516 147.567 -0.563578 147.982 -0.261338 148.31C0.860262 150.317 5.47751 147.767 5.2158 149.567C0.897648 151.892 -1.86896 150.373 -0.504351 153.542C0.336849 155.53 -1.00907 167.25 -0.990377 169.2C-0.990377 173.082 0.673328 169.95 7.15991 173.588C4.20636 173.588 0.766795 172.594 -0.504351 174.301C-1.42032 175.538 0.131222 179.683 0.318155 181.333C0.542475 183.452 -0.130484 182.946 3.38386 182.946C4.6818 183.279 5.93649 183.764 7.12252 184.389C9.7022 184.539 12.3006 184.671 14.9176 184.783C21.8155 185.102 28.732 185.608 35.6672 186.246C40.3405 186.79 45.5373 187.634 50.3228 188.421Z" fill="#A54A16"/>
<path fill-rule="evenodd" clip-rule="evenodd" d="M48.6591 186.658C50.0611 186.771 51.4631 186.958 52.8464 187.202C67.801 189.696 82.5501 192.828 97.2056 196.072C110.721 199.091 124.161 202.316 137.733 205.261C156.426 209.336 175.344 212.686 194.486 215.312C193.251 211.306 190.751 207.811 187.364 205.354C153.323 198.285 121.264 190.353 130.966 192.228C149.154 195.547 167.754 199.729 186.485 203.273C188.818 202.771 191.097 202.042 193.289 201.098C194 200.179 194.261 188.496 194.261 187.69C194.452 184.434 194.169 181.168 193.42 177.995C184.784 177.076 176.297 175.876 168.184 174.432C167.642 174.432 178.26 175.257 192.485 176.176C191.828 175.475 191.014 174.94 190.111 174.614C189.208 174.288 188.241 174.181 187.289 174.301C188.448 166.8 194.28 178.408 194.28 165.244C194.28 164.156 194.28 163.218 194.28 162.393C172.016 162.881 148.444 161.212 125.414 159.824C147.229 159.712 171.661 161.812 194.187 161.081C193.719 156.786 192.13 157.461 187.962 157.461C187.476 157.461 188.672 156.205 190.093 154.611C182.615 155.261 175.013 155.711 167.287 155.961C151.701 156.485 136.098 156.122 120.554 154.874C111.687 154.225 102.863 153.085 94.1212 151.461C84.6437 149.586 75.0354 148.104 65.4457 146.698C59.2146 145.773 52.9461 144.916 46.6402 144.129L7.21599 144.26C5.66445 144.26 0.187303 143.529 -0.579123 145.835C-0.788496 146.23 -0.870383 146.68 -0.813449 147.124C-0.756515 147.567 -0.563577 147.982 -0.261336 148.31C0.860263 150.317 5.47751 147.767 5.21581 149.567C0.897649 151.892 -1.86896 150.373 -0.50435 153.542C0.11253 154.986 -0.50435 161.643 -0.784749 165.862C10.1135 166.481 21.0117 167.306 31.9286 168.225C49.4816 170.1 68.6609 174.676 86.7374 176.682C81.7463 176.289 76.4934 175.857 73.2969 175.407C59.7844 173.493 46.1826 172.278 32.5454 171.769C22.881 171.619 13.3474 171.769 3.85119 172.088C5.02748 172.47 6.16132 172.973 7.23468 173.588C4.28114 173.588 0.841569 172.594 -0.429576 174.301C-1.34555 175.52 0.187303 179.645 0.392929 181.314C12.0451 182.252 23.7035 183.358 35.3681 184.633C39.6115 185.196 44.2662 185.983 48.6591 186.658Z" fill="#C37025"/>
<path d="M194.149 167.756C145.416 167.756 95.355 155.886 45.1074 154.199C39.9667 154.03 34.826 153.861 29.7041 153.767C19.6969 153.767 9.70844 153.855 -0.261325 154.03C-0.288996 153.863 -0.332822 153.7 -0.392179 153.542C-0.488279 153.336 -0.569492 153.123 -0.635192 152.905C13.5904 151.704 22.881 151.029 22.5445 151.029C16.7683 150.429 10.9547 149.867 5.34667 149.323C5.23451 148.629 4.00075 148.929 2.69222 149.06L0.392941 148.854C0.12587 148.742 -0.101891 148.553 -0.261325 148.31C-0.572638 147.988 -0.775972 147.576 -0.842988 147.133C-0.910004 146.689 -0.837364 146.235 -0.635192 145.835C0.131234 143.529 5.60838 144.279 7.15992 144.26H12.9548C17.7403 144.71 22.5196 145.179 27.2926 145.666C37.0131 146.754 46.6776 148.01 56.3794 149.285C101.823 155.286 145.173 159.262 187.681 157.311C187.681 157.311 187.681 157.311 187.793 157.311C191.962 157.311 193.551 156.636 194.018 160.931C171.586 161.662 147.061 159.562 125.246 159.674C147.808 161.043 171.418 163.425 194.168 163.781C194.168 164.193 194.168 164.625 194.168 165.093C194.207 165.981 194.201 166.87 194.149 167.756Z" fill="#D68821"/>
<path d="M194.149 193.147C179.4 191.271 164.632 189.565 149.883 188.009C148.556 187.859 170.446 188.009 178.036 188.009L194.299 188.215C194.299 187.952 194.299 187.765 194.299 187.69C194.299 186.321 194.299 185.083 194.299 183.939C169.997 183.471 145.696 182.833 121.899 179.326C91.1864 174.394 62.866 166.894 31.5173 164.831C21.3855 164.343 11.2724 164.025 1.23412 163.968H-0.485664C-0.672597 166.387 -0.85953 168.431 -0.840837 169.163C-0.874121 169.684 -0.804236 170.206 -0.63521 170.7C6.30624 170.7 13.2664 170.7 20.2452 170.7C24.3578 170.7 28.5077 170.832 32.6576 170.982C54.4166 172.2 74.1755 177.357 94.3455 181.595C75.1662 178.557 49.8554 175.051 33.1436 174.563C30.9378 174.563 28.7133 174.563 26.5075 174.563C18.2824 174.563 9.32833 174.282 0.019056 173.963C-0.0897637 174.06 -0.189847 174.167 -0.280037 174.282C-0.822144 175.013 -0.504357 176.757 -0.111798 178.407C11.4656 178.895 23.0742 179.651 34.7139 180.676C83.0548 186.115 128.741 201.716 176.465 209.761C182.073 210.68 187.681 211.449 193.289 212.124C192.795 211.194 192.239 210.298 191.626 209.442C185.382 208.355 179.531 207.304 174.951 206.423C169.941 205.429 117.002 189.94 118.254 190.128C143.135 194.103 168.203 198.135 193.252 201.116C193.303 201.088 193.348 201.05 193.383 201.004C193.93 198.422 194.187 195.786 194.149 193.147Z" fill="#DF9C25"/>
<path d="M76.2317 157.518C88.0085 158.343 99.8227 159.393 111.581 160.856C135.676 163.668 165.231 166.744 194.168 167.756C193.458 176.382 188.803 168.225 187.457 173.382C175.661 172.276 164.913 171.676 163.436 173.382L192.822 176.551C193.837 178.815 194.292 181.292 194.149 183.771C154.781 179.551 115.637 172.276 76.1756 167.081V163.65C94.4577 165.525 112.758 168.188 130.723 171.469C118.441 165.375 92.4949 162.656 76.1756 161.756L76.2317 157.518ZM-0.149193 156.768C9.69595 156.418 19.5723 156.13 29.4797 155.905C44.9204 155.905 60.548 156.355 76.213 157.443V161.756C74.7175 161.662 73.2782 161.606 71.9509 161.549C58.1927 161.006 44.2474 159.937 30.8256 160.537C28.0216 160.724 23.7222 160.706 21.7594 161.887C24.7316 161.756 27.7038 161.643 30.6948 161.568C45.9188 161.435 61.1388 162.129 76.2878 163.65V167.081C61.3331 165.206 46.2663 163.443 31.106 162.356C20.563 161.793 10.1072 161.431 -0.261353 161.268C-0.261353 159.637 -0.167886 158.08 -0.149193 156.768Z" fill="#E1A02D"/>
<path fill-rule="evenodd" clip-rule="evenodd" d="M182.073 63.0633C185.812 58.9941 193.102 55.75 193.196 61.3381C193.196 65.5948 194.542 70.8266 193.663 74.8958C196.187 78.6463 193.85 80.6152 192.897 80.3715C189.345 80.3715 184.466 80.1089 178.952 80.3715C176.914 80.4652 174.82 79.5839 172.633 80.2589C167.941 81.7216 151.211 79.7151 151.323 79.5839C152.594 78.2337 160.669 71.1454 159.847 71.1829C159.024 71.2204 158.632 69.6453 182.073 63.0633Z" fill="#A54A16"/>
<path fill-rule="evenodd" clip-rule="evenodd" d="M168.072 34.0726C172.783 33.0225 177.419 31.6536 181.886 30.3222C185.625 26.2342 192.897 23.0088 193.102 28.597C193.102 32.8349 194.43 37.973 193.57 42.136L193.439 41.9672C193.439 41.7797 193.289 41.6484 193.289 41.5172C190.224 41.5172 187.98 39.5482 185.008 38.4981L184.111 38.2355H165.417C165.137 38.2355 164.371 38.5356 164.726 38.2355C165.661 37.2417 165.642 37.5792 164.595 37.5792C164.315 37.5792 163.586 37.7292 163.473 38.2918L159.735 38.4418C158.707 38.4418 159.623 36.004 160.632 34.9539L162.333 34.8414C163.455 34.8414 164.595 34.6914 165.735 34.5414C166.408 34.4289 167.268 34.2413 168.072 34.0726Z" fill="#A54A16"/>
<path fill-rule="evenodd" clip-rule="evenodd" d="M168.408 15.808C173.157 14.7391 177.755 13.389 182.391 12.0576C186.279 7.96961 193.719 4.74425 193.607 10.3324C193.495 14.5704 194.523 19.8022 193.476 23.8714L193.345 23.7026C193.345 23.5151 193.214 23.3838 193.214 23.2526C190.149 23.2526 187.999 21.3774 185.064 20.2335L184.186 19.971H165.492C165.212 19.971 164.427 20.271 164.801 19.971C165.773 18.9771 165.754 19.3146 164.801 19.3146C164.52 19.3146 163.773 19.4647 163.642 20.0272L159.903 20.1772C158.894 20.1772 159.903 17.7395 160.969 16.6893L162.67 16.5768C163.791 16.5768 164.931 16.4268 166.072 16.2768C166.726 16.1643 167.605 15.9768 168.408 15.808Z" fill="#A54A16"/>
<path fill-rule="evenodd" clip-rule="evenodd" d="M24.8251 47.2365C21.8715 46.7677 18.9928 46.2052 16.1327 45.6238V51.4932C30.863 54.0248 61.9126 59.3129 63.782 58.4503V58.1315C63.2212 58.1315 31.1621 47.7428 30.5826 47.7241C29.461 47.7241 28.3394 47.6116 27.2178 47.5178C26.4701 47.424 25.6289 47.3115 24.8438 47.1803L24.8251 47.2365ZM16.1327 37.8605C16.6657 37.1217 16.9875 36.2509 17.0633 35.3421C17.1391 34.4333 16.966 33.521 16.5626 32.7036C16.388 32.3263 16.2382 31.9379 16.114 31.541V37.8417L16.1327 37.8605ZM16.1327 62.1069V57.794C18.7311 58.2815 21.3481 58.7316 24.0026 59.1254C24.8251 59.2566 25.7411 59.3879 26.5262 59.4629C27.6852 59.5567 28.8442 59.6317 29.9844 59.6692H31.7042C32.938 60.4005 34.3774 62.1444 33.3492 62.1069H29.6106C29.3676 61.7131 28.6011 61.6006 28.302 61.6006C27.2739 61.6006 27.1804 61.3569 28.302 62.0507C28.732 62.3132 27.9095 62.0507 27.6291 62.0507H16.1327V62.1069ZM16.1327 45.6426L11.3846 44.6862C10.506 43.9174 14.2634 41.1046 16.1327 37.8605V31.541C14.6933 27.2843 11.2911 13.9515 6.5991 8.23215C5.25318 6.58196 0.262069 6.9195 -0.672598 6.69448C-0.934304 6.63822 -0.261344 8.98223 -0.261344 9.61981C-1.04646 13.2577 0.000361919 26.4967 -0.261344 26.4967C-1.56988 26.6092 0.710708 42.1735 0.486388 43.5049C-0.0183311 46.4677 -1.7755 50.1243 -1.38294 52.8809L-1.2334 52.7684C-1.2334 52.6184 -1.06516 52.5434 -1.04646 52.4496C2.01924 52.4496 4.44937 51.0807 7.53377 50.3306C7.8355 50.2563 8.14136 50.1999 8.44974 50.1618C8.5619 50.1618 11.5715 50.6682 16.114 51.4557V45.6238L16.1327 45.6426ZM16.1327 57.8127V62.1069H8.95446L8.11326 62.2757C5.34665 63.007 3.47732 64.3759 0.486388 64.3759C0.486388 64.4697 0.374228 64.5635 0.486388 64.6947L0.392921 64.8072C-0.485664 63.3821 1.10327 63.5321 0.822868 61.9007C0.542468 60.2692 -1.68204 56.8188 -2.13068 55.3374V54.2123C-1.34556 51.9808 5.34665 54.0435 9.38441 56.5563L16.1327 57.8127Z" fill="#A54A16"/>
<path fill-rule="evenodd" clip-rule="evenodd" d="M42.3407 9.24476C94.2708 15.1892 141.901 25.9716 193.757 30.1534C194.19 28.5026 194.373 26.7957 194.299 25.0903C194.299 16.258 193.102 17.3082 187.906 17.3082C186.877 17.3082 193.514 11.5888 193.514 9.1885C193.514 -3.13163 173.755 3.56287 167.549 3.56287C113.058 3.56287 62.5295 3.84416 7.27206 4.18169C5.72051 4.18169 0.243372 3.45036 -0.523054 5.75687C-0.659924 6.05037 -0.730865 6.37045 -0.730865 6.69447C-0.730865 7.0185 -0.659924 7.33858 -0.523054 7.63208H7.53377C14.3755 7.63208 21.236 7.63208 28.0964 7.91336C32.5641 8.15714 37.6487 8.7197 42.3407 9.24476Z" fill="#A54A16"/>
<path fill-rule="evenodd" clip-rule="evenodd" d="M40.864 7.50082C42.2473 7.50082 43.6306 7.66958 44.9952 7.8196C59.5573 9.52604 74.0072 11.7763 88.2515 14.2703C101.337 16.5581 114.422 19.0334 127.638 21.2461C149.435 24.859 171.555 27.4343 194 28.972C194.195 27.6877 194.282 26.3892 194.261 25.0903C194.261 23.4214 194.261 22.09 194.112 21.0398C155.772 15.6017 111.282 7.01326 122.386 8.41967C145.659 11.42 169.474 15.7705 193.551 18.6396C192.728 16.9144 191.046 17.3082 187.943 17.3082C186.915 17.3082 193.551 11.5888 193.551 9.1885C193.551 -3.13163 173.792 3.56287 167.586 3.56287C113.095 3.56287 62.5669 3.84416 7.30946 4.18169C5.94485 4.18169 1.49583 3.60038 -0.0370178 5.06304C9.30964 5.34432 18.6563 5.71937 28.003 6.24442C32.0033 6.60071 36.5645 7.12577 40.864 7.50082Z" fill="#B35516"/>
<path d="M193.046 6.37567C178.615 5.36305 164.24 4.38794 149.696 3.5816C114.815 3.5816 81.1854 3.76912 46.4532 3.95665C86.9243 8.45715 125.19 18.9583 165.623 23.5901C175.082 24.659 184.653 25.2215 194.243 25.6903C194.243 25.5028 194.243 25.2965 194.243 25.0903C194.243 24.884 194.243 24.3402 194.243 23.9839C183.606 22.765 172.241 21.3961 164.558 20.2335C159.66 19.5209 108.478 6.91948 109.824 7.107C136.424 9.91982 163.212 12.7326 190.205 14.3078C191.775 12.5451 193.551 10.4074 193.551 9.16973C193.54 8.21663 193.369 7.2722 193.046 6.37567Z" fill="#E19B38"/>
<path fill-rule="evenodd" clip-rule="evenodd" d="M50.3228 48.3617C99.7853 56.6689 145.977 68.989 194.729 76.3398C193.831 71.3518 188.541 64.0947 183.793 64.0947C183.887 63.6259 192.729 61.6944 193.289 60.9631C193.85 60.2318 194.261 48.3617 194.261 47.5553C194.261 37.9918 193.757 34.1476 187.27 34.1476C188.429 26.6468 194.261 38.2543 194.261 25.0903C194.261 16.2581 193.065 17.3082 187.868 17.3082C187.307 17.3082 189.009 15.6018 190.691 13.689C159.493 17.0383 127.978 15.87 97.1122 10.2199C84.5129 7.70713 71.6332 5.62565 58.7348 3.90045L7.21599 4.20049C5.66444 4.20049 0.187297 3.46915 -0.579129 5.77566C-0.785799 6.17109 -0.866163 6.62074 -0.809312 7.06357C-0.75246 7.50639 -0.561146 7.92094 -0.261343 8.25094C0.860257 10.2387 5.47751 7.70713 5.2158 9.50733C0.972416 11.8138 -1.79419 10.2949 -0.429583 13.4828C0.411617 15.358 -0.934302 27.1906 -0.915609 29.122C-0.915609 33.0225 0.748097 29.8909 7.23468 33.5288C4.28113 33.5288 0.841563 32.5349 -0.429583 34.2414C-1.34556 35.479 0.20599 39.6232 0.392923 41.2734C0.617243 43.3924 -0.055716 42.8673 3.45863 42.8673C4.75604 43.2113 6.0103 43.702 7.19729 44.33C9.77697 44.48 12.3753 44.6113 14.9924 44.7238C21.8902 45.0426 28.8068 45.5489 35.742 46.1864C40.3405 46.7303 45.5373 47.5741 50.3228 48.3617Z" fill="#A54A16"/>
<path fill-rule="evenodd" clip-rule="evenodd" d="M48.6591 46.5802C50.0611 46.7115 51.4631 46.899 52.8464 47.124C67.801 49.6368 82.55 52.7496 97.2056 56.0125C110.721 59.0316 124.161 62.257 137.733 65.201C156.426 69.264 175.344 72.6144 194.486 75.2522C193.256 71.2436 190.755 67.7474 187.363 65.2948C153.323 58.2253 121.264 50.2931 130.966 52.1683C149.154 55.4687 167.754 59.5754 186.485 63.2133C188.818 62.7114 191.097 61.9829 193.289 61.0381C194 60.1192 194.261 48.4367 194.261 47.6303C194.452 44.3749 194.169 41.1089 193.42 37.9355C184.784 37.0166 176.297 35.8165 168.184 34.3726C167.642 34.2601 178.26 35.1977 192.485 36.1165C191.828 35.4155 191.014 34.8803 190.111 34.5545C189.208 34.2286 188.241 34.1213 187.289 34.2413C188.448 26.7405 194.28 38.348 194.28 25.184C194.28 24.0964 194.28 23.1588 194.28 22.3337C172.016 22.8213 148.444 21.1523 125.414 19.7459C147.229 19.6522 171.661 21.7524 194.187 21.0211C193.719 16.7268 192.13 17.4019 187.962 17.4019C187.476 17.4019 188.672 16.1455 190.093 14.5516C182.615 15.2142 175.013 15.6642 167.287 15.9018C151.701 16.4283 136.098 16.0589 120.554 14.7954C111.652 14.116 102.796 12.9327 94.0277 11.2512C84.5502 9.37602 74.9419 7.95086 65.3522 6.54446C59.1211 5.61935 52.8526 4.75675 46.5467 3.95667L7.21597 4.20044C5.66443 4.20044 0.187286 3.46911 -0.57914 5.77562C-0.785811 6.17105 -0.866175 6.6207 -0.809323 7.06352C-0.752471 7.50635 -0.561158 7.9209 -0.261354 8.2509C0.860245 10.2386 5.47749 7.70709 5.21579 9.50729C0.972404 11.8138 -1.79421 10.2949 -0.429594 13.4827C0.187286 14.9266 -0.429594 21.5836 -0.709994 25.8029C10.1944 26.4154 21.0989 27.203 32.0033 28.1656C49.5563 30.0408 68.7357 34.6164 86.8121 36.6041C81.821 36.229 76.5682 35.7977 73.3716 35.3477C59.8344 33.4305 46.2075 32.2162 32.5454 31.7098C22.881 31.5598 13.3474 31.7098 3.85118 32.0286C5.02746 32.4105 6.1613 32.9132 7.23467 33.5287C4.28112 33.5287 0.841552 32.5349 -0.429594 34.2413C-1.34557 35.4602 0.187285 39.5857 0.392912 41.2358C12.0451 42.1735 23.7035 43.2798 35.3681 44.555C39.6115 45.1363 44.2661 45.9239 48.6591 46.5802Z" fill="#C37025"/>
<path d="M194.149 27.6968C145.416 27.6968 95.355 15.8268 45.1073 14.1391C39.9667 13.9703 34.826 13.8015 29.704 13.7078C19.6969 13.6953 9.70843 13.7828 -0.261344 13.9703C-0.28659 13.8034 -0.330484 13.6398 -0.392197 13.4828C-0.491678 13.2713 -0.572978 13.0517 -0.63521 12.8264C13.5904 11.645 22.881 10.9512 22.5445 10.9512C16.7683 10.3699 10.9546 9.80734 5.34665 9.26353C5.23449 8.5697 4.00073 8.86974 2.6922 9.001L0.336842 8.79473C0.0904001 8.67355 -0.116943 8.48505 -0.261344 8.25092C-0.570232 7.92721 -0.771921 7.51569 -0.83884 7.07264C-0.905759 6.62959 -0.834642 6.17661 -0.63521 5.77564C0.205989 3.46913 5.68313 4.20046 7.21598 4.20046H13.0109C17.8712 4.62551 22.6567 5.10056 27.3674 5.62562C37.1253 6.65699 46.7524 7.91338 56.4542 9.18852C101.898 15.1892 145.247 19.1646 187.756 17.2144C187.756 17.2144 187.756 17.3082 187.868 17.3082C192.037 17.3082 193.626 16.6331 194.093 20.9273C171.661 21.6587 147.135 19.5584 125.32 19.6522C147.883 21.0399 171.493 23.4026 194.243 23.7777C194.243 24.1902 194.243 24.6215 194.243 25.0903C194.255 25.9602 194.224 26.8301 194.149 27.6968Z" fill="#D68821"/>
<path d="M194.149 53.106C179.4 51.2307 164.632 49.5056 149.883 47.9679C148.556 47.8179 170.446 47.9679 178.036 47.9679L194.299 48.1554C194.299 47.9116 194.299 47.7241 194.299 47.6491C194.299 46.2802 194.299 45.0426 194.299 43.8987C169.997 43.4299 145.696 42.7923 121.899 39.2857C91.1863 34.2976 62.866 26.8905 31.5173 24.7715C21.3855 24.284 11.2724 23.9652 1.2341 23.9089H-0.48568C-0.672614 26.328 -0.859547 28.3719 -0.840853 29.0845C-0.875138 29.6118 -0.805259 30.1408 -0.635227 30.6409C6.30623 30.6409 13.2664 30.6409 20.2452 30.6409C24.3577 30.6409 28.5077 30.791 32.6576 30.941C54.4166 32.1599 74.1754 37.3167 94.3455 41.5359C75.1662 38.4981 49.8554 35.0102 33.1436 34.5226C30.9378 34.5226 28.7133 34.5226 26.5075 34.5226C18.2824 34.5226 9.32831 34.2413 0.0190394 33.9226C-0.0897803 34.0198 -0.189864 34.1265 -0.280054 34.2413C-0.82216 34.9727 -0.504374 36.7166 -0.111814 38.3668C11.4656 38.8544 23.0741 39.6107 34.7138 40.6358C83.0548 46.0552 128.741 61.6757 176.465 69.7203C182.073 70.6392 187.681 71.408 193.289 72.0831C192.766 71.1438 192.179 70.2416 191.532 69.3828C185.289 68.2952 179.438 67.245 174.858 66.3449C169.848 65.3698 116.908 49.8806 118.161 50.0681C143.042 54.0436 168.109 58.0753 193.158 61.0569C193.209 61.029 193.254 60.9907 193.289 60.9443C193.867 58.3719 194.155 55.7428 194.149 53.106Z" fill="#E1A02D"/>
<path d="M76.2317 17.3832C88.0085 18.2083 99.8227 19.2584 111.581 20.7211C135.676 23.5339 165.231 26.6092 194.168 27.6031C193.458 36.2478 188.803 28.0906 187.457 33.2287C175.661 32.1036 164.913 31.5223 163.436 33.2287L192.822 36.3978C193.849 38.6397 194.324 41.0966 194.205 43.5611C154.837 39.3419 115.693 32.0661 76.2317 26.8718V23.5901C94.5138 25.3716 112.815 28.1281 130.779 31.4098C118.497 25.3153 92.551 22.5963 76.2317 21.6962V17.3832ZM-0.14919 16.7081C9.69596 16.3456 19.5723 16.058 29.4797 15.8455C44.9204 15.8455 60.548 16.2956 76.213 17.3832V21.6962C74.7176 21.6024 73.2782 21.5462 71.9509 21.4899C58.1927 20.9461 44.2474 19.8585 30.8256 20.4773C28.0216 20.6648 23.7222 20.6461 21.7594 21.8274C24.7316 21.6962 27.7039 21.5837 30.6948 21.5087C45.9188 21.3752 61.1388 22.07 76.2878 23.5901V27.0218C61.3331 25.0528 46.2663 23.3839 31.106 22.2775C20.6004 21.7337 10.1321 21.3211 -0.298737 21.1336C-0.26135 19.5772 -0.167883 18.0208 -0.14919 16.7081Z" fill="#DF9C30"/>
<path fill-rule="evenodd" clip-rule="evenodd" d="M144.163 63.8696C142.761 63.7571 141.359 63.5696 139.976 63.3633C125.021 60.963 110.272 58.0002 95.6167 54.8124C82.1014 51.8683 68.6422 48.7554 55.0896 45.9051C36.6579 42.0422 18.083 38.8731 -0.635223 36.3978C-0.410903 38.0855 0.280749 40.1482 0.392909 41.2733C0.617229 43.3923 -2.35501 48.4554 1.06587 47.1615C5.72051 45.38 12.9361 46.8802 11.9267 47.4803C43.4249 53.931 70.9415 60.6068 61.8565 58.9566C43.3502 55.7312 24.4699 51.6808 5.32794 48.1179C-2.6541 49.618 -8.44903 54.0435 4.91669 60.963C9.02922 63.1195 3.04736 61.2818 0.262056 63.4571C-1.42034 64.8072 -1.99984 69.7578 -1.21472 73.5832C7.62722 74.4646 16.3383 75.6084 24.6195 77.0148C25.1803 77.1273 14.039 76.2272 -0.691303 75.4022C-0.0557303 77.1273 0.953709 78.365 2.39309 78.44L35.7233 80.3152H146.444C133.097 78.2525 119.245 75.4772 106.01 74.127C110.983 74.4646 116.254 74.8771 119.451 75.2896C132.536 76.9773 145.827 78.215 158.95 78.59C155.66 76.1147 156.314 77.1836 161.884 77.1836C163.78 77.1855 165.642 77.6832 167.287 78.6275C176.633 78.6275 185.718 78.2525 194.878 77.8587C194.582 74.5166 193.278 71.3443 191.14 68.7639C179.924 67.9201 168.708 66.8887 157.492 65.8011C153.211 65.2385 148.556 64.4884 144.163 63.8696Z" fill="#BD6710"/>
<path d="M181.363 75.9085L194.71 76.2273C194.37 74.6563 193.796 73.1455 193.009 71.7455L181.363 71.258V75.9272V75.9085ZM181.363 80.6528V79.5464L194.56 79.4151C194.314 79.9382 193.907 80.3681 193.399 80.6416C192.891 80.915 192.308 81.0176 191.738 80.934L181.363 80.6528ZM1.0285 58.6753C15.0111 60.3067 29.0685 61.8632 42.995 63.2321C44.3222 63.3633 22.4323 63.4758 14.8429 63.5133H0.26207C-0.762774 64.7004 -1.35589 66.2011 -1.42033 67.7701C22.881 68.0513 47.1823 68.5202 71.0163 71.858C87.4851 74.3145 103.3 77.5587 119.376 80.3152H156.463C158.183 80.3152 162.67 81.6091 160.726 79.9964L159.922 79.3401C138.275 78.2525 118.628 73.2644 98.6263 69.214C117.787 72.1018 143.116 75.4209 159.828 75.796H166.464C171.212 75.796 176.204 75.796 181.419 75.9272V71.258C173.736 70.8642 166.016 70.3579 158.314 69.739C109.898 64.6385 64.2306 49.3555 16.5626 41.6671C10.9546 40.8045 5.53359 40.092 0.0190573 39.4731C0.187297 40.1857 0.336843 40.8233 0.392923 41.3484C0.449003 41.8734 0.392923 41.8359 0.392923 42.0234C6.99166 43.1298 13.1605 44.1049 17.9646 45.005C22.7688 45.9051 75.9139 61.0568 74.6615 60.8693C49.5564 57.1189 24.283 53.1622 -0.990382 50.3681C-1.51805 50.6496 -1.97542 51.0471 -2.32827 51.531C-2.68113 52.0148 -2.92032 52.5725 -3.02795 53.1622V53.7247C-2.87841 55.1499 -1.68204 56.8001 1.0285 58.6753ZM181.363 79.5464V80.634L168.483 80.2965C168.425 80.0171 168.317 79.7504 168.165 79.5089H172.652L181.363 79.5464Z" fill="#E1A02D"/>
<path d="M0.766784 77.7462C14.226 79.0214 27.7039 79.9402 29.3863 77.915L-0.878227 74.8771C-1.52882 72.5744 -1.71315 70.1642 -1.42033 67.7888C29.6667 70.9017 60.5667 75.9085 91.6724 80.3153H65.913L62.0435 79.6402L63.5016 80.3153H35.7233L2.3931 78.44C1.78791 78.4019 1.21398 78.157 0.766784 77.7462Z" fill="#D98D2B"/>
</svg>
