<svg xmlns="http://www.w3.org/2000/svg" viewBox="0 0 39.65 17.85"><defs><style>.cls-1{fill:#cf712e;}.cls-1,.cls-2,.cls-3,.cls-4,.cls-5{fill-rule:evenodd;}.cls-2{fill:#eea600;}.cls-3{fill:#fdda72;}.cls-4{fill:#ffe694;}.cls-5{fill:#ffedb4;}</style></defs><g id="레이어_2" data-name="레이어 2"><g id="Layer_1" data-name="Layer 1"><path class="cls-1" d="M37.58,17c-1.06.86-3.52.57-5.11.6-3,.07-5.71-.26-8.94-.22a9.2,9.2,0,0,1-3.07.27c-1.65-.27-3.18.22-4.63.22-2.53,0-4.23-.67-6.8-.24-1,.16-1.42-.43-2.18-.43a10.52,10.52,0,0,1-2.24,0A17.14,17.14,0,0,1,2,16.51C0,16.31-.29,9.67.21,5.28,1-1.61,10.62.28,18.93.77,23,1,34.21.53,37.46,2.17A7.68,7.68,0,0,1,39.27,5a40.73,40.73,0,0,1,.38,4.47C39.68,11.49,39.53,15.41,37.58,17Z"/><path class="cls-2" d="M2,15.2a3.92,3.92,0,0,0-.25.32,1.09,1.09,0,0,0-.13.17.28.28,0,0,1-.24.14.54.54,0,0,1-.34-.12c-.14-.14-.06-.32,0-.45l.12-.17A.28.28,0,0,0,1.25,15c.06-.11.1-.21.17-.32l.09-.14a.9.9,0,0,1-.22.06c-.16,0-.47.13-.56,0a.13.13,0,0,1,.07-.18,2.84,2.84,0,0,0,.82-1,1.67,1.67,0,0,0-.31.28.28.28,0,0,1-.3.09c-.27-.09-.05-.36,0-.47a5.4,5.4,0,0,1,.59-.69c.2-.2.5-.37.71-.57a0,0,0,0,0,0,0h0a4.27,4.27,0,0,0-.6.27l-.51.27a.6.6,0,0,1-.54.07c-.19-.09-.13-.25-.08-.37.27-.61.93-1.45.92-2.1l-.31.24-.33.29a1.27,1.27,0,0,1-.12.1.3.3,0,0,1-.32.05.14.14,0,0,1-.1-.19,11.73,11.73,0,0,1,1-3.57c-.25.4-1,1.63-1.06,1A6.26,6.26,0,0,1,.43,6.89a13.5,13.5,0,0,0,.37-2A.51.51,0,0,1,.35,5C.16,4.9.19,4.74.21,4.62a5.52,5.52,0,0,1,.16-.54A8.25,8.25,0,0,1,.89,2.91,5.41,5.41,0,0,1,5.29.21h0c1.5-.42,2.76-.06,4.3,0L21.88.39a3.17,3.17,0,0,1,.53,0,80.25,80.25,0,0,1,12.05.74,6.51,6.51,0,0,1,2.74.87c.64.46,1,1.11,1.86,2.69.44.83-1-.72-.68.3a12.53,12.53,0,0,1,.86,4.65c0,.36-.61-1.78-1.8-1.59a13.07,13.07,0,0,1,1.14,1.76c.79,2,.62,3.32.4,3.14a8.47,8.47,0,0,0-.79-1c-.74-.74.13.63.17.83a5.1,5.1,0,0,1-.1,2.43c-.27.53-.53-.57-1.18-.52-.29,0,.28,1.5-.08,1.67-.59.28-2.07-.7-2.12-.74-.47-.36-.61-.26-1.1.09-.2.13.79,1.7-.26.56C33,15.69,31.07,14,32.17,16c.8,1.46-.71-.37-1.05-.58-1.45-.89-.71.41-.65.67.25,1-2.35-2.35-2,.09.15,1.12-.86-.47-1.1-.7-1.83-1.76-.51.52-.38.74,1,1.74-1.84-1.13-2.2-1.11a6.05,6.05,0,0,1,.55,1.18c0,.13.08.33-.12.39a.47.47,0,0,1-.45-.15,10.11,10.11,0,0,0-1.41-1.27l.11.17.22.32c.06.09.22.26,0,.34a.29.29,0,0,1-.27-.05c-.23-.19-1.18-1-1.61-.84s-.38,1-.36,1.26l0,.2-.29-.06a1.78,1.78,0,0,1-.85-.57.93.93,0,0,1-.39-.22s-.19-.17-.28-.16-.33.34-.37.43a2.35,2.35,0,0,0-.15.42.57.57,0,0,0,0,.14s0,0,0,0h0a.2.2,0,0,1-.24.11.19.19,0,0,1-.19-.14,5,5,0,0,0-.1-1.22.25.25,0,0,0-.06-.13c-.18.06-.5.5-.57.61a4.57,4.57,0,0,0-.29.47.86.86,0,0,0-.11.29.2.2,0,0,1-.19.13c-.25,0-.26-.2-.28-.3s-.07-.27-.12-.4-.06-.18-.11-.29a2.31,2.31,0,0,0,0,.4v.13l-.37,0-.05-.13a1,1,0,0,0-.31-.42s-.11-.08-.15-.07,0,.08,0,.11a.92.92,0,0,0,.18.39,2,2,0,0,0,.21.2l.22.18.08.05,0,0c.12.1,0,.26-.16.25a2.87,2.87,0,0,1-.88-.24,2.19,2.19,0,0,1-.68-.35,4.28,4.28,0,0,1-1,.34l-.38.09c-.13,0-.29,0-.37-.07s0-.17.08-.23l.16-.09a4.41,4.41,0,0,0,.43-.25c.1-.07.39-.26.37-.37h0a.78.78,0,0,0-.4,0,.7.7,0,0,0-.16.13l-.19.15-.07.06a.28.28,0,0,1-.29,0c-.12,0-.12-.11-.12-.13s0-.78-.27-.79-.34.56-.38.67-.1.29-.14.43a3.21,3.21,0,0,1-.12.33.22.22,0,0,1-.2.1c-.22,0-.22-.15-.23-.25a1.49,1.49,0,0,1,0-.21c0-.08,0-.18,0-.27a4.39,4.39,0,0,0-.31-.85l-.18,0a2.26,2.26,0,0,0-.45,0,1.15,1.15,0,0,0-.26,0c-.19.05-.18.49-.18.61a3.09,3.09,0,0,0,.07.52,1.36,1.36,0,0,0,0,.17c0,.08.06.2-.15.22a.27.27,0,0,1-.24-.09,10.2,10.2,0,0,0-1.17-1.34c-.15.06-.3.44-.33.52a4.21,4.21,0,0,0-.12.48c0,.06,0,.11,0,.17a.2.2,0,0,1-.24.18c-.21,0-.21-.16-.22-.26,0-.41.18-1.11,0-1.53a1.59,1.59,0,0,0-.21.7c0,.12,0,.31-.2.34s-.36-.21-.43-.33l-.15-.29a2,2,0,0,0,0,.8c0,.09.06.2-.1.24a.28.28,0,0,1-.28-.06l-.06-.06-.15-.18L6,15.83A2.06,2.06,0,0,1,5.7,15l-.21.31-.14.2a.31.31,0,0,1-.31.14.19.19,0,0,1-.17-.13l0,.1-.08.16,0,.06a.26.26,0,0,1-.25.08.22.22,0,0,1-.15-.08,1.84,1.84,0,0,1-.07-1,1.43,1.43,0,0,0-.3.57l-.09.26a.25.25,0,0,1-.28.16c-.2,0-.22-.17-.23-.27l0-.34a1.3,1.3,0,0,1,0-.34s0-.06,0-.09a1.11,1.11,0,0,0-.56.57,2.1,2.1,0,0,1-.18.37.32.32,0,0,1-.34.16A.29.29,0,0,1,2,15.65a1.7,1.7,0,0,1,0-.39Z"/><path class="cls-3" d="M.57,4C0,5.59.31,4.16,1.75,4.16A5.61,5.61,0,0,0,.63,6.76a5.05,5.05,0,0,0-.08,1.1A6.32,6.32,0,0,1,1.69,6.43c.45-.43-.81,2.3-1.15,4C.46,10.7,1.69,9.3,1.73,9.9S1.08,11.45.8,12.07c-.36.78,1.69-1,1.74-.29a.44.44,0,0,1,0,.1c-.18.17-.59.43-.74.58-.65.66-.79,1-.67.89A1.56,1.56,0,0,1,2,12.81,3.68,3.68,0,0,1,.92,14.24a2.67,2.67,0,0,0,1-.27l-.35.52a3,3,0,0,0-.16.31c-.05.09-.52.59-.06.6A9.87,9.87,0,0,1,2.57,14a1.46,1.46,0,0,0-.36.73c0,.47,0,1.27.35.34.18-.45.57-.6,1-.86,0,0-.12.5-.1.77,0,.45,0,.69.21.15a1.32,1.32,0,0,1,.56-.8c.68-.45.23-.28.17.25a1.85,1.85,0,0,0,0,.92,7.4,7.4,0,0,1,.66-1.06.76.76,0,0,1,.09-.09,2.52,2.52,0,0,0-.17.88c.1,0,.34-.59.81-1a1.8,1.8,0,0,0,.34,1.19c.06.08.5.65.37.39s-.14-1.24.2-1.22c.26.55.58,1.17.54.67a1.66,1.66,0,0,1,.41-1,.57.57,0,0,1,.12.11c.36.44.07,1.23.11,1.72s.09-1.24.77-1.24c.22,0,1.26,1.31,1.33,1.43s-.39-1.34.18-1.5a3.36,3.36,0,0,1,1.06,0c.18,0,.41.84.44,1s0,.61.07.58c.14-.31.39-1.51.82-1.51s.49.71.5.93c0,0,.28-.24.48-.36s.73-.18.76.07c.06.45-2,1.12-.59.77a3.11,3.11,0,0,0,1.09-.41,1.93,1.93,0,0,0,.74.43,3.17,3.17,0,0,0,.8.22,4.72,4.72,0,0,1-.56-.48c-.62-.79.3-1,.7-.11,0-.06,0-.83.29-.65s.44,1.13.44,1.09c0-.28,1.15-2.17,1.46-1.23a4.66,4.66,0,0,1,.11,1.23s.33-1.75,1.23-.92a.82.82,0,0,0,.36.18,1.66,1.66,0,0,0,.77.54c-.12-1.58.61-1.92,2.34-.5.11.09-1.1-1.38-.18-.85a9,9,0,0,1,1.52,1.33c.53.47,0-.74-.24-1.11s-.19-.35.27-.35a6.77,6.77,0,0,1,1.39,1.19c-.54-1.72.63-1.44,1.92.26,0-1.48.52-1.56,1.72-.52-.13-1.89.85-1.05,1.8,0-.21-.72-.25-1.47,1.75,0a.51.51,0,0,1,.16-.17c.59-.42.92-.58,1.6-.07a5,5,0,0,0,1.53.71c0-.1,0-.22,0-.28a13.2,13.2,0,0,1-.25-1.77c.13-.44.87.51,1.5.53,0-2.8-1.49-2.77-1-3.41s1.87,1,1.84.8A13.32,13.32,0,0,0,38,9.74c-1.68-2.54-.65-2.76.93-1.3a12.48,12.48,0,0,0-.52-2.51c-.29-.82-.91-.92-.1-1.67.5-.46-.47-1.87-1.48-2.22C33.51.89,24.86,1.34,23.88,1.3a3.14,3.14,0,0,0-2-.84L9.63.25c-1.48,0-2.77-.38-4.21,0A5.71,5.71,0,0,0,.57,4Z"/><path class="cls-4" d="M23.6,13.54v0c0,.1-1.71-.29-2.4-.37s.41,1-.84.55c-.7-.26.06,1-.53.61-.41-.26-.86-.88-1.36-.65-1.35.6-.21.89-2.45.2-1.38-.43-1.38.28-1.91.8-.25-.57-.46-1.34-1.52-1.3-.64,0-.54,1.25-.91.83-.16-.18-.24-.44-.44-.61-.12,0-.2.12-.18.45-.17-.41-.92-.43-1.41-.27-.67.21-.28,1-.43.83a10.35,10.35,0,0,1-.73-1,16.4,16.4,0,0,0-2.2-.39c-.21,0-1.12.33-1,.14s.88-.57.35-.66c-1-.15-1.54.36-2.28.42-.37,0,1.28-1,.61-1s-1.48.71-1.45.46c0-.44,3-3.82-.23-2.43-1.43.61-.22-.14.15-.63a2.76,2.76,0,0,1,.44-.46C3,8.7,3.22,8,3.05,8a2.22,2.22,0,0,0-1.36.57c.34-.33.57-.69.85-1,.19-.54.89-1.56-.08-1-.6.31,1.69-2.76.35-1.94-.24.15-.55.5-.81.57.11-.52,1-1.79.94-2.21s-1.75.65-1.65.33a1.9,1.9,0,0,1,.45-.66H1.68a1.92,1.92,0,0,1,.82-.7C4.24.22,6.57.45,8.84.47A2.78,2.78,0,0,1,9.53.39a5.65,5.65,0,0,1,1,.07c1.47-.34,4.57.1,5.75.12s4.9-.2,6.42,0C28.09.6,33.84.92,36.5,1.75c1.56.48,1.22,2.81.92,2.48-.51-.55-1.41-.29-1,.87.58,1.57.68,1.22-.43,1.22-1.65,0,.46,2.45.68,2.76,1.66,2.42-.19.13-.8.51-.08.05.3.63.44,1.12.19.72.18,1.4.1,1.26-.39-.8-1.27-1-1.16-.54.33,1.28,1.5,2.44.35,1.76-1.69-1-1-.21-.93,1-.33-.94-4.08-1.17-5-.91-1.38.39.13.83-2.3-.65a.72.72,0,0,0-1,.26c-.66,1.23-1.46.73-2.77.65Z"/><path class="cls-5" d="M2.49,7.57a3.25,3.25,0,0,1,.45-.46c.27-.59.86-1.46.63-1.74-.43-.55.88-1.23.16-1.38-1.8-.38,1.8-1.23.61-1.46a15.78,15.78,0,0,0-2.66,0C2.19,1.31,4.19,1.15,6.74.84c4.47-.54,19-.21,24.81.48,6.62.78,4.32,2,4.32,2,.2.51-.41-.14-.75-.21-.58-.13.49,1.14.51,1.48,0,.54-1-.13-.77.6.14.52,0,1.28-.26,1.48-.61.42.24,1.27.32,2.36-2.2-3.09,1.11,3.41-1.28,1.78-1.24-.85-1.94-.62-.68.74.71.77-3.26-1-3.81-1s.66,1,.74,1.09c.4.49,0,.43-.37.43-1.68,0-.76-1.29-1.56,0a15.78,15.78,0,0,1-2.23-1,.75.75,0,0,0,0,.2c.36,1.39.07.9-.84.22-1.1-.83-2-1.72-1,.3.73,1.53-1.62-.43-1.56.48-.16-.46-1.57-1.56-1.86-.74-.65,1.85.65.13-1.34-.08-.91-.1-3.58-1.35-3.57-1.22,0,.4,1,1.78.39,1.78a8.1,8.1,0,0,1-2.47-.87c.28.3.22,1.18-.1,1.18s-1.1-1.13-1.57-1.22-1.26.64-1.59.43c-1.22-.75-3.42,1-3.83-1.22C6.18,9.12,5,11.75,4.87,10c0-.38-.87-1.64-1.31-1.13-.16.18,0-.59.23-1.34H2.49Z"/></g></g></svg>