<svg width="114" height="114" viewBox="0 0 114 114" fill="none" xmlns="http://www.w3.org/2000/svg">
<path d="M57 16.2857L36.6429 32.5714H77.3572L57 16.2857Z" fill="#FFF8BB"/>
<path d="M85.5 44.7856C85.1292 39.4939 28.1039 39.4194 28.5 44.7856C28.8961 50.1519 24.4286 65.1427 24.4286 65.1427L36.6429 97.7142L57 101.786L77.3572 97.7142L89.5714 65.1427C89.5714 65.1427 85.8708 50.0774 85.5 44.7856Z" fill="#FF0000"/>
<path d="M74.607 62.352C78.0174 62.352 80.782 59.5873 80.782 56.177C80.782 52.7666 78.0174 50.002 74.607 50.002C71.1966 50.002 68.432 52.7666 68.432 56.177C68.432 59.5873 71.1966 62.352 74.607 62.352Z" fill="black"/>
<path d="M70.997 86.9568C73.7603 86.9568 76.0003 84.7167 76.0003 81.9534C76.0003 79.1901 73.7603 76.9501 70.997 76.9501C68.2337 76.9501 65.9937 79.1901 65.9937 81.9534C65.9937 84.7167 68.2337 86.9568 70.997 86.9568Z" fill="black"/>
<path d="M40.7235 62.352C44.1338 62.352 46.8985 59.5873 46.8985 56.177C46.8985 52.7666 44.1338 50.002 40.7235 50.002C37.3131 50.002 34.5485 52.7666 34.5485 56.177C34.5485 59.5873 37.3131 62.352 40.7235 62.352Z" fill="black"/>
<path d="M44.3021 86.9568C47.0654 86.9568 49.3054 84.7167 49.3054 81.9534C49.3054 79.1901 47.0654 76.9501 44.3021 76.9501C41.5388 76.9501 39.2988 79.1901 39.2988 81.9534C39.2988 84.7167 41.5388 86.9568 44.3021 86.9568Z" fill="black"/>
<path d="M97.6277 63.3333H91.8327C91.5168 57.1302 90.2568 51.0115 88.096 45.1883L92.7193 42.6867C93.4584 42.2877 94.0087 41.6115 94.2492 40.8069C94.4898 40.0022 94.4008 39.1349 94.0018 38.3958C93.6029 37.6568 92.9267 37.1064 92.122 36.8659C91.3173 36.6254 90.4501 36.7144 89.711 37.1133L80.211 42.3067C83.6336 49.6034 85.4376 57.554 85.4993 65.6133C85.4993 85.5 75.366 98.895 59.5327 100.13V47.5H54.466V100.13C38.696 98.8317 28.4993 85.5 28.4993 65.6133C28.6386 57.5625 30.5069 49.6356 33.9777 42.37L24.3827 37.1133C23.6436 36.7144 22.7763 36.6254 21.9716 36.8659C21.167 37.1064 20.4908 37.6568 20.0918 38.3958C19.6929 39.1349 19.6039 40.0022 19.8444 40.8069C20.0849 41.6115 20.6353 42.2877 21.3743 42.6867L26.1243 45.22C23.9709 51.0343 22.7111 57.1414 22.3877 63.3333H16.371C15.5312 63.3333 14.7257 63.6669 14.1318 64.2608C13.538 64.8547 13.2043 65.6601 13.2043 66.5C13.2043 67.3398 13.538 68.1453 14.1318 68.7392C14.7257 69.333 15.5312 69.6667 16.371 69.6667H22.4827C22.7729 76.4873 24.568 83.1594 27.7393 89.205L21.7543 93.385C21.3544 93.5918 21.0031 93.8815 20.724 94.2348C20.4449 94.5881 20.2443 94.9968 20.1356 95.4338C20.027 95.8707 20.0128 96.3258 20.0939 96.7687C20.1751 97.2116 20.3497 97.632 20.6063 98.0021C20.8628 98.3721 21.1953 98.6832 21.5815 98.9145C21.9678 99.1459 22.399 99.2922 22.8462 99.3438C23.2935 99.3953 23.7467 99.3509 24.1754 99.2134C24.6042 99.076 24.9987 98.8487 25.3327 98.5467L31.1593 94.4617C34.2776 98.2957 38.2203 101.377 42.6941 103.477C47.1679 105.577 52.0575 106.641 56.9993 106.59C61.9254 106.639 66.7994 105.58 71.2612 103.492C75.7229 101.404 79.6582 98.3391 82.776 94.525L88.666 98.5467C89.007 98.7858 89.3917 98.9554 89.7983 99.0458C90.2048 99.1362 90.6252 99.1457 91.0354 99.0736C91.4456 99.0016 91.8376 98.8495 92.189 98.6259C92.5404 98.4024 92.8444 98.1118 93.0835 97.7708C93.3226 97.4298 93.4922 97.0451 93.5826 96.6385C93.6731 96.232 93.6825 95.8116 93.6105 95.4014C93.5384 94.9912 93.3863 94.5992 93.1628 94.2478C92.9392 93.8964 92.6487 93.5924 92.3077 93.3533L86.4177 89.2367C89.5835 83.1794 91.3679 76.4959 91.6427 69.6667H97.6277C98.4675 69.6667 99.273 69.333 99.8668 68.7392C100.461 68.1453 100.794 67.3398 100.794 66.5C100.794 65.6601 100.461 64.8547 99.8668 64.2608C99.273 63.6669 98.4675 63.3333 97.6277 63.3333Z" fill="black"/>
<path d="M36.4481 16.973C37.737 16.8671 38.9425 16.2926 39.8364 15.358C41.3776 16.2261 42.6656 17.4814 43.5731 18.9997C40.4195 21.7032 37.6021 24.7758 35.1814 28.1514C34.4832 29.0946 34.0607 30.2132 33.9612 31.3825C33.8616 32.5517 34.0889 33.7257 34.6177 34.7733C35.1464 35.821 35.9558 36.7011 36.9556 37.3155C37.9554 37.93 39.1063 38.2545 40.2798 38.253H73.8465C75.0094 38.2555 76.1506 37.9376 77.1449 37.3343C78.1392 36.7311 78.9482 35.8657 79.4831 34.833C80.0211 33.7843 80.2557 32.6062 80.1606 31.4314C80.0655 30.2566 79.6444 29.1316 78.9448 28.183C76.4975 24.7901 73.6478 21.7065 70.4581 18.9997C71.3739 17.5318 72.6491 16.322 74.1631 15.4847C74.9833 16.322 76.0571 16.8651 77.2176 17.0294C78.3782 17.1938 79.5605 16.9703 80.581 16.3936C81.6014 15.8169 82.4029 14.9194 82.8608 13.8404C83.3187 12.7615 83.4075 11.5615 83.1134 10.4269C82.8192 9.29225 82.1586 8.28655 81.2341 7.56599C80.3096 6.84542 79.173 6.45034 78.001 6.44211C76.8289 6.43389 75.6869 6.81298 74.7524 7.52049C73.8179 8.228 73.1432 9.22433 72.8331 10.3547C70.2479 11.5474 68.0524 13.4465 66.4998 15.833C63.7503 13.9577 60.5437 12.8633 57.2214 12.6664C53.8235 12.8265 50.5359 13.9224 47.7214 15.833C46.1091 13.4142 43.8331 11.512 41.1664 10.3547C40.9155 9.37205 40.3889 8.48159 39.6488 7.78827C38.9086 7.09494 37.9856 6.62763 36.9887 6.44141C35.9917 6.25518 34.9623 6.35781 34.0218 6.73718C33.0812 7.11656 32.2687 7.75688 31.68 8.58269C31.0912 9.4085 30.7508 10.3854 30.6988 11.3982C30.6468 12.4111 30.8854 13.4177 31.3865 14.2995C31.8876 15.1812 32.6303 15.9014 33.5271 16.375C34.4238 16.8487 35.4373 17.0562 36.4481 16.973ZM56.9998 19.2214C61.5914 19.2214 68.1781 24.193 73.8148 31.888H40.2481C45.8848 24.1614 52.4398 19.2214 56.9998 19.2214Z" fill="black"/>
</svg>
