<svg xmlns="http://www.w3.org/2000/svg" viewBox="0 0 106.6 200.07"><defs><style>.cls-1{fill:#6e8420;}.cls-2{fill:#59721e;}.cls-3{fill:#ffd833;}.cls-4{fill:#ffc32c;}.cls-5{fill:#e6e7e8;}.cls-6{fill:#fff;}</style></defs><g id="레이어_2" data-name="레이어 2"><g id="Indoor_Gardening" data-name="Indoor Gardening"><path class="cls-1" d="M32.74,129c11.33,5.73,14.15,15.09,10.21,22.89S29.8,162.93,18.46,157.2,0,130.14,0,130.14,21.4,123.23,32.74,129Z"/><path class="cls-2" d="M51,200.07a2.64,2.64,0,0,1-2.64-2.64V171.75A24.82,24.82,0,0,0,34,149.28l-3.84-1.78a2.64,2.64,0,0,1,2.21-4.79l3.84,1.77a30.13,30.13,0,0,1,17.44,27.27v25.68A2.64,2.64,0,0,1,51,200.07Z"/><path class="cls-1" d="M32.74,73.21C44.07,78.94,46.89,88.3,43,96.1s-13.15,11.08-24.49,5.35S0,74.39,0,74.39,21.4,67.48,32.74,73.21Z"/><path class="cls-2" d="M51,200.07a2.64,2.64,0,0,1-2.64-2.64V129.88A216.18,216.18,0,0,1,63.44,50.37a2.64,2.64,0,0,1,4.92,1.93,210.86,210.86,0,0,0-14.73,77.58v67.55A2.64,2.64,0,0,1,51,200.07Z"/><path class="cls-1" d="M69.35,102.61C58,108.34,55.2,117.71,59.14,125.5s13.15,11.08,24.48,5.35,18.47-27.06,18.47-27.06S80.69,96.88,69.35,102.61Z"/><path class="cls-2" d="M51,200.07a2.64,2.64,0,0,1-2.64-2.64V116A24.84,24.84,0,0,0,34,93.53l-3.84-1.77A2.64,2.64,0,0,1,32.35,87l3.84,1.78A30.1,30.1,0,0,1,53.63,116v81.43A2.64,2.64,0,0,1,51,200.07Z"/><path class="cls-2" d="M51.1,200.07a2.64,2.64,0,0,1-2.64-2.64V143.87A30.11,30.11,0,0,1,65.9,116.61l3.84-1.77A2.64,2.64,0,1,1,72,119.63l-3.84,1.78a24.82,24.82,0,0,0-14.37,22.46v53.56A2.64,2.64,0,0,1,51.1,200.07Z"/><path class="cls-3" d="M66.88,3.32A7.6,7.6,0,0,0,53,7.83l.13,4.94-4.65-1.66a7.61,7.61,0,0,0-8.58,11.8l3,3.92-4.74,1.39a7.61,7.61,0,0,0,0,14.59l4.74,1.39-3,3.92a7.61,7.61,0,0,0,8.58,11.8l4.65-1.66L53,63.2a7.6,7.6,0,0,0,13.87,4.51l2.79-4.08V7.4Z"/><path class="cls-4" d="M101.15,28.22l-4.74-1.39,3-3.92a7.6,7.6,0,0,0-8.57-11.8L86.2,12.77l.13-4.94A7.6,7.6,0,0,0,72.46,3.32L69.67,7.4V63.63l2.79,4.08A7.6,7.6,0,0,0,86.33,63.2l-.13-4.94,4.65,1.66a7.6,7.6,0,0,0,8.57-11.8l-3-3.92,4.74-1.39A7.61,7.61,0,0,0,101.15,28.22Z"/><path class="cls-5" d="M69.67,25.86V45.17a9.66,9.66,0,1,0,0-19.31Z"/><path class="cls-6" d="M60,35.52a9.66,9.66,0,0,0,9.66,9.65V25.86A9.66,9.66,0,0,0,60,35.52Z"/></g></g></svg>