<svg xmlns="http://www.w3.org/2000/svg" viewBox="0 0 92.18 79.32"><defs><style>.cls-1{fill:#592b06;}.cls-2{fill:#6d390a;}.cls-3{fill:#471f04;}.cls-4{fill:#915922;}.cls-5{fill:#aa692e;}.cls-6{fill:#7f491c;}.cls-7{fill:#824b19;}.cls-8{fill:#93552b;}.cls-9{fill:#683411;}.cls-10{fill:#5b2b07;}.cls-11{fill:#935527;}.cls-12{fill:#93b40d;}.cls-13{fill:#43d7ef;}.cls-14{fill:#bae64a;}.cls-15{fill:#a06422;}.cls-16{fill:#c98441;}.cls-17{fill:#ba8342;}.cls-18{fill:#fcbf75;}.cls-19{fill:#845e42;}.cls-20{fill:#7a5739;}.cls-21{fill:#4078b5;}</style></defs><g id="레이어_2" data-name="레이어 2"><g id="_Layer_" data-name="&lt;Layer&gt;"><path class="cls-1" d="M22.34,13.23a8.53,8.53,0,0,1-.15,1.53l-.07,0c.25.13.88-.17,1.2-.18s1,.19.88-.37c-.17-1-1.13-1.53-1.61-2.32C22.53,12.35,22.39,12.78,22.34,13.23Z"/><path class="cls-1" d="M74.26,20.81h.16l-.15-.11S74.26,20.78,74.26,20.81Z"/><path class="cls-1" d="M72.64,20.53c.59,0,1.13-.13,1.63.17,0-1.29.21-2.55.19-3.79-.34-.11-1.23.62-1.56.8a5.67,5.67,0,0,0-1.83,1.13c-.46.51-.71,1,0,1.34A3.58,3.58,0,0,0,72.64,20.53Z"/><path class="cls-2" d="M90.66,26.54l-1.12-.39c-3-.85-6.46-.86-9.63-1a40.12,40.12,0,0,0-20,3.85c-6.58,3.2-14,9.09-16.42,16.43C41.77,50.56,40.51,56.53,41.32,62c.86,5.77,3.9,11.49,3.83,17.33,3.21-.71,5.69-4.6,9-5.73,0,0,2.56,1.71,5.89-1.18,4.48-3.89,9-8.41,14.33-9.9,5.9-1.65,8.27-7.92,11.39-9.83,2.54-6-.69-7.21,1.76-11.65C90.66,35.43,89,31.29,90.66,26.54Z"/><path class="cls-1" d="M60.08,72.41c1.56-1.36,3.13-2.79,4.74-4.14.12-2.2.49-4.41.83-6.63.39-2.58.95-5.66-.09-8.16-.45-1.09-3.22-3.17-3.22-3.17-.93,2.73-1,8.18-1.72,11s-1.28,5.41-1.72,8.14a27.43,27.43,0,0,0-.37,3,5.72,5.72,0,0,0,0,.85.67.67,0,0,1,.09.14A8.53,8.53,0,0,0,60.08,72.41Z"/><path class="cls-3" d="M62.48,52.73c0,6.51-.23,13.94-2,19.31,1.1-1,2.21-2,3.33-2.92.25-1.87.57-3.73.84-5.6C65.12,60.56,63.09,55.3,62.48,52.73Z"/><path class="cls-1" d="M80.55,48.93a76.69,76.69,0,0,0-1.13,10.59c2.61-2.47,4.34-5.59,6.38-6.84,2.54-6-.69-7.21,1.76-11.65,3.1-5.6,1.41-9.74,3.1-14.49l-1.12-.39-.28-.07c-1.86,1.06-3.66,2.22-5.43,3.44a12.43,12.43,0,0,1,3.7.75,2,2,0,0,1,1,3C87.17,39.17,81.85,43,80.55,48.93Z"/><path class="cls-3" d="M89.08,37.31c-1.57,2.75-3.34,5.37-5.15,8-1,3.72-2.07,7.42-3,11.16a42.12,42.12,0,0,1,5.89-7.89c.12-2.79-1-4.35.73-7.52A16.31,16.31,0,0,0,89.08,37.31Z"/><path class="cls-1" d="M44.74,50.83a1.54,1.54,0,0,1-.37,0c-.26,6.84-.36,13.7-.57,20.54a27.33,27.33,0,0,1,1.35,7.94,10.61,10.61,0,0,0,4.22-2.5c0-.43,0-.87-.08-1.3a23,23,0,0,0-.88-6.08c-.56-1.62-1.58-3.2-1.88-4.9-1-5.71,1.12-10.35,4.5-14.52C49,50.39,46.88,50.54,44.74,50.83Z"/><path class="cls-1" d="M67.75,66a26.67,26.67,0,0,1,3.67-2.26c.1-1.47.22-2.93.41-4.38a45.86,45.86,0,0,1,2.69-9.73c1-3,.32-6.14,1.32-9.07.79-2.3,1.87-4.38,2.46-6.66a9.14,9.14,0,0,1-4.47,1.27c-1.72,0-3.47-.26-5.13.32.1,0-4.87,1.17-3.64,1.73a13.84,13.84,0,0,1,1.94.52c.16.06,4-.09,4-.09-2.8,6.68-2.2,16.48-2.74,23.56C68.12,62.77,68,64.37,67.75,66Z"/><path class="cls-3" d="M67.75,66l.91-.64c.15-2.83.54-5.65.85-8.48.34-3.06.47-6.12,1.07-9.14,1-5.18,2.25-8.84,6.35-12.3a2,2,0,0,1,1-.45c.12-.36.23-.72.32-1.09a9.14,9.14,0,0,1-4.47,1.27c-1.72,0-3.47-.26-5.13.32.1,0-4.87,1.17-3.64,1.73a13.84,13.84,0,0,1,1.94.52c.16.06,4-.09,4-.09-2.8,6.68-2.2,16.48-2.74,23.56C68.12,62.77,68,64.37,67.75,66Z"/><path class="cls-1" d="M56.44,57.27c1.43-3.77,1-7.53,3.62-11.25.6-.86,4.64-5.54,4.81-6.52C62,40.56,53.48,46.22,51.86,49a75.45,75.45,0,0,1,.5,9.14c-.07,3.07-.5,6.1-.15,9.17.26,2.27.65,4.53.92,6.8a7.34,7.34,0,0,1,.86-.39,30.83,30.83,0,0,1,.84-7.16C55.34,63.32,55.27,60.35,56.44,57.27Z"/><path class="cls-3" d="M59.26,43.46c0-.15,0-.29.07-.44A14.72,14.72,0,0,0,51.86,49a75.45,75.45,0,0,1,.5,9.14c-.07,3.07-.5,6.1-.15,9.17.26,2.27.65,4.53.92,6.8a7.35,7.35,0,0,1,.76-.34c-.23-5.69-.3-11.38-.1-17.06C54,51.21,56.54,47.88,59.26,43.46Z"/><path class="cls-4" d="M44.39,45.83C42,39.17,32,33.22,25.92,30.35s-14.38-2.85-21-3.17a16.9,16.9,0,0,1-4.79-.69c0,5.32.18,11,2.67,15.56,1,1.88,2.11,9,4.25,13C8.5,57.82,10,57.2,12.29,58.13c3.61,1.47,5.41,6.59,11.53,10,2.18,1.2,3.54,4.26,8.09,5.78a13.39,13.39,0,0,0,5.77.28c2.64,1.07,2.73,3.53,7.47,5.17.15-5.29-.32-10.74-.32-16.38C44.83,57.85,46.11,50.53,44.39,45.83Z"/><path class="cls-2" d="M19.94,65.3a20.38,20.38,0,0,0,3.88,2.79c1.31.72,2.33,2.12,3.93,3.45a63.22,63.22,0,0,1-3-8.73c-1-3.89-1.3-8-2.36-11.88a.5.5,0,0,1,0,.12,18.15,18.15,0,0,1,.54,6.76C23,61.11,22.28,64.14,19.94,65.3Z"/><path class="cls-5" d="M44.72,51.59a9.63,9.63,0,0,0-3.12-1.85c0,.09,0,.18,0,.3l.12.4a2.3,2.3,0,0,1,.4.42c3.06,4.3,1.83,9.53,2,14.45.15,4.24.7,8.46,1,12.69,0-4.88-.34-9.88-.34-15.06,0-3.2.51-7.29.46-11A2,2,0,0,1,44.72,51.59Z"/><path class="cls-5" d="M41.25,77.11c-.3-3.52-.73-7-.85-10.58-.06-1.61.08-3.37.15-5.13a53.77,53.77,0,0,1-2.22-8.89c-.76-2.14-1.43-4.56.09-5.76a4,4,0,0,1,1.25-.69,3.31,3.31,0,0,0-.89-.42A11.58,11.58,0,0,1,35.1,47,53.35,53.35,0,0,1,38.19,66l.07.19a7.5,7.5,0,0,1-.14,3.55,2.77,2.77,0,0,1,0,.3,30.08,30.08,0,0,1-.26,4.18C39.32,74.9,40,76,41.25,77.11Z"/><path class="cls-5" d="M.73,26.67q-.3-.08-.6-.18c0,5.32.18,11,2.67,15.56,1,1.88,2.11,9,4.25,13a4,4,0,0,0,2.7,2.33C7.58,52.91,3.65,46,6,41.46A25.23,25.23,0,0,1,2.6,38a18.84,18.84,0,0,1-1.16-6,30.25,30.25,0,0,1,.13-4.56A8.11,8.11,0,0,1,.73,26.67Z"/><path class="cls-5" d="M16.61,61.82c.1-2.36.27-4.74.28-7.12,0-5.4-2.34-10.64-.34-15.88a9.58,9.58,0,0,1-1.15-1.35A37,37,0,0,0,12,35.36a21.31,21.31,0,0,1-.18,2.25,2.11,2.11,0,0,1,0,.25A51.7,51.7,0,0,1,14,47.18a2.08,2.08,0,0,1,.17.48c.14.77.28,1.52.41,2.27a2,2,0,0,1,.29.94,77.18,77.18,0,0,1,.31,9.36C15.62,60.72,16.1,61.25,16.61,61.82Z"/><path class="cls-6" d="M14.17,31.65c-1.7-.28-5.88-.82-6.26-.8a55.74,55.74,0,0,0,1.38,9.09c.86,3.14,2.47,5.9,3.49,9a59.59,59.59,0,0,1,2.36,11.33c.3.3.59.62.89,1a98.43,98.43,0,0,0-1.77-18.41A67.81,67.81,0,0,1,12.89,36C13.18,35.57,14.46,31.72,14.17,31.65Z"/><path class="cls-1" d="M14.17,31.65C12.47,31.37,3,28.39,2.6,28.4c1.27,2.19,4.57,3.85,5.76,4.18,3.07,1.08,3,3.1,3.61,5.48.74,3.14,1.44,6.33,2.07,9.49a63.83,63.83,0,0,1,1.67,13.28c.1.12.21.23.32.35a98.43,98.43,0,0,0-1.77-18.41A68.16,68.16,0,0,1,13,35.87C13.24,35.46,14.46,31.72,14.17,31.65Z"/><path class="cls-6" d="M42.63,44.19c-3.12.09-12.81-1.37-12.07.6C32.75,48,35,52.68,36.47,61.63c.69,4.21.73,8.3,1.21,12.52.18.09.67.34.83.44.22-2.25.52-4.5.72-6.78.53-6.42-1.6-13.6-2.18-20C37.05,47.85,41.61,45.49,42.63,44.19Z"/><path class="cls-1" d="M42.63,44.19c-3.12.09-18-5.74-20.93-4.69l3.58,2.56c3.21,1.23,8.29,5.69,8.27,5.83.74.45,3.46,6.8,4,9.4a47.49,47.49,0,0,1,.56,17.06,3.62,3.62,0,0,1,.43.24c.22-2.25.52-4.5.72-6.78.53-6.42-1.6-13.6-2.18-20C37.05,47.85,41.61,45.49,42.63,44.19Z"/><path class="cls-7" d="M72.48,45c-.25,2,.73,12.34.2,14.26,1.91-.07,1.43-.51,3.34-.7,1.55-.15,5-8.12,6.49-8.69s4.5-2.4,5.42-3.77.83-2.4,1.53-3.83,1.45-1.45,2.43-2.75-1-6-1-6l-7.55,2.74c-.8.35-1.64.63-2.45.95l-1.33.54a52.53,52.53,0,0,1-5.39,2,.51.51,0,0,1-.17,0,.62.62,0,0,1-.4,0l-.16.06s.05,2,0,2.57C73.26,43.33,72.6,44,72.48,45Z"/><path class="cls-8" d="M76.36,53.78a36.67,36.67,0,0,0-1,4.85l.68-.09a1.1,1.1,0,0,0,.58-.32,39.32,39.32,0,0,1,3.61-8.62,48.56,48.56,0,0,0,2.71-6.49c.35-1,1-1.58-.81-1.73-.92-.07-1.83-.13-2.75-.16,1.21,1.62,2.31,2.85,1.19,5.16C79.34,48.88,77.1,51.06,76.36,53.78Z"/><path class="cls-9" d="M76.18,58.5c1.61-.6,4.88-8.1,6.33-8.65s4.5-2.4,5.42-3.77.83-2.4,1.53-3.83,1.45-1.45,2.43-2.75-1-6-1-6c0-.23-5,1.77-8.78,4.9-.82.9-.1,3.3-.09,3.54.17,3-.39,4.54-2.66,7.84A20.58,20.58,0,0,0,76.18,58.5Z"/><path class="cls-1" d="M76.18,58.5c.71-.27,1.76-1.9,2.82-3.67-.79-3.07,1.46-5.94,3.36-8.44a31,31,0,0,1,2-5.67l-.07,0a5.89,5.89,0,0,0-.57-.41,4.13,4.13,0,0,0-1.93.24c.09.7.25,1.32.26,1.44.17,3-.39,4.54-2.66,7.84A20.58,20.58,0,0,0,76.18,58.5Z"/><path class="cls-9" d="M67.93,68.11c1-.72,1.54-5.33,2.32-8.59.68-2.86,4.79-6.89,4.88-9.85L75,49.8c-1.92-1.62-4.1.16-5.78.81-2.27.87-4.74.11-6.88-.3a41.67,41.67,0,0,0,.45,6.07c.18,2.06,1,10.75,1,12.74C65.34,69.65,66.49,69.16,67.93,68.11Z"/><path class="cls-1" d="M68.23,57c1.18-3,4.44-3.88,6.62-5.95a5.64,5.64,0,0,0,.27-1.21A13.37,13.37,0,0,1,68,53a.75.75,0,0,1,0,.2,60.57,60.57,0,0,0-2,16,5.8,5.8,0,0,0,1.45-.73c0-2.37.15-4.74.29-7.12A14.81,14.81,0,0,1,68.23,57Z"/><path class="cls-7" d="M66.5,69a61.58,61.58,0,0,1,3-19,17.46,17.46,0,0,1-7.17.29,41.67,41.67,0,0,0,.45,6.07c.18,2.06,1,10.75,1,12.74A3.33,3.33,0,0,0,66.5,69Z"/><path class="cls-8" d="M65.93,69.19A3.28,3.28,0,0,0,66.5,69a64.09,64.09,0,0,1,2-15.46,5.91,5.91,0,0,1-2.83-.36c1.45,2.09,1.33,4.18.91,6.6A64.78,64.78,0,0,0,65.93,69.19Z"/><path class="cls-2" d="M9.65,46.76c.2,2.12,1.54,5,2.44,7.06a69.4,69.4,0,0,1,2.71,6.8c.22,0,.69.23.91.21a41.12,41.12,0,0,0-.38-7.09c-.92-5.35-1.43-7.31-2.08-10C12.13,44.49,10.92,46.25,9.65,46.76Z"/><path class="cls-10" d="M13.34,44.12l-.09-.36c-1.12.73-2.33,2.49-3.6,3,.2,2.12,1.54,5,2.44,7.06a69.4,69.4,0,0,1,2.71,6.8,1,1,0,0,1,.21,0c-.7-2.94-1.33-5.88-2.14-8.81-.3-1.11-.85-2.55-.58-3.75A25.09,25.09,0,0,0,13.34,44.12Z"/><path class="cls-6" d="M4.72,45c1.87,2.56,4.08,5,5.3,7.88,1,2.33,2.21,7,4.78,7.71-1-4-3-9.27-3.78-12.23C10.58,46.82,7.7,42,4.72,45Z"/><path class="cls-6" d="M4.72,45h0l0,0Z"/><path class="cls-11" d="M4.72,45l.12.16a.84.84,0,0,1,.37.07c4,1.77,5.61,4,6.82,8.15a39,39,0,0,0,2.39,6l.19.45c-1-3.89-2.84-8.7-3.59-11.48C10.58,46.82,7.7,42,4.72,45Z"/><path class="cls-6" d="M41.46,73.24c-.11-4,1.46-8.54,2.29-12.23-2,.06-2.38-2.54-3-4.2s-1-3.73-1.5-5.1L39,51.59c.6,1.84.64,4.06,1.19,6a19.8,19.8,0,0,0,.8,2.51,3.34,3.34,0,0,0,.47.92c.25.28.8.31.93.58.22.46-.37,1.7-.52,2.24a9.08,9.08,0,0,0-.44,2.81c0,1.19,0,2.4,0,3.59C41.41,71.18,41.09,72.4,41.46,73.24Z"/><path class="cls-2" d="M21.36,44.79c-.15-.77-.33-4.54-.55-5.29-.6-.4-1.74-.32-2.43-.55-.42-.14-2-.35-1.74-.11l-.12-.12c.24.74,0,5.41,0,6.17.48-.09,1.34-3,1.88-2.94a11.34,11.34,0,0,1-.13,4c1.49.87.94,2.16.8,3.6-.16,1.65,1,.7.87,2.36-.09,1.37-1.19,5.22-1,6.58a17.6,17.6,0,0,1,1,3.59c0,.12,0,0,.12-.17-1-3.59.18-7.16,1.25-10.65,0-.7,0-1.41,0-2.13l.06-1.51C21.05,45.89,21.41,46.59,21.36,44.79Z"/><path class="cls-12" d="M74.44,16.88c-5-5.36-11.59-5.46-15.67-9C56.75,6.06,47.6,1.62,45.16,0,39.6,3.33,35.52,3.28,33.1,6.51S25.91,10.07,22.56,12c.19.46.62,1.55.83,2-4.24-.75-9.53,3.74-13.62,6.46C6.21,22.88,0,26.32,0,26.32c4.67,5.09,8.69,6,13.42,6.68.34.88-.93,2.26-.29,3.71,2,4.49,16.92,6.42,20.47,10.48.86,1,5.32-1.26,5.32-1.26,0,.8-1.87,1.92-1.87,1.92,4.39,2.53,6.48,5.09,8.37,4.82s6.88-3.31,8.52-4.32c3.18-2,4.2-4.06,7.61-5.35,4.18-1.58,6.38-1.66,9.44-5.4a40,40,0,0,0-5-.51c4.34-2,9.46-.6,13.81-3.2,3.45-2.06,6.93-6.58,10.89-7.35-1.34-1.43-4.82-4.07-13.46-8.24l-5.41,1A27.25,27.25,0,0,0,74.44,16.88Z"/><path class="cls-13" d="M23.66,41.79c-.94-.13-1.88-.27-2.82-.47h-.3c1.21.45,2.48.89,3.74,1.33l-.21-.13A.85.85,0,0,1,23.66,41.79Z"/><path class="cls-14" d="M56.37,45.71c-1.59,1.58-8.85,5.74-11,6.14-1.62.3-2.21-1.58-6.49-3.73-1-.51,1.21-2.54,1.35-3a17.82,17.82,0,0,0-4.47,1.31,3,3,0,0,1-2.45-.22c-3.64-3.59-13.43-5.59-16-6.7-1.44-.62-3.55-1.93-3.75-3.57a6.43,6.43,0,0,1,.72-2.74c.44-1.37-1.85-1.09-2.52-1.23C9.19,31.42,2.5,29.26,0,26.31H0c4.67,5.09,8.69,6,13.42,6.68.34.88-.93,2.26-.29,3.71,2,4.49,16.92,6.42,20.47,10.48.86,1,5.32-1.26,5.32-1.26,0,.8-1.87,1.92-1.87,1.92,4.39,2.53,6.48,5.09,8.37,4.82s6.88-3.31,8.52-4.32c3.18-2,4.2-4.06,7.61-5.35,4.18-1.58,6.38-1.66,9.44-5.4a40,40,0,0,0-5-.51c4.34-2,9.46-.6,13.81-3.2,2.77-1.66,5.55-4.88,8.59-6.5-2.14.49-4.08,2.42-5.86,3.68-2.54,1.81-4.56,3.39-7.74,3.83-2,.27-7.47.91-8.4,1.48s-1.59.94-.65,1a28.2,28.2,0,0,1,4.32.7c-4.24,3.74-8.82,3.54-10.09,4.33A22.7,22.7,0,0,0,56.37,45.71Z"/><path class="cls-1" d="M87.53,44.25c-.16.59.14,1.79,0,2.37a4,4,0,0,0,.44-.54c.9-1.32.83-2.4,1.53-3.83s1.45-1.45,2.43-2.75-1-6-1-6-.16,0-.44.08a8.15,8.15,0,0,1-2,2.89,9.63,9.63,0,0,1,1.09,3C88.8,41.6,88,42.77,87.53,44.25Z"/><path class="cls-3" d="M83.68,47.76a38.23,38.23,0,0,0,3.85-9.56c-1.55.38-3.84-.26-5.43,0-.52.61,2.53,1.21,2.77,1.87,0,0-.17,1.47-.25,2C84.3,44,84,45.86,83.68,47.76Z"/><path class="cls-15" d="M83.15,38.64c.36-.18,4.08,0,4.47-.16,2.58-1.18,2.66-2.57,3.29-3.67.92-1.59-1.06-2.24-3.62-2-2.92,3.36-9.21,5.6-13.83,7,1.38,1.41,3.69.26,4.84,1.06a6.21,6.21,0,0,0,3.74,1,24.6,24.6,0,0,0,2.83-1.87C85.27,39.72,82.49,39,83.15,38.64Z"/><path class="cls-16" d="M82,41.51c-.83.11-2.88-1-3.74-1.1a18.25,18.25,0,0,1-2.65-.18c-.53-.1-1.29-.45-1.82-.51l-.37.12c1.38,1.41,3.69.26,4.84,1.06a6.21,6.21,0,0,0,3.74,1,24.6,24.6,0,0,0,2.83-1.87c.4-.35-2.38-1.09-1.72-1.43.36-.18,4.08,0,4.47-.16a5.13,5.13,0,0,0,3-3.1c-1.08,1.66-2.35,2.76-6.21,2.27h0a12,12,0,0,0-2.26.6l-.1,0c.42.4.75,1,1.34,1.22C85,40.05,82.65,41.43,82,41.51Z"/><path class="cls-15" d="M69.38,53.64c1.19-.49,5.19-2.49,5.7-3.65.7-1.63-4.89-2.31-6.19-1.81,0,0-1.83,1-2.73,1.38a7.08,7.08,0,0,1-3.82.75,4.29,4.29,0,0,0,.6,1.16C64.28,53,67.52,54.38,69.38,53.64Z"/><path class="cls-16" d="M69.38,53.64a21.74,21.74,0,0,0,5.31-3.14c-3.42,2.62-9.16,3.41-11.95-.14a2.73,2.73,0,0,1-.4,0,4.29,4.29,0,0,0,.6,1.16C64.28,53,67.52,54.38,69.38,53.64Z"/><path class="cls-17" d="M6.16,45.64c1.76.42,3.4,1.72,4.86,2.75,1-1.26,2.23-2.75,2.23-4.63a7.87,7.87,0,0,1-3.5-2.36C7,42.6,2.23,45.08,6.16,45.64Z"/><path class="cls-18" d="M10.37,47.34A12.36,12.36,0,0,0,5.6,45.27c-.93-.19-.79-.55-.86-.71-.23.5.11.9,1.42,1.08,1.76.42,3.4,1.72,4.86,2.75,1-1.23,2.16-2.68,2.22-4.5A11.26,11.26,0,0,1,12,46.47C11.69,47,10.79,47.71,10.37,47.34Z"/><path class="cls-2" d="M30.22,50.93a7.49,7.49,0,0,0-1.53,2.32c-1,2.3-1.56,4-1,6.61a86.1,86.1,0,0,0,2.86,9.26c.72,2.1,1.77,6,3.68,7.39a21.58,21.58,0,0,0,2.42-2.26,55.25,55.25,0,0,1-2.28-11.93c-.4-4-1.06-8-1.36-12A3,3,0,0,0,30.22,50.93Z"/><path class="cls-10" d="M33.08,50.85c0-.16,0-.32,0-.48a3,3,0,0,0-2.81.56,7.49,7.49,0,0,0-1.53,2.32c-1,2.3-1.56,4-1,6.61a86.1,86.1,0,0,0,2.86,9.26c.72,2.1,1.77,6,3.68,7.39.66-.6,1.45-1.21,2.09-1.89-2.49-1.9-2.64-5.4-3.76-8.49A21.84,21.84,0,0,1,31,58.32c0-2.64,1.22-4.58,1.94-7.06A1.68,1.68,0,0,1,33.08,50.85Z"/><path class="cls-6" d="M28.65,52.34c-1.12-.68-2.86-1-4.09-1.77-1.08-.69-6.15-2.94-7.45-2.81.22,3.8,3.77,8.5,5.38,12.56A95.77,95.77,0,0,1,26.77,72c.43,1.6,3.75,1.27,5.3,4.31l2.18.16s-.46-3-.8-4.18C33,70.83,30.62,61.9,30,59,29.6,57.11,30.36,53.39,28.65,52.34Z"/><path class="cls-11" d="M29.58,53.74a9.36,9.36,0,0,1-2.9.29c3,2.74,3.66,7.6,4.34,11.43s2.15,7.33,3,11l.22,0s-.46-3-.8-4.18C33,70.83,30.62,61.9,30,59,29.72,57.63,30,55.32,29.58,53.74Z"/><path class="cls-17" d="M17.42,46.9c-1.39,1.27,2.23,5.52,4.28,6.56a13.89,13.89,0,0,0,7.4,1c2.15-.24,4-4.29,4-4.29-1.26-.84-4-1.18-6-2.49-2.56-1.69-5.71-3.45-5.71-3.45C20,45.63,18.77,45.68,17.42,46.9Z"/><path class="cls-18" d="M17.42,46.9c-1.39,1.27,2.23,5.52,4.28,6.56a13.89,13.89,0,0,0,7.4,1c1.7-.19,3.23-2.77,3.8-3.83-2.85,3.48-5.43,3.93-10.76,2-1.6-.57-5.25-2.94-4.33-6.09C17.68,46.68,17.55,46.79,17.42,46.9Z"/><path class="cls-19" d="M50.72,46.51a.17.17,0,0,0,0-.07l-.21.22A.71.71,0,0,0,50.72,46.51Z"/><path class="cls-20" d="M49.35,42.18l-.12.07.1,0A.29.29,0,0,1,49.35,42.18Z"/><path class="cls-21" d="M5.38,40h0l0,.05S5.37,40,5.38,40Z"/></g></g></svg>