<svg xmlns="http://www.w3.org/2000/svg" viewBox="0 0 593.96 374.92"><defs><style>.cls-1{fill:#bf311f;}.cls-2{fill:#a5241b;}.cls-3{fill:#ff5c28;}.cls-4{fill:#4c131a;}.cls-5{fill:#fff0f0;}.cls-6{fill:#262426;}.cls-7{fill:#fff;}.cls-8{opacity:0.53;}.cls-9{fill:#e24223;}.cls-10{opacity:0.59;}.cls-11{fill:#ffb699;}.cls-12{fill:#662d2d;}</style></defs><g id="레이어_2" data-name="레이어 2"><g id="_Layer_" data-name="&lt;Layer&gt;"><path class="cls-1" d="M484.53,241c-11.67,24.05-41.23,40.78-68.08,34.22a22.88,22.88,0,0,1-6.21-2.46c-8.67-4.86-12.43-14.33-15-24.35a100.08,100.08,0,0,1-3-20.44c-.25-5.16,4.41-25-1.6-27.8-4.56-2.15-5.71-6.11-4.81-9.77a9.28,9.28,0,0,1,1.65-11.27,45.58,45.58,0,0,1,7.27-6c.35-.25.75-.5,1.1-.8,20.74-13.13,53.1-12.33,72.79.6a47.48,47.48,0,0,1,18.59,25.1A58.88,58.88,0,0,1,484.53,241Z"/><path class="cls-2" d="M484.53,241c-11.67,24.05-41.23,40.78-68.08,34.22a22.88,22.88,0,0,1-6.21-2.46,30.67,30.67,0,0,1,1.5-8c1.15-3.51,2.75-7.27,6.46-8.62,4.71-1.75,10.62.65,15.38.75,14.53.35,28.26-6.66,37.88-17.28,6.66-7.32,12.07-16.28,14.22-26A64.83,64.83,0,0,0,487,200.82a25.43,25.43,0,0,1,.2-2.75A58.88,58.88,0,0,1,484.53,241Z"/><path class="cls-3" d="M413.74,279.48c-3.5,2.55-7.46,4.7-11.17,6.91a378.51,378.51,0,0,1-75.45,34c-6.66,2.25-13.42,4.3-20.19,6.21-83.41,23.29-175.59,22.54-259.35,1.25-10.12-2.55-22.45-6-31.32-12.93A29.24,29.24,0,0,1,6.15,301.37a64.23,64.23,0,0,1-3-13.13c-.7-5.56-1-11.17-1.75-16.63a185.19,185.19,0,0,1-.66-40.13A182,182,0,0,1,21,163.8a212.62,212.62,0,0,1,32.62-45.39C98.73,69.87,167.81,53.23,232.44,59.7c72.79,7.31,130.3,52.65,165.47,115.47,1,1.75,2,3.56,3,5.36,6.31,11.47,12.47,23.6,16.88,36.17a105.58,105.58,0,0,1,6.61,31.81C424.86,260.59,423.56,272.31,413.74,279.48Z"/><path class="cls-4" d="M184.43,130c-25.84-8.83-51.69,9.12-51.11,36.18.4,18.92,15.85,32,33.81,33.57,18.47,1.58,36.41-8.39,41.05-27.25C212.54,154.79,201.51,135.86,184.43,130Z"/><path class="cls-4" d="M73.88,206.5c-9.73-3.53-20.38-1-28.56,5-12.1,8.87-19.69,28.76-11,42.24s27.38,17.64,41.79,11.89C88.83,260.61,95,247.53,94.4,234.28A31.45,31.45,0,0,0,73.88,206.5Z"/><path class="cls-4" d="M230.15,248.13c-8.07-12-23.87-18.8-38.49-14-13.5,4.46-24.64,16.11-26.16,30.57-1.19,11.34,4.28,22.22,13.31,28.95a36,36,0,0,0,15.4,6.61C221.76,305,246.46,272.35,230.15,248.13Z"/><path class="cls-4" d="M368.28,180.35a37.21,37.21,0,0,0-36.24.47c-10.68,6.27-18.52,17.32-18.93,29.92a35,35,0,0,0,28.73,35.45c25.17,4.77,48.37-20.6,42.45-44.93A32.51,32.51,0,0,0,368.28,180.35Z"/><path class="cls-2" d="M405.05,170.3c-3.86-.1-6.85,4.64-4.49,7.85,2.68,3.62,9.09,2.67,10.92-1.25C413.48,172.61,409,169.57,405.05,170.3Z"/><path class="cls-2" d="M443.56,238.59c-2.65-1.18-7.15-1.45-9,1.21a4.8,4.8,0,0,0-1.53,2.43,4.1,4.1,0,0,0-.08,1.35c0,.14-.05.26-.05.4a4.14,4.14,0,0,0,2.43,3.84,7.14,7.14,0,0,0,3.38,1.72c3.09.49,6.91-.39,8.14-3.58A5.9,5.9,0,0,0,443.56,238.59Z"/><path class="cls-4" d="M480.45,8.44c-56.62,32-78.69,103.4-77.48,165.32.06,3.22,5.07,3.23,5,0-1.17-60,20-130,75-161C485.79,11.18,483.26,6.85,480.45,8.44Z"/><path class="cls-4" d="M582.39,104c-80.53-15.85-133.29,70.45-144.7,137.9-.53,3.15,4.3,4.51,4.83,1.33,10.9-64.39,60.73-149.71,138.54-134.4C584.21,109.46,585.56,104.64,582.39,104Z"/><path class="cls-4" d="M492.78.15a11.2,11.2,0,0,0-4.19.12,14.55,14.55,0,0,0-4,1.38,13.78,13.78,0,0,0-3.75,2.86c-1.58,1.76-3.2,4.8-2.34,7.24a4.21,4.21,0,0,0,3.75,2.62,13.87,13.87,0,0,0,10.45-3.54c2.58-2.15,4.9-5.66,2.69-8.89A4.07,4.07,0,0,0,492.78.15Z"/><path class="cls-4" d="M593.07,104.64a11.33,11.33,0,0,0-3.31-2.57,14.52,14.52,0,0,0-4-1.48,13.63,13.63,0,0,0-4.72-.18c-2.34.35-5.52,1.67-6.4,4.1a4.17,4.17,0,0,0,1.22,4.4,13.89,13.89,0,0,0,10.32,3.92c3.35,0,7.37-1.25,7.73-5.15A4.12,4.12,0,0,0,593.07,104.64Z"/><path class="cls-1" d="M456.76,169c-1.68-9.89-5.51-16.69-16.77-17.85-10.12-1.05-17.37,5.34-19.62,14.55-.71,2.93,1.67,5.2,2.94,2.44,3-6.52,8.23-12.52,16-12.57,9.88-.07,12.24,8.27,14.74,16C455,174.47,457.26,172,456.76,169Z"/><path class="cls-2" d="M489,230.74c-1.91-2.36-5.66,1.8-3.76,4.14,3.09,3.83,3.58,9.42-.46,12.82-3.13,2.64-8.32,3.32-12.28,3.52-3,.16-3.65,5.87-.61,5.71,6.32-.33,13.86-1.56,17.6-7.26C493.11,244.14,492.94,235.59,489,230.74Z"/><path class="cls-5" d="M444.54,154.11c-.54-.24-1.09-.45-1.65-.64a13.67,13.67,0,0,0-3.05-.56,15.54,15.54,0,0,0-5.87.59,16.07,16.07,0,0,0-8.61,6.33,14.44,14.44,0,0,0-1.24,14.2c4.38,9.11,18.55,10.39,25.56,3.88a14.11,14.11,0,0,0,3.29-4.55c2.24-5.09.75-11-2.81-15.07A16.44,16.44,0,0,0,444.54,154.11Z"/><path class="cls-6" d="M440,153.86c-4.17,0-8.38,2.65-9.38,6.89a8.54,8.54,0,0,0,6.65,10.31c3.46.75,6.72.27,9.35-2.24a8.84,8.84,0,0,0,2.68-8.33,9.58,9.58,0,0,0-7.95-6.56A10.18,10.18,0,0,0,440,153.86Z"/><path class="cls-7" d="M421.75,142.75a18.08,18.08,0,0,0-.26,3.6c.15,3.21,5.16,3.23,5,0a11.37,11.37,0,0,1,.08-2.26C427.1,140.93,422.27,139.58,421.75,142.75Z"/><path class="cls-7" d="M433.74,164.8a4.23,4.23,0,1,0,.07,8.43C438.76,172.68,438.81,165.05,433.74,164.8Z"/><path class="cls-5" d="M480.9,226.5a17.1,17.1,0,0,0-1.65-.64,13.58,13.58,0,0,0-3-.56,15.58,15.58,0,0,0-5.88.59,16,16,0,0,0-8.6,6.33,14.44,14.44,0,0,0-1.25,14.2c4.38,9.11,18.56,10.39,25.56,3.88a14,14,0,0,0,3.29-4.55c2.25-5.09.76-11-2.81-15.07A16.25,16.25,0,0,0,480.9,226.5Z"/><path class="cls-6" d="M476.4,226.25c-4.18.05-8.39,2.64-9.39,6.89a8.54,8.54,0,0,0,6.66,10.3c3.46.76,6.71.28,9.34-2.23a8.82,8.82,0,0,0,2.69-8.33,9.6,9.6,0,0,0-8-6.56A8.54,8.54,0,0,0,476.4,226.25Z"/><path class="cls-7" d="M470.1,237.19a4.12,4.12,0,0,0-4.47,4.11,4.07,4.07,0,0,0,4.54,4.32C475.12,245.07,475.17,237.44,470.1,237.19Z"/><path class="cls-4" d="M481.06,192.14c-2-4.82-7.69-5.84-12.13-3.94-1.47.64-.2,2.8,1.27,2.16,3.2-1.37,7.41-.48,8.69,3.07,1.42,3.93-1.82,6.28-5.14,7.33-1.53.49-.88,2.91.67,2.42C479.35,201.62,483.39,197.63,481.06,192.14Z"/><g class="cls-8"><path class="cls-9" d="M413.74,279.48c-3.5,2.55-7.46,4.7-11.17,6.91a378.51,378.51,0,0,1-75.45,34c-6.66,2.25-13.42,4.3-20.19,6.21-83.41,23.29-175.59,22.54-259.35,1.25-10.12-2.55-22.45-6-31.32-12.93A29.24,29.24,0,0,1,6.15,301.37a64,64,0,0,1-3-13.18c-.7-5.51-1-11.12-1.75-16.58a185.19,185.19,0,0,1-.66-40.13,46.35,46.35,0,0,1,9.57-5.81c1.36-.6,2.41,1.15,1.46,2,0,.15.2.3.15.55-1.81,18.09,3.2,36.53,14.73,50.7,11.32,14,27.85,22.45,44.63,28.06,32.27,10.77,67.23,15.53,101.1,17.13a441.42,441.42,0,0,0,105.26-7.66c30.36-6,59.52-14.77,87.65-28.21,9.46-4.52,19.17-9,27.74-15.09,3.71-2.65,7-5.84,10.47-8.72,12.44-10.2,19.73-32.31,14.21-47.68a105.58,105.58,0,0,1,6.61,31.81C424.86,260.59,423.56,272.31,413.74,279.48Z"/></g><path class="cls-9" d="M400.87,180.53c-2-2.5-3.86-4.91-5.76-7C358.53,133.94,308.34,106.94,255,98.82,139.21,81.14-.42,157.89,3.29,287a4.67,4.67,0,0,1-.1,1.2c-.7-5.51-1-11.12-1.75-16.58A182.37,182.37,0,0,1,21,163.8a212.62,212.62,0,0,1,32.62-45.39A174,174,0,0,1,94.27,86.2c21-12.08,44.33-20,68.53-24.2a259.15,259.15,0,0,1,69.64-2.3A193,193,0,0,1,265.65,66a195.81,195.81,0,0,1,47.2,19.94c35.26,20.69,64.12,51.9,85.06,89.27C398.91,176.92,399.92,178.73,400.87,180.53Z"/><path class="cls-1" d="M391.11,169.4c.39.38.78.77,1.14,1.19,1.31,1.51,2.74,2.89,4.06,4.4,1,1.14,1.93,2.33,2.9,3.5.1.12,1.5,1.87,1.66,1.72a207.42,207.42,0,0,0-63.13-57.85c-26.77-16-56.61-26.56-87.13-32.71-19-3.83-38.4-6.62-57.76-4.34-8.85,1-17.69,1.22-26.29,3.19-31.61,7.23-62.66,18.82-89.5,37.27a173.31,173.31,0,0,0-49.55,51.36A169.42,169.42,0,0,0,6.39,229.71a180.25,180.25,0,0,0-4.23,40.91c.07,5.49,1,10.92,1.13,16.37C-.42,157.89,139.21,81.14,255,98.82q4,.6,7.89,1.34c2.63.5,5.26,1,7.87,1.63s5.22,1.21,7.81,1.89,5.17,1.4,7.74,2.16,5.12,1.57,7.66,2.42,5.06,1.75,7.57,2.68,5,1.92,7.48,2.93,4.94,2.08,7.39,3.18,4.86,2.24,7.27,3.43,4.79,2.4,7.15,3.66,4.71,2.55,7,3.89,4.62,2.71,6.9,4.12,4.53,2.86,6.76,4.35,4.44,3,6.62,4.57,4.33,3.15,6.46,4.78,4.23,3.29,6.3,5S375,154.27,377,156s4,3.56,6,5.39,3.88,3.7,5.77,5.6c.44.43.87.87,1.3,1.31S390.75,169.05,391.11,169.4Z"/><path class="cls-4" d="M148.45,88.53c-17.33,12.52-42.41,14.3-54.18-2.33,21-12.08,44.33-20,68.53-24.2C164.3,72.77,156.72,82.55,148.45,88.53Z"/><path class="cls-4" d="M312.85,85.9a28.24,28.24,0,0,1-31.27,4.35C272.17,85.35,266,75.93,265.65,66A195.81,195.81,0,0,1,312.85,85.9Z"/><g class="cls-10"><path class="cls-11" d="M96.63,97.06a.8.8,0,0,1-.22-.45c-.28-1.41,2-2.18,2.9-2.79a127.55,127.55,0,0,1,20.54-10.93c10.37-4.58,21.13-7.39,32.08-10.31a203.6,203.6,0,0,1,70.72-5.94,215.34,215.34,0,0,1,45,9,224.53,224.53,0,0,1,21.72,8c.89.38,3.49,1.25,3.8,2.24.58,1.89-4.08.58-4.95.42-3.25-.59-6.45-1.61-9.66-2.38a321.36,321.36,0,0,0-35.21-6.44,293.24,293.24,0,0,0-75.23-.12A247.57,247.57,0,0,0,126,86.75q-9.23,2.91-18.2,6.58C106.51,93.87,98.19,98.62,96.63,97.06Z"/></g><g class="cls-10"><path class="cls-11" d="M322.5,146.08c-.33-3.47-11-10.7-13.08-12-4.48-2.72-9-5.36-13.69-7.67a194.89,194.89,0,0,0-127.35-15.36,189.07,189.07,0,0,0-49.25,18.13c-16.5,8.83-34.38,20.18-45,36-.67,1,.71,1.93,1.55,1.34a.85.85,0,0,0,1,.08c33.9-20.76,71.94-31.86,110.81-35.52,34.15-2.29,68.7,1.13,102.55,7.44,5.48,1,10.76,2.67,16.19,3.86s10.33,3.44,15.55,5C322.42,147.55,322.55,146.61,322.5,146.08Z"/></g><path class="cls-12" d="M91,325.31a85.89,85.89,0,0,0-3.8-15.69c-1.55-4.61-6-10.8-11.35-7.73-4.39,2.51-6.78,7.62-9.4,11.74-3,4.73-5.57,9.72-8.16,14.69a108.59,108.59,0,0,0-5.76,12.74,73.86,73.86,0,0,0-2.78,8.76c-.13.58-.45,1.66-.7,2.81-7.88-.43-17-1.2-24.18,1.3a1.27,1.27,0,0,0-.56,2.09c2.71,2.27,6.15,2.07,9.55,2.2,3,.12,6,.12,9.06,0,1.78-.05,3.56-.12,5.33-.21,2.94-.14,5.64-.71,8-2.65a53.64,53.64,0,0,0,7.17-7.66c2.24-2.75,4.36-5.61,6.37-8.53a91.4,91.4,0,0,0,7.78-13.38c2.18,4.83,5.19,9.24,9.32,12.06,2.06,1.4,4.27,2.69,4.71-.79C92,333.4,91.46,329,91,325.31Z"/><path class="cls-12" d="M267.9,372.38c-1.22-1.72-3.38-2.19-5.33-2.77-4.35-1.3-8.83-2.45-13.26-3.45a37.24,37.24,0,0,0-5.66-1.2c2.17-9.19,4.16-18.46,4.66-27.91.35-6.55.79-15.57-2.84-21.67a7.81,7.81,0,0,0-1.63-2.28c-5.44-5.43-13.29-.2-18,3.52-8.28,6.58-14.41,15.32-19.43,24.53A1.28,1.28,0,0,0,207.9,343a1,1,0,0,0,.57.08c3.95-1.12,17.76-6.52,27.47-13.09-.94,4.94-.8,10.19-.59,15.31.27,6.29.46,12.86,1.58,19.07.43,2.36.86,5.14,3.49,5.88a129.77,129.77,0,0,0,17.51,3.65c2.47.33,7.83,2.17,9.78,0A1.27,1.27,0,0,0,267.9,372.38Z"/><path class="cls-12" d="M401.79,337.39a5.76,5.76,0,0,0-2.93-1.25c-3.1-.62-6.36.12-9.45.46-4.27.46-8.63.71-12.73,2.07.08-.22.15-.44.24-.65,2.39-5.71,4.5-11.54,6.41-17.42s3.65-11.85,5.22-17.84a29,29,0,0,0,1.25-7,5.71,5.71,0,0,0-.78-4.33c-.09-.15-.14-.29-.24-.43-4.16-6.15-15.82-1.4-20.6,1.12a81.58,81.58,0,0,0-17,12,63.29,63.29,0,0,0-7.1,7.54c-2,2.54,1.55,3,3.42,2.74,2.59-.32,5.18-.91,7.73-1.48a125.61,125.61,0,0,0,20.44-6.25c-.45,2.22-.73,4.48-1,6.66-.57,3.48-1.14,7-1.67,10.45-.54,3.11-1.09,6.22-1.62,9.33s-2.44,9,.88,11c2.5,1.49,6.58.23,9.24-.08q5.88-.69,11.74-1.54a33.56,33.56,0,0,0,6.15-1c1.23-.43,3.26-1.91,2.82-3.5A1.57,1.57,0,0,0,401.79,337.39Z"/><path class="cls-9" d="M425.92,199c-.61-3.37-4.05-6.6-7.3-4-2.25,1.8-2.06,5.77-1.33,8.26a8.33,8.33,0,0,0,2.26,3.89c1.92,1.74,5.08,1.53,6-1.16A14.76,14.76,0,0,0,425.92,199Z"/><path class="cls-9" d="M433.56,194.82a4.87,4.87,0,0,0-2,2.87c-.47,2.17.13,4.71,2.16,5.88,3,1.72,3.84-2.68,3.82-4.8a5.15,5.15,0,0,0-1.48-3.79A2,2,0,0,0,433.56,194.82Z"/><path class="cls-9" d="M428.8,212.84a4.35,4.35,0,0,0-1.75,2.19c-.78,2-.71,5.67,2.11,5.89,2.58.19,4.09-3.13,3.91-5.27-.13-1.66-1.55-3.42-3.35-3.14A2.67,2.67,0,0,0,428.8,212.84Z"/></g></g></svg>