<svg xmlns="http://www.w3.org/2000/svg" viewBox="0 0 48.18 17.54"><defs><style>.cls-1{fill:#850d13;}.cls-1,.cls-2,.cls-3,.cls-4,.cls-5,.cls-6,.cls-7,.cls-8,.cls-9{fill-rule:evenodd;}.cls-2{fill:#c17c48;}.cls-3{fill:#bd6736;}.cls-4{fill:#d69a55;}.cls-5{fill:#c86d33;}.cls-6{fill:#e7b45f;}.cls-7{fill:#cf712e;}.cls-8{fill:#f2d28d;}.cls-9{fill:#e5ae6e;}</style></defs><g id="레이어_2" data-name="레이어 2"><g id="Layer_1" data-name="Layer 1"><path class="cls-1" d="M47.13,16.55a5.8,5.8,0,0,1-2.37.54c-5,.16-19.15.65-29.8.36-8.35-.23-12.25-.07-14.13-1a3.07,3.07,0,0,1-.68-2C-.2,12,.18,8.92.07,6.54c0-.35,0-.72,0-1.08.05-.67.08-1.41.13-2C.34,1.77.5.89,1.09.26A26.4,26.4,0,0,1,3.83.08c2-.06,4.27,0,6,0,3.78-.11,6.28,0,10,.13,2.88.11,5.77.25,8.66.25,4.09,0,13.81-.58,17,.35,2.31.65,2.11,1.41,2.4,2.55.05.24.1.36.13.6a35.18,35.18,0,0,1,.06,5.71c-.09,2,.32,5.58-.94,6.89Z"/><path class="cls-2" d="M10.4.72C8.23.72,3.63.64,1.76.9A4.87,4.87,0,0,0,1,3.77C.9,4.32.87,5,.82,5.62c0,.32,0,.64,0,1,.1,2.2-.29,4.63.05,6.83a3.74,3.74,0,0,0,.56,1.93,3.65,3.65,0,0,0,2.22.59c.23.36,15.46.56,17.21.56,7.86,0,15.47-.17,23.32-.42a4.43,4.43,0,0,0,2.25-.61c.86-1.07.74-2.44.83-3.67-.05-2.16.49-6.08-.13-8.35-.31-1.13-.1-1.43-2.47-2.08-2.94-.8-12.28-.28-16.29-.28C23,1.07,15.32.5,10.4.72Z"/><path class="cls-3" d="M4.39.74C7.15,1,9.91,1.81,11.91,2.13c5.4.85,9.65,1.36,15.41,2S41.4,5.21,47.4,5.27c0-.09,0-.55,0-.64-2.86-.13-7.64-.14-9.52-.28-3.8-.28-7.23-.66-10.94-1-4.83-.42-9.74-.85-13.79-1.52C10.35,1.38,8.21,1,5.88.71,5.37.72,4.87.72,4.39.74Z"/><path class="cls-3" d="M21.87.91l.56.06c1.2.12,8.11.56,19.4,1,1.66.06,3.34.18,5,.31a2,2,0,0,1,.11.2c-3.53-.25-8.77-.49-11.08-.59-4.93-.24-10.28-.36-13.9-.77L18.85.8Z"/><path class="cls-3" d="M1.33,1.62A95.1,95.1,0,0,1,15.27,3.81,141.1,141.1,0,0,0,40.8,7.36c2.36.12,4.53.26,6.62.42V8c-4.92-.35-9.77-.57-13.12-.88-8.46-.79-12.66-1.7-21.83-3.63A107.07,107.07,0,0,0,1.29,1.75C1.3,1.7,1.32,1.66,1.33,1.62Z"/><path class="cls-3" d="M1,3.34a88.49,88.49,0,0,1,12.92,2c2.51.56,6.56.77,9.52,1.3,1,.18,7,1.6,7,1.84-9.51,0-19.81.1-29.53-.37V7.87C3,8,5.28,8.08,7.6,8.14c4.09.11,7.65,0,11.7,0,1.62,0,9.38.12,9.19,0C26.28,7.32,19.23,6.46,15.39,6,12.2,5.64,7.31,4.36,4.12,3.91c-1-.14-2.05-.25-3.15-.33A1.94,1.94,0,0,0,1,3.34Z"/><path class="cls-3" d="M.9,4.45c3.65.35,7.37.78,10.3,1.31,1.52.28,8.49,1.33,9.12,1.71.4.25-2.7,0-3.32-.07-3.67-.25-9.2.29-13.25.29-1,0-2-.05-2.89-.13V7.28c1.31.1,2.67.17,4.31.17C8.62,7.45,13,7,16.53,7,13.72,6.42,8.41,5.65,5.39,5.2c-.55-.08-2.5-.31-4.51-.54Z"/><path class="cls-3" d="M6.19,6.19c1.17.12,3.42.44,1.22.65A56.92,56.92,0,0,1,.85,6.9a2.35,2.35,0,0,0,0-.26H.92c1.43,0,8.49.14,3.65-.31C3.51,6.22,2.15,6.12.82,6V5.62h0C2.72,5.84,4.6,6,6.19,6.19Z"/><path class="cls-3" d="M47.3,10.59C32.77,9.61,15.4,10,.8,9.38v.18c1.58.06,3.28.12,5.09.17,11.25.36,29,.4,34.84.8,1.4.1,5.07.18,6.57.29Z"/><path class="cls-3" d="M.94,13.82C6.07,14,11.48,14.79,16,15c9.45.5,20.85,0,30.47.41h0a3.58,3.58,0,0,1-.39.21c-3.88-.16-7.9-.18-11.08-.18-7.09,0-14.09.13-19.9-.27C10,14.87,5.92,14.21,1,14A1.1,1.1,0,0,0,.94,13.82Z"/><path class="cls-3" d="M.75,10.61c8.05.57,17.5.84,24.33.79,8.47-.06,14.73.1,22.2.42,0,.22,0,.45,0,.68-3-.12-6.8-.34-9.58-.39-7.14-.12-13.33.09-21.4-.09C10,11.88,5.66,11.31.75,10.94Z"/><path class="cls-3" d="M13,.67c4.5.43,9.08,1.28,13,1.65,6.52.61,14,.8,21.12,1.11h0c0,.07,0,.14.05.2L45,3.54c-7.09-.29-14.08-.45-19.89-1.07-5-.55-9-1.37-13.93-1.78C11.78.67,12.4.67,13,.67Z"/><path class="cls-3" d="M.82,12.89c6.83.12,12.82,1,19.12,1.31,1.23.07,8.26.21,19.65.21,2.46,0,5,.08,7.33.22a1,1,0,0,1-.07.15c-3.23-.16-10.44-.18-13.27-.19-5,0-10.34.08-14.09-.17C12.27,14,7.09,13.19.84,13.08.83,13,.83,13,.82,12.89Z"/><path class="cls-3" d="M47.39,8.66a43.71,43.71,0,0,1-4.93-.31,56.84,56.84,0,0,0-6.58-.13c-9,0,7,1.29,8.37,1.47a26.13,26.13,0,0,0,3.08.2V9.67a15.91,15.91,0,0,1-2.22-.08c-2.47-.39-11.18-1-10.53-1.18.28-.07,3.46-.05,4.26,0a40.68,40.68,0,0,1,4.93.3,33.48,33.48,0,0,0,3.55.16h.05Z"/><path class="cls-4" d="M10.4.72C8.23.72,3.63.64,1.76.9A4.87,4.87,0,0,0,1,3.77C.9,4.32.87,5,.82,5.62c0,.32,0,.64,0,1,.09,1.85.06,3.36.26,5.11v.1a2.64,2.64,0,0,0,1.65,2c4.14.9,11.05.84,19,.84,4.33,0,7.28.66,11,.66,4.28,0,11.32-.13,14.28-1.29a17.93,17.93,0,0,0,.17-2.18c-.05-2.16.49-6.08-.13-8.35-.31-1.13-.1-1.43-2.47-2.08-2.94-.8-12.28-.28-16.29-.28C23,1.07,15.32.5,10.4.72Z"/><path class="cls-5" d="M4.39.74C7.15,1,9.91,1.81,11.91,2.13c5.4.85,9.65,1.36,15.41,2S41.4,5.21,47.4,5.27c0-.09,0-.55,0-.64-2.86-.13-7.64-.14-9.52-.28-3.8-.28-7.23-.66-10.94-1-4.83-.42-9.74-.85-13.79-1.52C10.35,1.38,8.21,1,5.88.71,5.37.72,4.87.72,4.39.74Z"/><path class="cls-5" d="M21.87.91l.56.06c1.2.12,8.11.56,19.4,1,1.66.06,3.34.18,5,.31a2,2,0,0,1,.11.2c-3.53-.25-8.77-.49-11.08-.59-4.93-.24-10.28-.36-13.9-.77L18.85.8Z"/><path class="cls-5" d="M1.33,1.62A95.1,95.1,0,0,1,15.27,3.81,141.1,141.1,0,0,0,40.8,7.36c2.36.12,4.53.26,6.62.42V8c-4.92-.35-9.77-.57-13.12-.88-8.46-.79-12.66-1.7-21.83-3.63A107.07,107.07,0,0,0,1.29,1.75C1.3,1.7,1.32,1.66,1.33,1.62Z"/><path class="cls-5" d="M1,3.34a88.49,88.49,0,0,1,12.92,2c2.51.56,6.56.77,9.52,1.3,1,.18,7,1.6,7,1.84-9.49,0-19.78.1-29.48-.37V7.88c2.18.11,4.4.2,6.71.26,4.09.11,7.65,0,11.7,0,1.62,0,9.38.12,9.19,0C26.28,7.32,19.23,6.46,15.39,6,12.2,5.64,7.31,4.36,4.12,3.91c-1-.14-2.05-.25-3.15-.33A1.94,1.94,0,0,0,1,3.34Z"/><path class="cls-5" d="M.9,4.45c3.65.35,7.37.78,10.3,1.31,1.52.28,8.49,1.33,9.12,1.71.4.25-2.7,0-3.32-.07-3.67-.25-9.2.29-13.25.29-1,0-1.94-.05-2.87-.13V7.28c1.31.1,2.67.17,4.3.17C8.62,7.45,13,7,16.53,7,13.72,6.42,8.41,5.65,5.39,5.2c-.55-.08-2.5-.31-4.51-.54Z"/><path class="cls-5" d="M6.19,6.19c1.17.12,3.42.44,1.22.65A56.77,56.77,0,0,1,.86,6.9c0-.08,0-.17,0-.26H.92c1.43,0,8.49.14,3.65-.31C3.51,6.22,2.15,6.12.82,6V5.62h0C2.72,5.84,4.6,6,6.19,6.19Z"/><path class="cls-5" d="M47.3,10.59C32.81,9.61,15.51,10,.94,9.39v.18c1.54.06,3.19.11,4.94.16,11.25.36,29,.4,34.84.8,1.4.1,5.07.18,6.57.29Z"/><path class="cls-5" d="M3.93,14c1.83.12,3.67.3,5.46.48A51.16,51.16,0,0,1,3.93,14Z"/><path class="cls-5" d="M1,10.63c8,.56,17.32.82,24.08.77,8.47-.06,14.73.1,22.2.42,0,.22,0,.45,0,.68-3-.12-6.8-.34-9.58-.39-7.14-.12-13.33.09-21.4-.09C10.13,11.88,5.83,11.33,1,11Z"/><path class="cls-5" d="M13,.67c4.5.43,9.08,1.28,13,1.65,6.52.61,14,.8,21.12,1.11h0c0,.07,0,.14.05.2L45,3.54c-7.09-.29-14.08-.45-19.89-1.07-5-.55-9-1.37-13.93-1.78C11.78.67,12.4.67,13,.67Z"/><path class="cls-5" d="M1.62,12.91c6.5.17,12.27,1,18.32,1.29,1.23.07,8.26.21,19.65.21,1.78,0,3.62,0,5.38.12l-1,.16c-3.55-.08-8.26-.1-10.42-.1-5,0-10.34.08-14.09-.17C12.64,14,7.62,13.27,1.79,13.1Z"/><path class="cls-5" d="M47.39,8.66a43.71,43.71,0,0,1-4.93-.31,56.84,56.84,0,0,0-6.58-.13c-9,0,7,1.29,8.37,1.47a26.13,26.13,0,0,0,3.08.2V9.67a15.91,15.91,0,0,1-2.22-.08c-2.47-.39-11.18-1-10.53-1.18.28-.07,3.47-.05,4.26,0a40.68,40.68,0,0,1,4.93.3,33.48,33.48,0,0,0,3.55.16h.05Z"/><path class="cls-6" d="M10.4.72C8.23.72,3.63.64,1.76.9a2.31,2.31,0,0,0-.43.73,1.13,1.13,0,0,1,.27.59c.1,1.07.76,4.84.49,6.3,0,.38,0,.76,0,1.14A4.29,4.29,0,0,0,2.93,12C5.75,13.7,13.27,13.6,22.38,13.6c3.86,0,6.48.6,9.82.6,5,0,14.14-.2,13.94-2.39a4.56,4.56,0,0,1,1.21-2.35,22.32,22.32,0,0,0-.2-6c-.31-1.13-.1-1.43-2.47-2.08-2.94-.8-12.28-.28-16.29-.28C23,1.07,15.32.5,10.4.72Z"/><path class="cls-7" d="M4.39.74C7.15,1,9.91,1.81,11.91,2.13c5.4.85,9.65,1.36,15.41,2S41.4,5.21,47.4,5.27c0-.09,0-.55,0-.64-2.86-.13-7.64-.14-9.52-.28-3.8-.28-7.23-.66-10.94-1-4.83-.42-9.74-.85-13.79-1.52C10.35,1.38,8.21,1,5.88.71,5.37.72,4.87.72,4.39.74Z"/><path class="cls-7" d="M21.87.91l.56.06c1.2.12,8.11.56,19.4,1,1.66.06,3.34.18,5,.31a2,2,0,0,1,.11.2c-3.53-.25-8.77-.49-11.08-.59-4.93-.24-10.28-.36-13.9-.77L18.85.8Z"/><path class="cls-7" d="M1.33,1.62A95.1,95.1,0,0,1,15.27,3.81,141.1,141.1,0,0,0,40.8,7.36c2.36.12,4.53.26,6.62.42V8c-4.92-.35-9.77-.57-13.12-.88-8.46-.79-12.66-1.7-21.83-3.63a109.25,109.25,0,0,0-11-1.73l-.09-.13Z"/><path class="cls-7" d="M1.74,3.39A91.45,91.45,0,0,1,13.91,5.34c2.51.56,6.56.77,9.52,1.3,1,.18,7,1.6,7,1.84-9.09,0-18.9.09-28.24-.31,0-.08,0-.15,0-.23,1.77.08,3.58.15,5.45.2,4.09.11,7.65,0,11.7,0,1.62,0,9.38.12,9.19,0C26.28,7.32,19.23,6.46,15.39,6,12.2,5.64,7.31,4.36,4.12,3.91c-.73-.1-1.52-.19-2.34-.26Z"/><path class="cls-7" d="M1.9,4.54c3.32.34,6.64.74,9.3,1.22,1.52.28,8.49,1.33,9.12,1.71.4.25-2.7,0-3.32-.07-3.67-.25-9.2.29-13.25.29-.54,0-1.07,0-1.59,0,0-.09,0-.19,0-.28.93,0,1.91.08,3,.08C8.62,7.45,13,7,16.53,7,13.72,6.42,8.41,5.65,5.39,5.2L1.93,4.78Z"/><path class="cls-7" d="M6.19,6.19c1.17.12,3.42.44,1.22.65a47.07,47.07,0,0,1-5.27.1,2.64,2.64,0,0,1,0-.29c2.36,0,6.43,0,2.45-.32L2.07,6.1l0-.35C3.52,5.92,4.94,6.06,6.19,6.19Z"/><path class="cls-7" d="M46.58,10.55c-13.94-.9-30.39-.62-44.47-1.12v.18l3.77.12c11.25.36,29,.4,34.84.8,1.19.09,4,.15,5.74.24Z"/><path class="cls-7" d="M2.3,10.71c7.69.5,16.38.73,22.78.69,8-.05,14.08.08,21.05.37v0a.8.8,0,0,1-.24.63c-2.73-.12-5.86-.29-8.24-.33-7.14-.12-13.33.09-21.4-.09-5.52-.13-9.56-.58-13.82-.94C2.39,11,2.34,10.84,2.3,10.71Z"/><path class="cls-7" d="M13,.67c4.5.43,9.08,1.28,13,1.65,6.52.61,14,.8,21.12,1.11h0c0,.07,0,.14.05.2L45,3.54c-7.09-.29-14.08-.45-19.89-1.07-5-.55-9-1.37-13.93-1.78C11.78.67,12.4.67,13,.67Z"/><path class="cls-7" d="M8.22,13.27l1.65.13C9.29,13.37,8.74,13.32,8.22,13.27Z"/><path class="cls-7" d="M47.39,8.66a43.71,43.71,0,0,1-4.93-.31,56.84,56.84,0,0,0-6.58-.13c-9,0,7,1.29,8.37,1.47a25.35,25.35,0,0,0,2.76.2c.05-.08.11-.15.16-.22a15.15,15.15,0,0,1-2.05-.08c-2.47-.39-11.18-1-10.53-1.18.28-.07,3.47-.05,4.26,0a40.68,40.68,0,0,1,4.93.3,33.48,33.48,0,0,0,3.55.16h.05Z"/><path class="cls-8" d="M10.4.72C8.23.72,3.63.64,1.76.9a2.31,2.31,0,0,0-.43.73,1.13,1.13,0,0,1,.27.59v.11c3.27-.14,7.23-.58,9.91-.57l13.56.09c14.25.08,18.43.58,22.05,1.52-.29-1.08-.12-1.38-2.45-2-2.94-.8-12.28-.28-16.29-.28C23,1.07,15.32.5,10.4.72Z"/><path class="cls-9" d="M4.39.74a56.5,56.5,0,0,1,5.75,1.05l1.38,0h1.19C10.14,1.34,8.09,1,5.88.71,5.37.72,4.87.72,4.39.74Z"/><path class="cls-9" d="M21.87.91l.56.06c1.2.12,8.11.56,19.4,1,1.66.06,3.34.18,5,.31a2,2,0,0,1,.11.2c-3.53-.25-8.77-.49-11.08-.59-4.93-.24-10.28-.36-13.9-.77L18.85.8Z"/><path class="cls-9" d="M1.33,1.62c1.48.11,2.94.26,4.37.45l-1,.07C3.56,2,2.47,1.86,1.42,1.76l-.09-.13Z"/><path class="cls-9" d="M13,.67c3,.29,6,.76,8.89,1.16l-1.86,0C17.13,1.39,14.34,1,11.19.69,11.78.67,12.4.67,13,.67Z"/></g></g></svg>