
<svg width="24" height="34" viewBox="0 0 24 34" fill="none" xmlns="http://www.w3.org/2000/svg">
<g clip-path="url(#clip0)">
<path d="M1.79643 11.4124C1.67869 11.3573 1.54795 11.3347 1.4182 11.3472C1.28846 11.3597 1.1646 11.4067 1.0599 11.4833C0.757482 11.6771 0.505591 11.9384 0.32459 12.246C0.143588 12.5535 0.0385562 12.8987 0.0179838 13.2537C0.00337268 13.381 0.0240574 13.5098 0.0778354 13.6264C0.131613 13.743 0.216471 13.843 0.323373 13.9159L5.08744 16.6424C4.98054 16.5696 4.89569 16.4695 4.84191 16.3529C4.78813 16.2363 4.76744 16.1075 4.78206 15.9802C4.80263 15.6253 4.90766 15.28 5.08866 14.9725C5.26966 14.6649 5.52155 14.4036 5.82397 14.2098C5.92867 14.1332 6.05253 14.0862 6.18227 14.0737C6.31202 14.0613 6.44276 14.0838 6.5605 14.139L1.79643 11.4124Z" fill="#A88E68"/>
<path d="M6.86585 14.7975C6.84528 15.1525 6.74025 15.4977 6.55925 15.8053C6.37825 16.1128 6.12636 16.3741 5.82394 16.568C5.71924 16.6445 5.59538 16.6915 5.46564 16.704C5.33589 16.7165 5.20515 16.6939 5.08741 16.6388C4.98051 16.5659 4.89565 16.4659 4.84187 16.3493C4.7881 16.2327 4.76741 16.1039 4.78202 15.9766C4.80259 15.6217 4.90763 15.2764 5.08863 14.9689C5.26963 14.6613 5.52152 14.4 5.82394 14.2062C5.92864 14.1296 6.0525 14.0826 6.18224 14.0701C6.31198 14.0576 6.44273 14.0802 6.56046 14.1353C6.66737 14.2082 6.75222 14.3082 6.806 14.4248C6.85978 14.5414 6.88046 14.6702 6.86585 14.7975Z" fill="#006185"/>
<path d="M11.515 10.6547C10.5485 10.6547 9.76526 10.2085 9.76526 9.65967V33.005C9.76526 33.5539 10.5485 34 11.515 34C12.4814 34 13.2611 33.5539 13.2611 33.005V9.65967C13.2611 10.2085 12.4814 10.6547 11.515 10.6547Z" fill="#A88E68"/>
<path d="M11.515 10.6547C12.4813 10.6547 13.2647 10.2092 13.2647 9.65967C13.2647 9.11015 12.4813 8.66467 11.515 8.66467C10.5486 8.66467 9.76526 9.11015 9.76526 9.65967C9.76526 10.2092 10.5486 10.6547 11.515 10.6547Z" fill="#BAA38F"/>
<path d="M17.8096 29.719L13.8144 31.9959V27.6511L17.8096 25.3779V29.719Z" fill="#EDE9E9"/>
<path d="M19.5126 19.1565L7.43715 12.2835C7.39789 12.256 7.35196 12.2393 7.30401 12.2349C7.25605 12.2305 7.20778 12.2388 7.16409 12.2587L3.16888 14.5178C3.21257 14.4979 3.26084 14.4897 3.3088 14.494C3.35675 14.4984 3.40269 14.5151 3.44194 14.5426L15.5174 21.4297C15.6303 21.5024 15.7242 21.6001 15.7916 21.7152C15.859 21.8302 15.898 21.9593 15.9054 22.0919V27.2439C15.9095 27.3219 15.8927 27.3996 15.8568 27.4692C15.8208 27.5388 15.767 27.5979 15.7006 27.6405L19.6958 25.3673C19.7625 25.324 19.8165 25.2643 19.8524 25.1941C19.8883 25.1239 19.905 25.0457 19.9006 24.9671V19.8292C19.8955 19.6946 19.8575 19.5632 19.79 19.4461C19.7225 19.329 19.6273 19.2297 19.5126 19.1565Z" fill="#0F303F"/>
<path d="M7.27188 25.1052C7.412 25.2646 7.56649 25.3177 7.6635 25.261C7.70471 25.2375 7.73547 25.1996 7.74972 25.1548C7.81904 24.8007 8.02025 24.4849 8.3138 24.2696C8.48609 24.1875 8.67817 24.1543 8.86853 24.1737C9.05889 24.193 9.24001 24.2643 9.39164 24.3793C10.9833 25.2858 11.2168 27.1235 11.2168 27.1235C11.2851 27.3927 11.497 27.6157 11.691 27.6193L15.5605 27.6795C15.611 27.6792 15.6606 27.6657 15.7042 27.6405C15.7706 27.5979 15.8244 27.5388 15.8604 27.4692C15.8963 27.3996 15.9131 27.3219 15.909 27.2439V22.0919C15.9016 21.9592 15.8626 21.8302 15.7952 21.7152C15.7278 21.6001 15.6339 21.5023 15.521 21.4297L3.44194 14.5568C3.40403 14.527 3.35876 14.5077 3.31077 14.5008C3.26278 14.494 3.21381 14.4998 3.16889 14.5178C3.1285 14.5448 3.09641 14.5822 3.07613 14.6259C3.05585 14.6696 3.04817 14.718 3.05392 14.7657V19.9284C3.08379 20.2367 3.20923 20.5284 3.4132 20.764L7.27188 25.1052Z" fill="#0F303F"/>
<path d="M5.22754 20.9623V22.8106V27.1093L13.8144 31.9958V27.6511V25.8452L5.22754 20.9623Z" fill="#FFFBFB"/>
<path d="M7.08146 16.6282L5.90302 15.959V21.8794L7.08146 22.5487V16.6282Z" fill="#FFFBFB"/>
<path d="M13.139 20.0735L11.9605 19.4043V25.3283L13.139 25.9975V20.0735Z" fill="#FFFBFB"/>
<path d="M6.82635 23.3135C6.82635 23.533 6.67186 23.6216 6.46707 23.5118C6.36286 23.4478 6.27582 23.36 6.21328 23.2558C6.15075 23.1517 6.11457 23.0342 6.10779 22.9134C6.10779 22.6938 6.26228 22.6053 6.46707 22.7151C6.57087 22.7795 6.6576 22.8674 6.72008 22.9715C6.78256 23.0756 6.81899 23.1928 6.82635 23.3135Z" fill="#3D3C3C"/>
<path d="M12.8983 26.7588C12.8983 26.9783 12.7438 27.0704 12.539 26.9571C12.4352 26.8934 12.3485 26.8062 12.286 26.7027C12.2235 26.5992 12.187 26.4824 12.1797 26.3622C12.1797 26.1427 12.3342 26.0542 12.539 26.1639C12.6427 26.2276 12.7294 26.3149 12.792 26.4183C12.8545 26.5218 12.8909 26.6386 12.8983 26.7588Z" fill="#3D3C3C"/>
<path d="M17.1342 17.8002L13.139 20.0735L11.9605 19.4043L15.9557 17.131L17.1342 17.8002Z" fill="#FFFBFB"/>
<path d="M11.0767 14.3549L7.08146 16.6282L5.90302 15.9589L9.89822 13.6857L11.0767 14.3549Z" fill="#FFFBFB"/>
<path d="M11.497 12.234C10.2719 12.234 9.28027 11.6674 9.28027 10.9734V16.6955C9.28027 17.4037 10.2719 17.9561 11.497 17.9561C12.7222 17.9561 13.7102 17.3896 13.7102 16.6955V10.9769C13.6922 11.6851 12.7006 12.234 11.497 12.234Z" fill="url(#paint0_linear)"/>
<path d="M11.497 12.2339C10.2719 12.2339 9.28027 11.6674 9.28027 10.9733C9.28027 10.2793 10.2719 9.71277 11.497 9.71277C12.7222 9.71277 13.6923 10.2687 13.6923 10.9769C13.6923 11.6851 12.7006 12.2339 11.497 12.2339Z" fill="#A1B400"/>
<path d="M16.6779 11.5575C15.4815 13.3953 13.6958 15.7004 11.6803 16.182C8.53656 16.9327 6.22638 11.7417 6.22638 8.55129C6.22638 5.36091 8.19165 2.64502 11.3785 2.09618C15.5246 1.38445 20.2599 6.05139 16.6779 11.5575Z" fill="url(#paint1_radial)"/>
<path d="M11.497 10.2687C6.97726 10.2687 3.32697 8.19376 3.32697 5.63367V6.26749C3.32697 8.83113 6.97727 10.9061 11.4791 10.9061C15.9809 10.9061 19.6276 8.83113 19.6276 6.26749V5.63367C19.6276 8.19376 15.9773 10.2687 11.497 10.2687Z" fill="url(#paint2_radial)"/>
<path d="M11.497 10.2687C6.97726 10.2687 3.32697 8.1937 3.32697 5.63361C3.32697 3.07352 6.97726 0.994995 11.497 0.994995C16.0168 0.994995 19.6455 3.07352 19.6455 5.63361C19.6455 8.1937 15.9773 10.2687 11.497 10.2687Z" fill="url(#paint3_radial)"/>
<path d="M16.5845 5.68319C16.5845 4.41908 15.8659 3.30722 14.7881 1.47302H8.18087C7.07428 3.30722 6.38446 4.41908 6.38446 5.68319C6.38446 7.28723 8.66949 8.58675 11.4898 8.58675C14.3102 8.58675 16.5952 7.28723 16.5952 5.68319H16.5845Z" fill="url(#paint4_radial)"/>
<path d="M11.497 0C9.60362 0 8.08386 0.863987 8.08386 1.92981C8.08386 2.99563 9.60362 3.86315 11.4791 3.86315C13.3545 3.86315 14.8743 2.99917 14.8707 1.92981C14.8671 0.860446 13.3509 0 11.497 0Z" fill="url(#paint5_radial)"/>
<path d="M18.9126 21.1606C18.7972 21.1088 18.6699 21.0881 18.5437 21.1006C18.4175 21.113 18.2968 21.1581 18.1941 21.2314C17.892 21.4257 17.6405 21.687 17.4595 21.9945C17.2786 22.302 17.1733 22.647 17.1522 23.0019C17.1369 23.1297 17.1572 23.2592 17.211 23.3765C17.2648 23.4938 17.3501 23.5944 17.4575 23.6676L22.2396 26.3905C22.1316 26.3185 22.0448 26.2197 21.9881 26.1041C21.9313 25.9884 21.9065 25.86 21.9162 25.7319C21.9374 25.3771 22.0426 25.0321 22.2236 24.7246C22.4045 24.4171 22.6561 24.1557 22.9581 23.9615C23.0628 23.8849 23.1867 23.8379 23.3164 23.8254C23.4462 23.8129 23.5769 23.8355 23.6947 23.8906L18.9126 21.1606Z" fill="#A88E68"/>
<path d="M24 24.5457C23.9786 24.9005 23.8732 25.2454 23.6923 25.5528C23.5114 25.8603 23.2599 26.1217 22.9581 26.3162C22.8587 26.4009 22.7351 26.4532 22.6043 26.4658C22.4735 26.4784 22.342 26.4508 22.2278 26.3868C22.1135 26.3227 22.0223 26.2254 21.9665 26.1081C21.9107 25.9909 21.8931 25.8594 21.9162 25.7319C21.9373 25.3771 22.0426 25.0321 22.2236 24.7246C22.4045 24.4171 22.6561 24.1557 22.9581 23.9615C23.0628 23.8849 23.1867 23.8379 23.3164 23.8254C23.4462 23.813 23.5769 23.8355 23.6946 23.8906C23.8004 23.9629 23.8845 24.0618 23.9382 24.177C23.992 24.2923 24.0133 24.4196 24 24.5457Z" fill="#917B5A"/>
</g>
<defs>
<linearGradient id="paint0_linear" x1="9.26231" y1="14.4647" x2="13.6922" y2="14.4647" gradientUnits="userSpaceOnUse">
<stop stop-color="#FFF7B0"/>
<stop offset="0.26" stop-color="#FFF1AB"/>
<stop offset="0.61" stop-color="#FFDF9C"/>
<stop offset="1" stop-color="#FFC485"/>
</linearGradient>
<radialGradient id="paint1_radial" cx="0" cy="0" r="1" gradientUnits="userSpaceOnUse" gradientTransform="translate(172.396 170.088) scale(475.857 577.925)">
<stop stop-color="#FFF7B0"/>
<stop offset="0.26" stop-color="#FFF1AB"/>
<stop offset="0.61" stop-color="#FFDF9C"/>
<stop offset="1" stop-color="#FFC485"/>
</radialGradient>
<radialGradient id="paint2_radial" cx="0" cy="0" r="1" gradientUnits="userSpaceOnUse" gradientTransform="translate(2.15571 4.18189) scale(11.9246 11.7523)">
<stop stop-color="#E3E3E3"/>
<stop offset="0.1" stop-color="#DEDEDE"/>
<stop offset="0.3" stop-color="#DBDBDB"/>
<stop offset="0.42" stop-color="#D7D7D7"/>
<stop offset="0.74" stop-color="#D1D1D1"/>
<stop offset="1" stop-color="#9C9C9C"/>
</radialGradient>
<radialGradient id="paint3_radial" cx="0" cy="0" r="1" gradientUnits="userSpaceOnUse" gradientTransform="translate(1.32577 3.89856) scale(18.4994 18.2322)">
<stop stop-color="#E3E3E3"/>
<stop offset="1" stop-color="#E0E0E0"/>
</radialGradient>
<radialGradient id="paint4_radial" cx="0" cy="0" r="1" gradientUnits="userSpaceOnUse" gradientTransform="translate(77.4515 113.301) scale(386.989 269.61)">
<stop stop-color="#E3E3E3"/>
<stop offset="0.1" stop-color="#DEDEDE"/>
<stop offset="0.3" stop-color="#DBDBDB"/>
<stop offset="0.42" stop-color="#D7D7D7"/>
<stop offset="0.74" stop-color="#D1D1D1"/>
<stop offset="1" stop-color="#9C9C9C"/>
</radialGradient>
<radialGradient id="paint5_radial" cx="0" cy="0" r="1" gradientUnits="userSpaceOnUse" gradientTransform="translate(162.281 -15.3367) scale(199.465 113.538)">
<stop stop-color="#E3E3E3"/>
<stop offset="1" stop-color="#E0E0E0"/>
</radialGradient>
<clipPath id="clip0">
<rect width="24" height="34" fill="white"/>
</clipPath>
</defs>
</svg>
